<?xml version="1.0" encoding="UTF-8"?>
<svg id="Layer_1" data-name="Layer 1" xmlns="http://www.w3.org/2000/svg" viewBox="0 0 85.04 85.04">
  <defs>
    <style>
      .cls-1 {
        fill: #000;
        stroke-width: 0px;
      }
    </style>
  </defs>
  <path class="cls-1" d="M56.22.65c1.17.8,1.31,1.43.58,2.66-1.11,1.87-2.23,3.73-3.35,5.59,1.08.73,2.19,1.37,3.18,2.15,5.49,4.28,8.38,9.93,8.7,16.89.07,1.51-.51,2.09-2.02,2.09-13.34,0-26.67,0-40.01,0-1.51,0-2.1-.58-2.02-2.09.44-8.17,4.19-14.35,11.21-18.56.21-.12.42-.25.71-.42-.67-1.13-1.33-2.24-1.99-3.35-.46-.77-.93-1.54-1.38-2.31-.73-1.24-.59-1.86.58-2.66.33,0,.65,0,.98,0,.4.5.85.96,1.18,1.49,1.05,1.68,2.06,3.38,3.06,5.09.25.44.5.52.97.37,4.47-1.45,8.96-1.45,13.43,0,.47.15.72.08.97-.36,1.01-1.74,2.04-3.46,3.1-5.16.32-.51.76-.95,1.14-1.43.33,0,.65,0,.98,0ZM62.23,27.01c-.19-5.33-3.45-12.01-10.12-15.35-7.04-3.53-13.93-2.95-20.28,1.71-4.54,3.33-6.95,7.97-7.51,13.63h37.91Z"/>
  <path class="cls-1" d="M44.78,69.64h-2.9c-.01.3-.04.59-.04.87,0,2.61.01,5.23,0,7.84-.02,2.89-1.87,5.18-4.67,5.81-2.59.58-5.31-.72-6.47-3.26-.39-.86-.56-1.88-.59-2.84-.08-2.72-.03-5.44-.04-8.17,0-.05-.02-.11-.07-.29-.53,0-1.09.02-1.65,0-4.15-.18-7.07-3.15-7.08-7.31-.03-9.66-.01-19.33,0-28.99,0-1.24.55-1.79,1.77-1.85.19,0,.38,0,.57,0,13.12,0,26.25,0,39.37,0,.33,0,.65.01.98.05.83.09,1.23.61,1.36,1.39.03.21.02.43.02.65,0,9.5,0,19,0,28.5,0,1.67-.35,3.25-1.36,4.61-1.38,1.85-3.23,2.87-5.56,2.95-.59.02-1.19,0-1.9,0,0,.38,0,.66,0,.95,0,2.59.03,5.17,0,7.76-.06,4.21-3.89,6.95-7.85,5.64-2.2-.73-3.84-2.94-3.88-5.34-.04-2.67-.01-5.34-.02-8,0-.29,0-.59,0-.96ZM24.23,34.48c0,.33,0,.57,0,.81,0,2.72,0,5.44,0,8.17,0,6.18,0,12.36,0,18.54,0,2.99,1.68,4.65,4.65,4.66.63,0,1.25,0,1.88,0,1.88,0,2.27.38,2.27,2.23,0,3.05,0,6.1,0,9.15,0,1.6.73,2.72,1.99,3.14,1.98.66,3.85-.75,3.87-2.93.02-3.19,0-6.37,0-9.56,0-1.55.48-2.03,2.06-2.03,1.55,0,3.1,0,4.66,0,1.63,0,2.09.46,2.09,2.08,0,3.19-.02,6.37,0,9.56.02,2.16,1.96,3.56,3.92,2.86,1.22-.43,1.94-1.55,1.94-3.1.01-3.21,0-6.43,0-9.64,0-1.2.55-1.74,1.74-1.76.76-.01,1.52,0,2.29,0,3.14,0,4.76-1.63,4.76-4.79,0-8.82,0-17.64,0-26.46v-.92H24.23Z"/>
  <path class="cls-1" d="M19.78,46.9c0,3.59.07,7.18-.02,10.77-.06,2.48-2.3,4.48-4.87,4.58-2.57.09-4.87-1.74-5.23-4.19-.09-.59-.13-1.19-.13-1.79,0-6.39,0-12.79,0-19.18,0-2.17.78-3.93,2.76-5.01,3.25-1.77,7.24.44,7.51,4.13.01.19.04.38.04.57,0,3.37,0,6.75,0,10.12h-.05ZM16.86,46.8c0-3.32,0-6.64,0-9.96,0-1.44-.83-2.38-2.09-2.41-1.32-.03-2.24.87-2.24,2.34-.02,6.72-.02,13.44,0,20.16,0,.49.16,1.03.41,1.46.47.8,1.5,1.11,2.36.84.95-.29,1.55-1.08,1.55-2.15.01-3.43,0-6.86,0-10.28Z"/>
  <path class="cls-1" d="M66.84,46.79c0-3.56-.06-7.13.02-10.69.06-2.52,2.27-4.5,4.92-4.63,2.5-.12,4.85,1.8,5.19,4.26.08.59.13,1.19.13,1.79,0,6.37,0,12.73,0,19.1,0,2.24-.81,4.03-2.87,5.1-3.2,1.66-7.24-.56-7.36-4.16-.13-3.59-.03-7.18-.03-10.77,0,0,0,0,0,0ZM69.76,46.87h0c0,3.35,0,6.69,0,10.04,0,1.43.84,2.37,2.11,2.4,1.31.03,2.23-.89,2.23-2.36.02-6.72.01-13.44,0-20.16,0-.44-.12-.93-.32-1.32-.45-.84-1.47-1.21-2.39-.98-.93.24-1.6,1.07-1.61,2.1-.01,3.43,0,6.86,0,10.28Z"/>
  <path class="cls-1" d="M35.97,19.23c0,.27,0,.54,0,.82-.03.8-.35,1.12-1.15,1.16-.14,0-.27,0-.41,0-2.23,0-2.92-.95-2.28-3.12.16-.54.54-.85,1.09-.77.91.13,2.04-.51,2.66.62.19.34.09.85.12,1.28,0,0-.02,0-.03,0Z"/>
  <path class="cls-1" d="M50.65,19.26c0-.3,0-.6,0-.9.01-.65.35-1.02,1-1.04.63-.02,1.25,0,1.88,0,.13,0,.29.02.39.09,1.1.76.56,1.89.57,2.86.01.71-.59.98-1.27.95-.22,0-.44,0-.65,0-1.81,0-1.92-.11-1.91-1.95Z"/>
</svg>
