<?xml version="1.0" encoding="UTF-8"?>
<svg id="Layer_1" data-name="Layer 1" xmlns="http://www.w3.org/2000/svg" viewBox="0 0 540 405">
  <defs>
    <style>
      .cls-1 {
        fill: #000;
        stroke-width: 0px;
      }
    </style>
  </defs>
  <path class="cls-1" d="M269.82,37.67c2.38.85,4.76,1.71,7.16,2.53,15.82,5.43,31.65,10.86,47.47,16.29,20.56,7.06,41.13,14.12,61.69,21.18,14.68,5.04,29.35,10.09,44.03,15.13.93.32,1.85.68,2.8.94.61.17.71.48.64,1.04-.39,3.08-.75,6.15-1.12,9.23-.88,7.27-1.75,14.55-2.63,21.82-.94,7.72-1.89,15.44-2.82,23.16-.81,6.69-1.6,13.37-2.41,20.06-.89,7.36-1.79,14.71-2.67,22.07-.81,6.77-1.61,13.54-2.42,20.31-.88,7.27-1.78,14.54-2.66,21.81-.81,6.74-1.6,13.49-2.42,20.23-.88,7.27-1.77,14.54-2.65,21.82-.81,6.71-1.61,13.43-2.41,20.14-.46,3.86-.91,7.72-1.41,11.58-.05.36-.4.8-.73.99-7.92,4.42-15.86,8.82-23.8,13.22-10.52,5.83-21.05,11.66-31.57,17.49-14.07,7.8-28.15,15.6-42.22,23.4-11.95,6.62-23.9,13.25-35.86,19.87-1.13.63-2.28,1.23-3.4,1.89-.46.27-.81.3-1.31.02-8.9-4.92-17.82-9.81-26.74-14.71-11.06-6.08-22.13-12.16-33.19-18.23-11.53-6.34-23.07-12.68-34.6-19.01-13.11-7.21-26.23-14.41-39.34-21.62-.37-.2-.72-.48-1.11-.6-1.59-.51-2.02-1.63-2.2-3.22-1.04-9.32-2.21-18.63-3.33-27.95-.92-7.69-1.83-15.39-2.76-23.08-1.04-8.64-2.1-17.29-3.14-25.93-.88-7.3-1.74-14.6-2.62-21.9-.87-7.22-1.76-14.43-2.64-21.65-.82-6.8-1.62-13.6-2.44-20.4-.8-6.66-1.62-13.31-2.42-19.97-.89-7.38-1.77-14.77-2.66-22.16-.87-7.22-1.76-14.43-2.64-21.65-.24-1.96-.45-3.92-.72-5.87-.09-.66.08-.99.75-1.22,14.81-5.18,29.6-10.39,44.4-15.59,19.24-6.77,38.47-13.53,57.71-20.3,17.98-6.33,35.97-12.66,53.95-19,1.99-.7,3.97-1.43,5.95-2.15.17,0,.34,0,.51,0ZM417.37,106.4c-1.02-.36-1.99-.71-2.97-1.04-12.02-4.09-24.05-8.18-36.07-12.28-11.12-3.79-22.23-7.6-33.34-11.39-12.02-4.1-24.05-8.18-36.07-12.28-12.95-4.42-25.9-8.85-38.86-13.24-.53-.18-1.24-.17-1.77.02-11.26,3.98-22.51,7.99-33.75,12-17.8,6.35-35.6,12.7-53.4,19.04-18.17,6.48-36.34,12.96-54.51,19.44-1.87.67-1.84.67-1.6,2.68.67,5.59,1.33,11.19,1.98,16.79.76,6.58,1.49,13.16,2.25,19.74.93,8.03,1.89,16.06,2.81,24.09.76,6.61,1.5,13.22,2.26,19.82.87,7.56,1.77,15.11,2.65,22.67.82,7.08,1.61,14.17,2.43,21.25.93,8.03,1.89,16.06,2.81,24.09.76,6.61,1.5,13.22,2.26,19.82.77,6.66,1.57,13.32,2.32,19.98.06.56.3.83.76,1.09,20.85,11.55,41.7,23.12,62.55,34.68,19.34,10.73,38.69,21.45,58.02,32.2.81.45,1.37.39,2.14-.03,9.65-5.37,19.32-10.71,28.98-16.06,9.25-5.12,18.49-10.23,27.74-15.35,12.52-6.93,25.05-13.87,37.57-20.8,9.39-5.2,18.79-10.38,28.17-15.61.33-.18.65-.64.7-1.01.78-5.92,1.53-11.85,2.27-17.77.87-6.96,1.74-13.92,2.61-20.88.82-6.48,1.65-12.97,2.46-19.45.87-6.96,1.73-13.92,2.6-20.88,1.1-8.72,2.22-17.44,3.31-26.16,1.16-9.2,2.28-18.4,3.44-27.59,1.1-8.75,2.23-17.5,3.33-26.25.94-7.49,1.87-14.98,2.8-22.48.37-2.93.73-5.86,1.11-8.85Z"/>
  <path class="cls-1" d="M374.65,291.97c-1.69,0-3.23.02-4.77,0-10.14-.17-20.29-.36-30.43-.53-.6,0-.89-.22-1.12-.77-7.14-16.58-14.3-33.16-21.44-49.75-.25-.58-.54-.78-1.18-.78-29.55.02-59.1.02-88.65,0-.68,0-.97.21-1.22.83-5.87,14.73-11.76,29.45-17.65,44.18-.64,1.6-1.3,3.18-1.89,4.8-.21.58-.54.76-1.12.76-5.27.07-10.54.15-15.81.25-6.79.13-13.58.28-20.37.42-.16,0-.33-.03-.65-.06,33.59-74.74,67.15-149.41,100.81-224.29,35.22,75.09,70.33,149.97,105.49,224.93ZM303.41,210.11c-11.33-23.72-22.6-47.3-33.95-71.06-10.04,23.8-19.99,47.39-29.97,71.06h63.92Z"/>
</svg>