<?xml version="1.0" encoding="UTF-8"?>
<svg id="Layer_1" data-name="Layer 1" xmlns="http://www.w3.org/2000/svg" viewBox="0 0 256 257">
  <defs>
    <style>
      .cls-1 {
        fill: #fff;
        stroke: #000;
        stroke-miterlimit: 10;
        stroke-width: 5px;
      }
    </style>
  </defs>
  <path class="cls-1" d="M193.45,36.87c-27.34-23.6-87.84-35.3-133.18-1.41C17.74,63.97,15.64,116.09,15.64,116.09c7.24,28.51,35.99,55.85,91.37,42.53-6.54-38.33,6.28-135.3,86.44-121.75Z"/>
  <path class="cls-1" d="M164.97,129.57c-29.92,24.83-120.99,62.72-149.33-13.48-6.77,35.48,12.02,94.53,64.03,116.85,45.96,22.58,93.85-3.57,93.85-3.57,21.07-20.53,30.68-58.5-8.55-99.81"/>
  <path class="cls-1" d="M110.93,94.74c36.46,13.5,114.41,71.99,62.59,134.63,34.11-11.88,74.11-57.33,67.44-113.53-3.42-51.09-47.51-78.97-47.51-78.97-28.31-7.98-66.37,3.24-82.52,57.87"/>
</svg>