<?xml version="1.0" encoding="UTF-8"?>
<svg id="Layer_1" data-name="Layer 1" xmlns="http://www.w3.org/2000/svg" viewBox="0 0 85.04 85.04">
  <defs>
    <style>
      .cls-1 {
        fill: #000;
        stroke-width: 0px;
      }
    </style>
  </defs>
  <path class="cls-1" d="M27.79,83.82c-1.39-.44-2.85-.73-4.17-1.34-3.94-1.82-6.68-4.95-8.92-8.57-2.97-4.8-4.68-10.08-5.74-15.59-.77-3.99-1.17-8.02-1.1-12.07.13-8.14,3.2-14.89,9.93-19.66,5.57-3.94,11.72-4.74,18.21-2.6,2.03.67,4.06,1.37,6.06,2.11,1.11.41,2.17.42,3.29.03,2.63-.92,5.22-2.03,7.91-2.64,8.28-1.89,15.15.72,20.7,7.01.81.92,1.51,1.94,2.32,2.99-8.12,1.95-12.94,6.66-12.82,15.25.09,6.37,5.34,13.15,14,13.72-.14.47-.26.91-.4,1.36-1.51,4.93-3.58,9.59-6.95,13.56-2.55,3.01-5.58,5.32-9.54,6.18-.3.07-.6.16-.9.25h-3.38c-.1-.04-.2-.1-.3-.11-2.43-.25-4.65-1.15-6.84-2.18-3.71-1.75-7.44-1.64-11.16.1-1.37.64-2.81,1.17-4.25,1.65-.83.28-1.72.37-2.58.54h-3.38ZM72.88,65.3c-7.61-2.67-12.26-7.79-12.93-15.75-.68-8.08,3.1-13.98,10.16-17.85-.04-.06-.08-.14-.13-.19-4.43-4.21-9.62-5.97-15.64-4.55-2.72.64-5.35,1.71-8,2.62-1.77.61-3.5.62-5.27,0-2.14-.76-4.29-1.5-6.45-2.22-2.94-.99-5.92-1.14-8.95-.45-7.52,1.73-13.55,8.71-14.11,17.48-.47,7.43.71,14.7,3.37,21.68,1.49,3.91,3.47,7.55,6.51,10.51,2.64,2.57,5.71,4.02,9.51,3.56,1.91-.23,3.68-.86,5.4-1.72,2.74-1.37,5.64-1.97,8.71-1.7,2.39.21,4.58.99,6.71,2.04,5.48,2.7,10.76,1.66,14.88-2.85,1.64-1.79,3.01-3.77,4.09-5.94.76-1.52,1.41-3.1,2.12-4.67Z"/>
  <path class="cls-1" d="M61.61,1.4c.15,4.87-.29,9.52-3.21,13.56-2.4,3.32-5.8,5.03-9.74,5.68-2,.33-4.05.33-6.08.48-.38.03-.67,0-.68-.53-.05-3.73.23-7.4,1.88-10.82,2.16-4.48,5.88-6.89,10.62-7.88,1.15-.24,2.33-.39,3.5-.47,1.2-.08,2.41-.02,3.7-.02ZM57.89,5.12c-6.6-.45-13.26,6.28-12.17,12.25,7.85-.37,11.88-4.9,12.17-12.25Z"/>
</svg>