<?xml version="1.0" encoding="UTF-8"?>
<svg id="Layer_1" data-name="Layer 1" xmlns="http://www.w3.org/2000/svg" viewBox="0 0 2215 2500">
  <defs>
    <style>
      .cls-1 {
        fill: none;
        stroke: #000;
        stroke-miterlimit: 10;
        stroke-width: 20px;
      }
    </style>
  </defs>
  <path class="cls-1" d="M262.35,1100.44c7.9,3.05,14.18,5.41,20.42,7.9,70.05,27.98,140.09,55.97,210.13,83.98,7.47,2.99,6.83,1.76,6.83,9.17.01,106.61,0,213.21,0,319.82,0,1.74,0,3.49,0,5.18-3.4.39-5.55-1.3-7.86-2.31-75.96-33.41-151.87-66.93-227.9-100.19-5.1-2.23-6.78-4.77-6.67-10.32,1.81-96.42,3.41-192.84,5.02-289.27.13-7.51.02-15.03.02-23.96Z"/>
  <path class="cls-1" d="M796.82,1088.76c18.31,7.28,35.69,14.18,53.07,21.11,58.47,23.35,116.95,46.68,175.39,70.12,9.86,3.95,8.05,1.47,8.06,12.19.06,104.55.03,209.1.03,313.65v8.4c-2.65,1.26-4.38-.4-6.17-1.19-76.69-33.75-153.34-67.59-230.07-101.25-4.37-1.92-6.29-3.91-6.19-9.01,1.92-100.88,3.62-201.76,5.39-302.65.06-3.36.29-6.71.5-11.37Z"/>
  <path class="cls-1" d="M1568.31,650.64c2.8-.52,5,1.14,7.31,2.06,74.19,29.6,148.36,59.26,222.52,88.91,6.19,2.47,6.23,2.48,6.23,8.68.01,106.9,0,213.8-.01,320.7,0,1.5.43,3.09-.61,4.56-3,.23-5.39-1.58-7.94-2.7-75.51-33.21-150.97-66.54-226.54-99.59-5.64-2.47-7.44-5.29-7.32-11.48,2.01-101.14,3.73-202.29,5.56-303.44.05-2.55-.43-5.21.8-7.72Z"/>
  <path class="cls-1" d="M536.3,1558.46c2.83-.7,5.04,1.04,7.37,1.97,73.96,29.49,147.9,59.03,221.83,88.6,7.81,3.12,6.98.93,6.99,10.53.03,105.34.02,210.69.02,316.03v7.74c-2.99.39-4.91-1.15-6.99-2.07-76.46-33.64-152.89-67.36-229.4-100.89-4.45-1.95-6.09-4.14-5.99-9.15,1.99-101.93,3.77-203.87,5.62-305.8.04-2.31-.38-4.69.56-6.96Z"/>
  <path class="cls-1" d="M2065.28,650.44c.96,2.55.49,5.18.49,7.75.03,97.25.03,194.5.01,291.75,0,9.51.84,7.38-7.04,10.59-68.19,27.79-136.42,55.46-204.66,83.12-2.11.86-4.11,2.38-6.73,1.9-1.4-2.09-.64-4.47-.64-6.69-.05-99.34-.06-198.67,0-298.01,0-8.77-1.72-7.17,6.96-10.48,68.56-26.12,137.12-52.23,205.68-78.35,1.92-.73,3.73-1.86,5.94-1.6Z"/>
  <path class="cls-1" d="M542.03,1497.3v-8.13c0-99.1,0-198.2,0-297.31,0-1.04.12-2.1-.02-3.13-.53-3.71,1.14-5.46,4.63-6.75,18.06-6.69,36.02-13.65,54.01-20.5,50.34-19.17,100.68-38.35,151.05-57.44,2.82-1.07,5.48-3.16,9.31-2.19,0,2.52,0,5.09,0,7.65,0,97.02.01,194.03-.02,291.05,0,9.18,1.35,7.45-7.53,11.06-67.98,27.65-135.98,55.26-203.97,82.87-2.14.87-4.32,1.63-7.46,2.82Z"/>
  <path class="cls-1" d="M1294.18,1089.67c.91,2.52.46,5.14.47,7.71.03,97.24.02,194.49.02,291.73q0,7.68-7.02,10.55c-68.2,27.73-136.4,55.46-204.61,83.18-2.12.86-4.31,1.55-6.45,2.32-1.56-2.26-.92-4.37-.92-6.33-.04-99.85-.04-199.7-.03-299.55,0-7.09,0-7.13,6.22-9.5,68.79-26.24,137.57-52.47,206.39-78.63,1.86-.71,3.67-2.11,5.95-1.47Z"/>
  <path class="cls-1" d="M1033.07,1557.93c1.35,3.34.85,5.97.85,8.54.03,97.01.03,194.03.02,291.04,0,9.58.71,7.61-7.65,11.02-67.49,27.48-134.99,54.92-202.51,82.31-2.59,1.05-5.05,2.71-8.25,2.6-1.44-1.79-.71-3.94-.71-5.87-.05-99.88-.04-199.77-.03-299.65,0-8.34-.61-6.87,6.27-9.49,68.57-26.16,137.16-52.26,205.74-78.37,1.91-.73,3.87-1.32,6.27-2.14Z"/>
  <path class="cls-1" d="M1270.61,1035.38c-11.4-3.25-21.88-6.19-32.34-9.22-55.46-16.1-110.91-32.22-166.36-48.34-1.5-.44-2.96-1.05-4.49-1.33-2.57-.46-3.4-2.04-3.31-4.43.05-1.56,0-3.13,0-4.69,0-101.14,0-202.28.02-303.42,0-2.57-.49-5.21.56-7.76,2.53-.47,4.48,1.09,6.57,1.96,66.52,27.69,133.03,55.42,199.53,83.18,7.67,3.2,6.72,1.28,6.52,10.03-2.08,93.03-4.22,186.06-6.35,279.09-.03,1.29-.18,2.58-.36,4.93Z"/>
  <path class="cls-1" d="M1330.82,1070.83v-8.34c0-99.33.07-198.66-.17-297.99-.01-6.21,1.85-9.04,7.47-11.42,60.4-25.5,120.69-51.28,181.02-76.95,2.11-.9,4.08-2.36,6.65-2.11,1.44,2.41.71,5.06.72,7.57.04,97.51-.03,195.01.19,292.52.01,6.14-1.74,9.08-7.36,11.61-60.51,27.22-120.88,54.75-181.3,82.18-2.07.94-4.21,1.71-7.22,2.93Z"/>
  <path class="cls-1" d="M1460.64,631.81c-8.61,3.17-15.91,5.86-23.21,8.56-48.81,18.04-97.63,36.02-146.38,54.22-5.47,2.04-10.07,2.07-15.56-.29-45.88-19.76-91.9-39.2-137.87-58.78-2.57-1.1-5.57-1.52-7.71-4.37,15.19-6.49,30.22-12.92,45.25-19.33,37.81-16.14,75.64-32.25,113.43-48.44,4.16-1.78,7.71-2.62,12.45-.56,51.54,22.41,103.23,44.48,154.88,66.65,1.19.51,2.32,1.15,4.72,2.35Z"/>
  <path class="cls-1" d="M620.78,1538.83c45.31-19.48,90.49-38.9,135.67-58.33,7.17-3.08,14.48-5.91,21.46-9.37,4.86-2.41,9.02-2.19,13.97-.04,39.13,17.05,78.36,33.85,117.56,50.72,13.14,5.65,26.28,11.3,39.44,16.96-1.23,2.8-3.9,2.77-5.94,3.53-54.91,20.31-109.86,40.52-164.77,60.82-3.57,1.32-6.62,1.63-10.35.02-47.79-20.63-95.65-41.06-143.51-61.53-1.19-.51-2.53-.72-3.54-2.77Z"/>
  <path class="cls-1" d="M1652.47,631.12c14.07-6.05,28.1-12.07,42.13-18.1,38.7-16.63,77.42-33.19,116.05-49.97,4.12-1.79,7.47-2.05,11.72-.21,51.54,22.31,103.17,44.4,154.77,66.56,1.19.51,2.33,1.13,3.6,1.75-1.32,2.45-3.8,2.52-5.81,3.27-54.86,20.27-109.76,40.46-164.59,60.81-3.93,1.46-7.19,1.61-11.13-.08-47.51-20.48-95.1-40.8-142.67-61.13-1.44-.61-2.98-1-4.07-2.9Z"/>
  <path class="cls-1" d="M347.93,1081.91c48.07-20.65,95.88-41.19,143.69-61.73,4.3-1.85,8.76-3.42,12.85-5.66,5.01-2.74,9.42-2.44,14.67-.16,47.48,20.65,95.07,41.03,142.63,61.5,4.73,2.03,9.44,4.1,14.19,6.16-1.42,2.65-4.05,2.73-6.15,3.5-54.89,20.32-109.82,40.54-164.72,60.85-3.59,1.33-6.66,1.52-10.37-.08-47.31-20.4-94.7-40.6-142.04-60.91-1.58-.68-3.67-.77-4.74-3.47Z"/>
  <path class="cls-1" d="M880.23,1070.77c7.76-3.33,13.94-5.99,20.12-8.65,46.38-19.94,92.76-39.88,139.13-59.85,3.62-1.56,6.8-2.56,11.01-.74,51.8,22.49,103.7,44.74,155.58,67.04,1.19.51,2.52.75,3.58,2.77-1.95.75-3.9,1.53-5.87,2.26-54.43,20.11-108.89,40.15-163.26,60.4-4.99,1.86-9.12,1.7-14.02-.41-46.34-20.04-92.78-39.83-139.19-59.7-1.91-.82-3.8-1.67-7.07-3.12Z"/>
</svg>