<?xml version="1.0" encoding="UTF-8"?>
<svg id="Layer_1" data-name="Layer 1" xmlns="http://www.w3.org/2000/svg" viewBox="0 0 100 77.43">
  <defs>
    <style>
      .cls-1 {
        fill: #fff;
        stroke: #000;
        stroke-miterlimit: 10;
      }
    </style>
  </defs>
  <path class="cls-1" d="M47.1,65.64l18.35-3.24.17-.04-9.44-11.23c-3.16-3.75-6.31-7.5-9.44-11.28,0-.06,9.75-26.89,9.8-26.99.02-.03,6.65,11.42,16.07,27.75l16.17,28.03.12.21h-29.99s-29.99,0-29.99,0l18.17-3.21h0ZM11.1,62.22s4.45-7.74,9.88-17.16l9.88-17.13,11.52-9.67c6.33-5.31,11.53-9.67,11.56-9.68-.04.16-.1.32-.19.47l-12.51,26.82-12.28,26.34h-8.93c-4.91.02-8.93.01-8.93,0h0Z"/>
</svg>