<?xml version="1.0" encoding="UTF-8"?>
<svg id="Layer_1" data-name="Layer 1" xmlns="http://www.w3.org/2000/svg" viewBox="0 0 2215 2500">
  <defs>
    <style>
      .cls-1 {
        fill: #000;
        stroke-width: 0px;
      }
    </style>
  </defs>
  <path class="cls-1" d="M1756.38,487.34l-.02-.03-.03-.03-1.79-2.55-.68-.34h-.01s-24.76-29.03-24.76-29.03v16.65l-353.16-176.46h-41.88s-453.07,0-453.07,0h0s-42.21,0-42.21,0l-352.85,176.46-24.78,12.39h-.01s-.71.36-.71.36l-1.75,2.52-.02.02-197.86,231.82v234.63l20.9-15.14,36.94,4.03v24.97l-57.84,30.95v224.21l17.39-1.79,40.45.6v53.21l-32.77.49-25.07-2.4v224.13l57.84,31.11v25.56l-35.88,3.96-21.96-16.48v235.24l197.44,231.34.02.02,1.59,2.74,1.28.64h.01s24.79,12.41,24.79,12.41l352.85,176.6h19.47s506.39,0,506.39,0h0s11.3,0,11.3,0l353.16-176.61,24.79-12.39h.01s.63-.33.63-.33l1.79-2.53,197.91-231.89v-216.34l-20.34-2.24-37.5-4.14v-24.59l57.84-31.11v-224.88l-23.66,2.17-34.18-.49v-53.2l42.04-.6,15.81,1.48v-224.84l-57.84-30.91v-24.07l38.46-4.21,19.38-2.11v-217.14l-197.84-231.83ZM1923.79,885.68l-158.07-113.04v-227.48l158.07,185.23v155.29ZM1735.28,794.98v90.32l-361.54-83.78h-9.12v-119.83h5.08l365.59,113.29ZM1735.28,1292.81l-363.6,14.85h-7.05v-49.66s-.01-70.13-.01-70.13h7.08l363.59,14.54v90.4ZM1729.08,1171.71l-356.78-14.27h-7.68v-325.48h5.64l358.82,83.15v256.6ZM1334.17,1157.43h-448.39v-325.48h448.33l.05,325.48ZM885.78,1187.87h448.39l.02,119.79h-448.41v-119.79ZM1334.11,801.52h-448.33v-119.83h448.31l.02,119.83ZM850.4,1157.43h-7.7l-356.79,14.27v-256.6l358.84-83.15h5.71l-.05,325.48ZM885.78,1338.1h448.41l.05,325.54h-448.46v-325.54ZM1364.62,1338.1h7.69l356.77-14.57v257.59l-359.24,82.52h-5.16l-.05-325.54ZM1334.09,651.25h-448.31v-325.27h448.26l.05,325.27ZM850.45,801.52h-9.19l-355.36,82.34v-5.59l-10.4,5.54-.23-87.47,370.03-114.66h5.16l-.02,119.83ZM476.33,1202.54l366.98-14.67h7.09l-.02,119.7-373.8-14.89-.24-90.14ZM485.91,1323.51l341.88,13.62v.97h22.59l-.05,325.54h-5.16l-359.25-83.11v-257.01ZM885.78,1694.07h448.46l.02,119.79h-448.48v-119.79ZM1364.68,1694.07h22.53v-3.2l348.06-79.95v89.66l-365.59,113.28h-4.99l-.02-119.79ZM1729.08,506.03v255.16l-354.78-109.93h-9.68v-325.27h4.12l360.35,180.04ZM845.94,325.98h4.59l-.05,325.27h-9.77l-354.79,109.94v-255.17l360.03-180.04ZM291.21,1765.16v-177.86l57.84-6.38v-71.01l-57.84-31.1v-173.18l57.84-.87v-113.18l-57.84-.85v-173.93l57.84-30.96v-70.49l-57.84-6.3v-178.71l152.99-179.24.97,370.51v.05l.03,12.82,2.63,1014.2-156.62-183.51ZM477.39,1609.78l350.4,81.07v3.22h22.53l-.02,119.79h-4.99l-367.68-113.93-.24-90.15ZM850.25,2169.7h-4.29l-360.04-180.2v-255.13l354.79,109.93h9.6l-.05,325.4ZM885.78,1844.3h448.48l.05,325.4h0s-448.54,0-448.54,0v-325.4ZM1368.73,2169.7h-3.98l-.05-325.4h9.6l354.78-109.93v255.13l-360.35,180.2ZM1923.79,1765.16l-158.07,185.21v-227.08l158.07-112.84v154.72ZM1897.26,1584.38l-131.55,95.47v-80.5l100.23-53.91v35.48l31.32,3.46ZM1923.79,1479.77l-43.58,23.45-7.59-3.03-106.91,57.63v-232.08l158.07-13.62v167.65ZM1865.95,1281.2l-100.23,9.22v-85.59l100.23,9.37v67ZM1923.79,1015.86v171.56l-158.07-14.74v-241.06l88.45,47.01,69.62,37.22ZM1865.95,915.34v35.09l-100.23-53.57v-80.5l132.29,95.47-32.06,3.51Z"/>
</svg>