<?xml version="1.0" encoding="UTF-8"?>
<svg id="Layer_1" data-name="Layer 1" xmlns="http://www.w3.org/2000/svg" viewBox="0 0 800 800">
  <defs>
    <style>
      .cls-1 {
        fill: #000;
        stroke-width: 0px;
      }
    </style>
  </defs>
  <path class="cls-1" d="M373.44,217.4l-74.09-138.66v.02c-2.09-3.99-5.2-7.14-8.74-9.16-3.54-2.03-7.47-2.98-11.31-2.98-5.21,0-10.35,1.71-14.57,5.04-2.1,1.67-3.96,3.75-5.41,6.2-1.44,2.44-2.46,5.25-2.94,8.26l-73.56,471.39,20.38-36.36,170.24-303.75ZM271.2,88.46c.19-1.21.56-2.16,1.04-2.98.72-1.22,1.73-2.15,2.96-2.83,1.23-.67,2.69-1.04,4.1-1.04,1.39,0,2.71.34,3.84.99,1.13.66,2.12,1.59,2.97,3.17l.02.03,70.21,131.41-145.84,260.23,60.7-388.99Z"/>
  <polygon class="cls-1" points="617.26 224.52 617.27 224.53 617.27 224.53 617.26 224.52"/>
  <path class="cls-1" d="M499.23,272.85l-51.7-98.38h0c-2-3.9-5.02-7.03-8.55-9.14-3.55-2.13-7.63-3.27-11.8-3.27-3.49,0-7.05.81-10.35,2.49-4.22,2.15-7.66,5.56-9.87,9.75h0s-253.92,452.65-253.92,452.65l348.75-349.2-2.57-4.88ZM420.12,181.49l.07-.14c.75-1.48,1.96-2.69,3.44-3.44,1.16-.59,2.36-.86,3.55-.86,1.43,0,2.85.4,4.07,1.13,1.22.74,2.24,1.79,2.95,3.17l.02.04,49.16,93.55-263.93,264.27,200.67-357.73Z"/>
  <path class="cls-1" d="M683.4,616.15l-66.13-391.61c-.95-5.59-3.89-10.43-7.94-13.8-4.04-3.38-9.24-5.37-14.77-5.37-1.29,0-2.6.11-3.92.33-4.62.79-8.89,2.97-12.24,6.26h-.01s-412.66,407.02-412.66,407.02l234.06,134.99.07.04c8.15,4.47,17.17,6.71,26.18,6.71,9.01,0,18.03-2.24,26.18-6.71l.06-.03,232-132.66-.87-5.16ZM444.98,740.86c-5.9,3.23-12.42,4.85-18.94,4.85-6.52,0-13.04-1.61-18.94-4.84l-216.81-125.05,398.63-393.17-.02.02c1.17-1.15,2.66-1.91,4.28-2.19.47-.08.93-.12,1.38-.12,1.91,0,3.72.69,5.16,1.88,1.43,1.2,2.43,2.83,2.77,4.82l65.25,386.42-222.76,127.38Z"/>
</svg>