<?xml version="1.0" encoding="UTF-8"?>
<svg id="Layer_1" data-name="Layer 1" xmlns="http://www.w3.org/2000/svg" viewBox="0 0 45.36 55.43">
  <defs>
    <style>
      .cls-1 {
        fill: none;
        stroke: #231f20;
        stroke-miterlimit: 10;
        stroke-width: .5px;
      }
    </style>
  </defs>
  <path class="cls-1" d="M.38,27.6c.14-.11.31-.21.45-.34C9.69,18.4,18.55,9.54,27.4.67c.29-.29.58-.42,1-.42,5.21.01,10.42,0,15.63,0,.18,0,.36.02.52.02-11.94,11.93-23.86,23.85-35.75,35.74-2.74-2.74-5.53-5.53-8.42-8.42Z"/>
  <path class="cls-1" d="M44.65,55.17c-.19,0-.37,0-.56,0-5.25,0-10.49,0-15.74,0-.4,0-.68-.12-.96-.4-4.63-4.66-9.28-9.31-13.92-13.95-.13-.13-.31-.22-.48-.34.19-.21.28-.32.37-.42,4.69-4.73,9.38-9.45,14.06-14.19.27-.27.53-.38.91-.38,5.26.01,10.53,0,15.79,0,.17,0,.34,0,.62,0-4.99,4.94-9.9,9.81-14.91,14.76,5.05,5.01,9.96,9.89,14.87,14.76l-.07.13Z"/>
</svg>