<?xml version="1.0" encoding="UTF-8"?>
<svg id="Layer_1" data-name="Layer 1" xmlns="http://www.w3.org/2000/svg" version="1.1" viewBox="0 0 2215 2500">
  <defs>
    <style>
      .cls-1 {
        fill: none;
        stroke: #000;
        stroke-miterlimit: 10;
        stroke-width: 28px;
      }
    </style>
  </defs>
  <path class="cls-1" d="M2078.3,837.1v58.4c-.3,1.1-.7,2.3-.8,3.4-3.1,36.4-11.3,71.6-23.5,105.9-25.1,70.3-64.6,132.2-112,189.4-51.3,61.9-109.9,116.5-173.3,165.7-38.5,29.8-70.8,64.8-96.5,106.1-24.3,39.1-42.5,80.8-56.4,124.6-16.7,52.3-27.4,105.9-32.1,160.5-2.4,27.3-3.1,54.7-4.4,82.1-.9,18.7-14.2,31.9-33.1,31.9-38.5,0-77,0-115.5,0-7.3,0-14.4-.8-21-4.4-6.8-3.7-10.9-9.1-11.7-17.1-.5-5.3-1.1-10.6-2.2-15.8-11.9-59.3-45.5-101.9-99.5-128.6-24.1-11.9-50.2-16.1-76.7-17.3-44.6-2.1-85.4,9.3-121.1,36.5-39.3,29.9-61.6,70.2-70.1,118.5-.5,2.6-1,5.2-2.1,7.6-6.6,14.4-17.4,21-33.6,20.8-37.3-.5-74.6-.2-112-.2-3.5,0-7.1-.2-10.6-.6-14-1.7-22.7-9.8-24-21.3-7.5-65.7-41.4-113.2-99.9-143.2-20.6-10.6-43-15-65.9-17.3-39.7-4-77.5,2.1-112.3,21.8-52.4,29.7-81.4,75.7-91.8,134.4-2.1,11.7-13.5,25.9-28.1,25.9-43.5,0-87,.6-130.5,0-21.5-.3-27.6-6.7-31.8-27.6-14.7-74.6-22-149.9-19.6-226,1.6-51.1,7.4-101.7,18.1-151.7,13.3-62.3,33.5-122.2,61.7-179.3,45.3-91.8,107-170.6,187.3-234.5,8.3-6.6,16.8-12.9,25.5-19.5,1.8,3,3.3,5.5,4.8,8.1,36.1,62.6,72.7,124.9,108.2,187.8,16.7,29.7,40.1,51.2,71.2,64.1,37.7,15.7,75.9,17.3,113.8.4,14.7-6.5,28.8-14.2,43.3-21,10.3-4.8,21.5-8,31-13.9,60.2-37.4,116.8-80,170.8-125.9,8.3-7.1,13.6-15.3,13.8-26.5.2-8.1-3.1-14.2-9.8-18.7-1.5-1-3-1.9-4.4-2.9-9.8-6.5-27.7-5.5-36.7,2-4.6,3.9-9.2,7.9-13.9,11.7-62.1,51.3-128.3,96.6-198.9,135.7-22.4,12.4-46,16.5-70.9,11.5-26.7-5.4-48.2-18.9-61.7-43.2-36.9-66.2-73.7-132.5-110.5-198.7-2.5-4.5-5.4-8.8-4.5-14.4.2-1.2-.6-2.6-1.1-3.7-5.9-12.7-8.7-26.1-7.5-40,3.2-36.9,22.7-63.2,55.4-79,55.5-26.8,113-48.3,172.5-64.5,93.5-25.4,188.4-35.4,285.2-26.4,57.8,5.4,114.2,17.1,169.6,34.2,65.8,20.3,128.8,47.8,190.5,78.2,41.3,20.3,82.3,41.1,123.6,61.3,35.4,17.2,71.5,33,109.8,42.9,26.6,6.9,53.6,10.2,81.1,6.2,38.5-5.6,69.3-25.4,95.5-53.2,46.7-49.4,52.9-127.5,22-183.9-33.5-61.1-85.9-91.8-156-90.7-32.1.5-61.6,9.3-87.8,28.5-7.6,5.6-16.6,7.5-26,7.1-6-.2-11.1-2.5-15.3-6.9-11.8-12-23.7-23.8-35.7-35.7-5.3-5.3-8.1-11.5-8.1-19,0-3.2,0-6.5,0-9.7.2-7.3,3-13.4,8.4-18.3,59.6-53.8,129.3-80.8,209.8-76.9,76.8,3.7,141.7,35,194.4,90.4,50,52.5,78.8,115.8,90.1,187.2,1.4,8.8,2.4,17.8,3.5,26.6ZM1473.5,1041.4c-28.3,0-50,19.8-52.6,47.8-.3,3.2,0,5.3,3.4,7,28,13.8,56,27.8,83.9,41.9,2.4,1.2,4.3,1.2,6.5-.3,11.5-7.5,16-18.1,14.4-31.5-.6-5.2-2.4-10.4-2.7-15.6-2-28.7-24-49.4-52.9-49.3Z"/>
</svg>