<?xml version="1.0" encoding="UTF-8"?>
<svg id="Layer_1" data-name="Layer 1" xmlns="http://www.w3.org/2000/svg" viewBox="0 0 800 800">
  <defs>
    <style>
      .cls-1 {
        fill: #000;
        stroke-width: 0px;
      }
    </style>
  </defs>
  <path class="cls-1" d="M154.85,98.69h503.67c-2.98,34.99-5.86,69.3-8.84,103.59-7.48,86.25-15.03,172.48-22.5,258.73-4.57,52.71-8.87,105.44-13.9,158.1-.36,3.77-5.08,9.18-8.8,10.27-64.15,18.67-128.44,36.84-192.78,54.84-3.86,1.08-8.61.58-12.57-.53-63.06-17.71-126.03-35.77-189.11-53.38-7.63-2.13-10.09-5.91-10.75-13.59-12.78-149.86-25.86-299.7-38.84-449.54-1.95-22.56-3.68-45.14-5.58-68.49ZM201.53,140.3c0,4.11-.22,7.13.03,10.11,12.41,145.06,24.93,290.12,37.15,435.2.65,7.66,4.09,10.11,10.87,12,49.62,13.88,99.09,28.31,148.72,42.14,5.13,1.43,11.35,1.34,16.5-.08,49.23-13.65,98.26-28.06,147.55-41.45,9.68-2.63,11.88-7.52,12.42-16.46,1.48-24.43,3.81-48.82,5.94-73.21,9.26-105.84,18.58-211.67,27.82-317.52,1.46-16.75,2.6-33.52,3.93-50.72H201.53Z"/>
  <path class="cls-1" d="M268.41,435.34c19.7,0,37.58-.4,55.41.39,3.01.13,7.78,5,8.34,8.26,1.92,11.17,1.71,22.7,3.65,33.86.69,3.98,4.54,9.41,8.1,10.54,18.72,5.94,37.71,11.11,56.83,15.64,5.14,1.22,11.22-.05,16.56-1.39,16.94-4.24,33.84-8.73,50.52-13.91,3.69-1.15,8.8-5.23,9.16-8.42,2.81-25.18,4.62-50.46,6.88-77.38h-218.91c-5.56-66.19-10.99-130.88-16.49-196.44h315.88c-1.85,21.54-3.63,42.31-5.52,64.4h-241.47c1.87,22.95,3.62,44.43,5.47,67.03h230.62c-2.03,24.2-3.87,47.07-5.87,69.94-3.25,37.03-7.16,74.01-9.62,111.09-.88,13.3-5.34,19.53-18.8,22.87-34.74,8.62-68.97,19.29-103.52,28.7-5.14,1.4-11.28,1.72-16.36.34-37.52-10.16-74.95-20.66-112.2-31.74-4.24-1.26-9.93-6.49-10.36-10.38-3.33-30.35-5.55-60.82-8.28-93.4Z"/>
</svg>