<?xml version="1.0" encoding="UTF-8"?>
<svg id="Layer_1" data-name="Layer 1" xmlns="http://www.w3.org/2000/svg" viewBox="0 0 2215 2500">
  <defs>
    <style>
      .cls-1 {
        fill: #000;
        stroke-width: 0px;
      }
    </style>
  </defs>
  <path class="cls-1" d="M1147.44,32.6c12.35,0,24.7,0,37.05,0,2.63.33,5.25.95,7.88.94,46.64-.14,92.7,4.47,138.15,15.34,53.28,12.75,103.16,32.88,146.95,66.4,33.65,25.76,63.32,55.79,92.46,86.46,46.25,48.69,78.56,104.92,95.79,169.99,13.13,49.6,20.67,100.03,24.58,151.06.66,8.61,2.4,15.9,9.57,21.66,5.37,4.31,9.68,9.93,14.54,14.89,78.13,79.81,138.21,171.61,181.69,274.32,25.18,59.48,43.22,121.16,54.43,184.78,6.86,38.94,11.91,78.11,13.24,117.69.13,3.8.68,7.59,1.04,11.39v61.36c-.32,1.26-.85,2.51-.94,3.78-1.28,18.46-2.05,36.96-3.81,55.37-4.81,50.37-14.26,99.91-27.51,148.75-19.04,70.18-47.8,136.3-82.68,199.91-3.78,6.88-3.78,7.28,3.01,11.24,18,10.5,30.36,25.81,39.01,44.52,16.22,35.09,27.82,71.82,39.38,108.62,9.34,29.76,12.81,59.79,9.09,90.73-3.81,31.74-12.21,62.02-28.7,89.62-11.08,18.55-24.54,35.31-46.56,40.99-17.1,4.41-34.64,7.68-52.18,9.64-29.85,3.32-59.74,1.42-89.36-3.31-27.53-4.39-25.04-.23-42.11-27.32-1.92-3.05-3.95-4.15-7.41-3.99-12.33.56-24.68.62-36.99,1.38-24.41,1.52-48.12,6.07-70.51,16.51-4.53,2.11-6.35,4.42-6.09,9.46.68,12.87-5.23,22.34-16.58,28.12-5.46,2.78-11.52,4.38-17.03,7.1-2.2,1.08-4.73,3.46-5.25,5.68-3.39,14.63-3.65,29.48-.8,44.21,4.75,24.58,9.76,49.1,14.94,73.6,4.24,20.05,7.69,40.07,6.41,60.75-.95,15.27-6.81,27.58-19.13,36.55-4.49,3.27-9.27,6.72-14.46,8.32-17.46,5.36-35.1,10.18-52.82,14.61-4.44,1.11-5.63,2.75-5.26,6.9,1.19,13.63,1.6,27.36,3.45,40.9,1.44,10.56-.68,19.79-7.51,27.45-5.45,6.12-11.65,11.86-18.42,16.44-12.45,8.44-26.73,12.94-41.46,15.37-42.31,6.99-85.04,10.24-127.82,10.97-41.61.71-83.3-.14-124.89-1.87-41.66-1.73-82.89-7.83-123.05-19.48-26.48-7.67-20.57-2.78-29.92-27.47-25.64-67.7-44.49-137.57-65.02-206.89-5.48-18.51-5.27-18.22-24.77-18.89-17.52-.6-35.2-.82-52.47-3.42-39.05-5.88-75.35-20.52-110.94-37.19-40.84-19.13-81.98-37.61-122.97-56.43-8.57-3.94-17.27-7.69-25.47-12.3-10.27-5.78-16.75-14.74-18.53-26.59-1.06-7.05-2.01-14.15-2.38-21.25-2.01-38.9-3.93-77.8-5.57-116.72-.23-5.52-2.2-9.19-6.23-12.76-59.11-52.39-110.31-111.66-153.15-178.01-86.49-133.96-134.15-280.53-141.94-439.93-.22-4.56-.79-9.11-1.19-13.67,0-20.84,0-41.68,0-62.52.32-1.27.92-2.53.93-3.8.2-35.57,4.39-70.79,9.92-105.83,14.02-88.78,41.31-173.4,81.03-253.98,52.02-105.54,123.01-196.51,211.67-273.68,7.13-6.21,9.78-12.73,10.38-21.6,1.86-27.16,5.54-54.02,13.75-80.16,11.01-35.04,29.59-64.43,61.76-83.6,7-4.17,11.25-9.35,13.56-16.94,12.06-39.56,35.28-71.56,66.58-98.16,26.02-22.11,54.99-39.71,84.58-56.41,52.37-29.56,104.53-59.25,161.56-79.71,49.8-17.87,100.26-31.5,152.97-36.47,9.54-.9,19.03-2.27,28.54-3.42ZM1577.51,298.1c-2.61-4.51-4.07-8-6.35-10.83-21.77-27.03-43.09-54.47-65.73-80.76-19.98-23.2-43.14-43.05-70.6-57.3-84.15-43.68-172.92-68.46-268.42-64.28-18.56.81-37.24,3.55-55.43,7.45-24.87,5.33-47.45,17.08-69.62,29.25-50.81,27.9-100.42,57.62-142.62,98.05-23.18,22.2-45.21,45.32-60.67,73.96-5.02,9.29-6.54,17.81-2.73,28,9.44,25.27,11.37,51.74,7.81,78.16-3.78,28.05-9.77,55.8-14.65,83.71-3.42,19.55-7.04,39.09-9.75,58.74-3.79,27.48,2.18,54.07,8.44,80.63,4.73,20.07,8.52,40.35,13.01,60.48,1.92,8.61-.97,15.02-8.32,19-6.38,3.45-13.11,7.2-20.09,8.41-12.84,2.22-26.01,2.56-39.01,3.91-4.47.47-6.31-.91-7.43-5.49-4.88-19.84-9.9-39.67-19.74-57.84-10.57-19.53-26.06-32.53-48.61-35.04-24.7-2.75-48.25,1.46-68.91,15.9-26.59,18.57-43.59,43.88-46.97,76.42-5.5,52.93,11.66,99.29,44.87,139.88,16.22,19.82,36.05,34.95,62.67,38.17,16.95,2.05,33.08.55,46.92-11.13,5.44-4.59,11.21-8.95,17.36-12.48,5.07-2.91,10.88-4.59,16.46-6.55,4.78-1.68,7.08.79,8.22,5.3,1.86,7.36,1.21,14.37-3.43,20.38-6,7.77-12.01,15.65-18.93,22.57-10.42,10.42-13.18,22.16-10.53,36.45,12.62,68.07,37.85,131.24,72.69,190.83,17.35,29.68,42.7,49.19,74.83,60.52,41.85,14.74,85.47,18.23,129.27,20.54,1.59.08,3.96-.95,4.79-2.23,10.03-15.53,25.44-21.07,42.6-21.72,15.17-.58,30.41.73,45.62,1.19,1.94.06,3.88,0,5.82,0,.14-.5.29-.99.43-1.49-3.13-2.07-6.25-4.16-9.4-6.21-8.08-5.25-16.59-9.94-24.2-15.8-41.57-31.99-76.3-70.74-108.64-111.71-15.12-19.16-27.97-39.81-35.15-63.42-2.29-7.55-3.65-15.38-5.44-23.08.51-.16,1.01-.32,1.52-.49,1.24,1.66,2.47,3.32,3.72,4.97,20.14,26.61,39.71,53.67,60.54,79.72,42.33,52.92,93.22,94.8,155.92,122.36,50.06,22,101.19,27.48,154.39,17.25,41.69-8.02,80.58-23.74,117.66-44.12,24.74-13.59,49.38-27.67,68.2-49.17,12.27-14.02,23.01-29.44,33.83-44.66,36.18-50.89,65.56-105.33,85.19-164.82,29.95-90.79,44.26-183.84,40.75-279.48-1.43-38.91-2.71-77.84-4.94-116.71-1.4-24.26-4.89-48.35-12.6-71.58-14.82-44.66-58.82-80.34-103.12-83.3-17.94-1.2-35.59-.09-50.81,11.4-.97.73-2.35.93-4.13,1.59-.26-2.19-.73-3.86-.62-5.49.83-12.55,4.83-23.77,14.33-32.48,14.43-13.24,31.68-18.7,51.01-17.83,8.98.41,17.94,1.44,28.75,2.35ZM1125.34,1512.44c-6.39,2.04-11.1,3.49-15.77,5.04-20.89,6.95-36.47,2.17-47.58-16.81-6.85-11.69-12.21-24.5-16.53-37.38-13.86-41.3-26.39-83.02-33.87-126.03-1.02-5.87-3.38-8.82-8.57-11.44-39.44-19.88-78.88-39.76-117.92-60.39-18.42-9.73-35.97-21.08-49.72-37.31-8.35-9.86-16.83-19.62-25.4-29.3-7.93-8.95-16.04-17.74-24.09-26.58-5.87-6.44-12.41-9.22-21.1-5.12-21.26,10.03-43.13,18.89-63.96,29.73-75.26,39.17-143.65,88.77-210.56,140.5-14.49,11.2-12.92,7.53-5.96,23.2,40.11,90.41,66.85,184.82,85.34,281.76,11.13,58.36,19.21,117.14,24.36,176.32,4.03,46.29,8.4,92.56,8.03,139.1-.03,3.75,1.61,5.43,4.67,6.98,17.73,8.94,35.42,17.95,53.03,27.12,40.7,21.19,81.15,42.9,124.01,59.57,39.83,15.49,81.08,24.72,123.76,27.27,9.75.58,10.11-.23,8.91-9.85-12.06-96.85-24.08-193.71-35.94-290.59-.52-4.24-2.23-5.87-6.05-6.96-14.9-4.26-30.13-4.25-45.37-3.75-17.34.57-34.67,1.55-52.01,2.13-6.55.22-8.67-2.39-5.46-7.95,2.51-4.34,6.79-8.64,11.31-10.63,7.68-3.39,16.19-4.86,24.3-7.29,12.43-3.73,16.94-14.63,10.52-25.92-2.27-3.99-5.65-7.35-8.04-11.28-2.87-4.74-5.61-9.64-7.62-14.77-.74-1.89.11-5.2,1.48-6.79.76-.89,4.44-.18,6.19.85,6.81,4,13.32,8.51,20.05,12.64,8.53,5.23,16.9,10.84,25.86,15.22,8.23,4.02,10.52,2.25,13.47-6.36,7.36-21.47,7.5-43.69,6.37-65.86-1.56-30.62-4.19-61.18-6.25-91.77-1.1-16.34-.07-32.43,7.03-47.55,1.85-3.95,3.72-8.95,9.11-8.37,5.36.57,6.67,5.85,7.1,10.08.95,9.55,1.87,19.24,1.31,28.78-2.76,46.98-6.46,93.91-5.25,141.03.4,15.63.83,31.25,6.59,46.15,1.94,5.03,4.86,7.34,10.47,6.71,14.37-1.62,28.78-2.93,43.18-4.3,67.58-6.45,135.1-13.52,202.75-19.08,42.84-3.52,85.87-4.74,128.81-7.06,3.32-.18,6.61-.87,10.42-1.39-.84-1.49-.99-2.18-1.4-2.4-2.7-1.48-5.41-2.97-8.2-4.27-44.71-20.92-89.58-41.52-134.08-62.87-14.2-6.81-27.93-14.87-41-23.67-13.9-9.36-16.43-20.46-9.37-35.75,3.2-6.94,7.84-13.23,11.88-19.77,4.86-7.86,9.97-15.57,14.55-23.58,1.37-2.39,1.31-5.59,2.24-10ZM1203.39,1738.2c-30.99,1.71-62.01,3.06-92.97,5.2-68.01,4.69-135.38,14.38-202.44,26.47-5.73,1.03-7.16,3.45-6.5,8.91,2.34,19.34,4.12,38.75,6.49,58.09,19.78,161.78,51.62,320.99,101.48,476.38,2.21,6.89,5.62,10.14,12.57,12.03,81.93,22.38,165.25,31.55,250.12,28.03,46.07-1.91,91.23-8.83,135.67-20.99,5.46-1.49,6.41-3.75,5.54-8.89-2.46-14.44-5.33-28.9-6.37-43.47-3.34-46.73-6.14-93.49-8.74-140.27-1.9-34.27-2.75-68.59-4.8-102.85-3.14-52.35-6.81-104.66-10.47-156.98-2.72-38.85-5.44-77.7-8.87-116.49-1.21-13.63,1.08-12.02-13.74-14.16-52.03-7.51-104.33-11.13-156.97-11.02ZM544.94,1768.94c.52-.4,1.04-.8,1.56-1.21-.15-2.46-.14-4.94-.48-7.37-3.24-23.1-6.3-46.23-9.88-69.28-7.73-49.85-19.46-98.59-37.63-145.87-20.2-52.56-39.1-105.63-57.6-158.82-5.4-15.53-8.45-32.07-10.84-48.41-1.99-13.58,2.46-26.53,13.29-35.41,10.06-8.25,21.26-15.22,32.37-22.08,19.02-11.74,38.38-22.91,57.56-34.39,56.43-33.77,112.88-67.52,169.24-101.42,13.87-8.34,27.64-16.87,41.01-25.97,9.2-6.26,11.74-15.79,9.81-26.59-2.6-14.56-9.76-27.16-17.51-39.37-20.5-32.27-33.62-67.08-36.99-105.3-.38-4.35-2.01-5.73-6.07-6.56-47.2-9.61-82.65-36.4-109.14-75.77-19.46-28.91-30.67-61.29-37.61-95.14-8.72-42.51-9.92-84.92,5.42-126.39,3.01-8.14,7.31-16.03,12.27-23.16,6.23-8.95,10.15-18.29,9.46-29.17-.35-5.51-1.31-11.03-2.62-16.4-.73-2.99-2.74-5.67-4.17-8.49-2.06,1.53-4.12,3.06-6.18,4.59-.15.11-.32.22-.46.36-15.65,15.9-31.35,31.76-46.92,47.73-4.01,4.11-7.77,8.47-11.41,12.92-6.03,7.39-11.86,14.94-17.78,22.42-7.66,9.69-15.66,19.12-22.9,29.11-10.49,14.47-20.58,29.23-30.52,44.08-4.97,7.42-9.33,15.25-13.79,23-4.37,7.6-8.63,15.27-12.73,23.01-9.34,17.63-18.85,35.19-27.69,53.07-4.54,9.19-7.82,19.01-11.65,28.55-6.46,16.06-13.63,31.88-19.22,48.23-10.65,31.16-20.51,62.57-25.88,95.22-2.41,14.64-6.44,29.02-8.88,43.66-2.1,12.55-2.99,25.3-4.4,37.96-1.51,13.53-3.32,27.03-4.42,40.6-.98,12.18-1.68,24.43-1.6,36.64.11,18.6-1.75,37.21,2,55.81,1.9,9.4.93,19.36,1.52,29.05.82,13.44,1.5,26.91,2.94,40.29,3.79,35.31,10.83,70.06,19.59,104.44,30.43,119.38,84.66,226.83,162.65,322.15,15.36,18.77,32.35,36.22,48.73,54.15,2.07,2.26,5.02,3.71,7.56,5.54ZM1622.44,1670.93c2.65-.3,3.67-.2,4.5-.55,3.38-1.41,6.74-2.87,10.03-4.48,46.29-22.65,93.78-41.82,145.37-48.34,8.1-1.02,12.42-4.57,16.33-11.22,43.43-73.87,74.8-152.52,94.21-235.94,10.68-45.9,18.05-92.37,19.92-139.48,1.14-28.68.33-57.44.3-86.17-.03-32.27-3.13-64.25-8.16-96.13-14.67-92.95-43.04-181.35-87.08-264.59-31.36-59.28-69.27-114.02-114.27-163.8-2.65-2.93-5.56-5.61-9.68-9.73-1.09,4.62-2.15,7.44-2.35,10.31-.55,8.08-.7,16.18-1.06,24.26-2.26,49.58-7.65,98.81-16.36,147.67-10.14,56.85-24.39,112.61-44.05,166.95-8.31,22.98-21.01,43.72-32.64,65.04-6.04,11.08-10.79,22.97-15.11,34.87-2.84,7.83-.92,15.65,4.88,22.09,4,4.44,7.68,9.25,12.1,13.22,28.67,25.8,57.76,51.14,86.19,77.2,17.18,15.74,33.77,32.17,49.99,48.91,9.66,9.98,13.94,22.83,12.79,36.7-1.07,13-1.78,26.4-5.53,38.76-23.85,78.61-48.01,157.12-73.06,235.35-13.93,43.49-29.77,86.36-44.71,129.53-.96,2.78-1.53,5.69-2.55,9.57ZM1810.69,1947.01c-3.29.88-6.55,1.93-9.88,2.63-22.24,4.68-44.51,9.17-66.71,14-4.85,1.05-9.6,2.91-14.14,4.96-2.04.92-3.45,3.25-5.15,4.94,1.92,1.37,3.65,3.34,5.78,3.99,4.21,1.28,8.62,2.01,13,2.66,22.69,3.38,45.47,2.85,68-.52,14.55-2.17,29.86-4.44,42.89-10.7,35.99-17.31,51.23-49.23,54.26-87.39,2.02-25.36-1.86-50.38-8.96-74.83-9.28-31.98-17.91-64.17-28.03-95.88-6.85-21.48-21.88-37.03-41.75-47.5-14.9-7.85-29.88-8.16-45.38-.31-15.61,7.9-31.66,15.09-47.94,21.51-24.21,9.54-48.9,17.85-73.17,27.25-13.67,5.3-26.8,11.84-38.04,21.65-2.73,2.38-3.38,4.51-2.35,7.96,9.63,32.26,14.14,65.5,18.02,98.8,3.86,33.12,7.12,66.31,10.43,99.48.39,3.9,1.89,4.81,5.45,4.58,8.46-.54,16.94-.84,25.41-1.17,33.29-1.27,66.59-2.61,99.88-3.73,13.17-.44,26.08,1.22,38.35,7.63ZM1703.41,1282.25c1.02-5.84-.81-13.49-4.88-20.87-6.68-12.11-16.99-20.81-27-29.89-28.57-25.89-57.02-51.9-85.53-77.86-11.4-10.38-22.83-20.73-34.22-31.11-3.99-3.63-7.3-3.39-11.42.44-10.58,9.84-21.55,19.27-32.47,28.74-10.51,9.11-9.78,13.41,3.42,18.78,1.06.43,2.25.59,3.3,1.03,4.4,1.86,9.05,3.33,13.12,5.78,10.62,6.38,17.51,16.15,22.64,27.15,15.75,33.8,19.78,69.8,19.77,106.54,0,28.01-4.33,55.3-13.93,81.64-2.58,7.09-1.49,13.21,3.02,18.93,4.3,5.44,8.71,10.8,13.07,16.19,14.4,17.83,13.33,13.24,2.73,31.01-40.3,67.57-81.12,134.83-121.66,202.24-6.46,10.74-12.64,21.65-18.7,32.62-.97,1.75-.63,4.23-.89,6.38,1.98-.3,4.03-.38,5.92-.96,6.98-2.14,13.76-5.34,20.88-6.48,11.01-1.76,22.23-2.28,33.38-3.09,18.06-1.31,36.18-2.03,54.21-3.75,19.36-1.85,32.74-12.23,40.22-30.35,8.3-20.13,17.29-39.98,25.29-60.23,29.83-75.56,57.14-151.95,75.3-231.32,5.98-26.13,12.43-52.18,14.43-81.58ZM617.8,590.66c5.78-2.36,10.29-4.02,14.64-6.02,12.9-5.94,26.3-9.95,40.55-10.69,41.76-2.18,75.81,12.75,101.09,46.31,11.2,14.87,16.36,32.13,17.98,50.57.16,1.85,1.65,4.94,2.89,5.13,9.09,1.41,18.81-6.38,19.57-15.53,1.21-14.51-2.17-28.49-6.7-41.99-12.22-36.48-11.32-73.61-6.75-111.02,4.56-37.29,9.92-74.51,13.44-111.89,1.82-19.31.9-39.05-4.45-57.99-5.25-18.62-3.27-17.92-22.82-15.34-45.54,6.01-86.26,23.45-122.07,52.85-31.23,25.64-47.7,58.93-49.97,98.08-2.02,34.92.33,70.1.89,105.17.06,3.74,1,7.47,1.71,12.38ZM1216.76,1334.56c-.18-.63-.35-1.27-.53-1.9,8.82-2.3,17.76-4.25,26.44-7.01,8.93-2.84,17.68-6.29,26.37-9.82,4.7-1.91,4.32-6.23,3.91-10.43-.42-4.34-3.77-3.78-6.64-4.78-11.04-3.83-23.01-6.38-32.7-12.48-39.57-24.92-82.24-42.27-126.97-54.95-8.83-2.5-18.04-4.12-27.18-4.93-11.26-1-22.29,1.51-28.17,12.1-5.07,9.14-10.23,19.19-11.42,29.31-2.36,20.01-2.51,40.33-2.65,60.53-.19,28.17,4.52,55.6,14.44,82.08,7.03,18.75,14.07,37.51,20.54,56.45,4.5,13.16,9.95,17.47,23.55,15.18,40.55-6.81,77.82-22,110.97-46.27,18.5-13.54,34.93-30.02,53.98-42.63,14.32-9.48,17.34-21.23,16.53-36.41-.32-6.03-2.31-9.65-7.99-11.74-17-6.26-34.13-11.88-52.5-12.29ZM1365.31,1673.21c.78-1.74,1.95-3.36,2.14-5.09.15-1.38-.79-2.94-1.41-4.35-20.7-46.92-40.83-94.11-62.34-140.66-12.96-28.04-29.76-54.03-48.45-78.72-3.27-4.32-6.18-5.41-10.92-1.99-20.49,14.76-41.77,28.5-61.59,44.1-24.72,19.45-42.97,44.02-52.46,74.57-1.63,5.25-.79,8.07,4.13,10.51,7.59,3.78,14.83,8.24,22.32,12.23,61.2,32.61,123.91,61.81,189.84,83.69,5.67,1.88,11.43,3.48,18.76,5.7ZM1431.19,1311.17l-.27,1.42c-1.87.11-3.74.16-5.61.33-11.85,1.13-23.93.93-34.87,6.86-3.37,1.83-5.09,3.94-5.06,8.09.08,12.52-.16,25.05-.6,37.57-.15,4.32,1.48,5.97,5.55,7.03,42.71,11.17,86.39,15.32,130.25,18.17,9.57.62,10.39.11,14.23-8.86,5.63-13.13,7.18-27.1,7.64-41.21.81-24.98-2.26-49.62-7.17-74.03-2.78-13.8-6.34-27.45-14.09-39.5-3.87-6.03-8.91-10.09-16.49-11.44-14.44-2.57-28.19-.74-41.04,5.77-12.53,6.35-24.71,13.43-36.72,20.73-17.77,10.8-35.3,22.01-52.77,33.3-1.31.85-2.19,3.94-1.76,5.59,1.12,4.25,3.26,8.23,4.7,12.42,4.35,12.68,4.63,12.36,17.67,11.28,12.57-1.04,24.68,2.21,36.42,6.47ZM1403.41,1836.31c.35,0,.71,0,1.06,0,0,6.36-.31,12.74.05,19.09,2.83,50.24,5.79,100.47,8.71,150.7.48,8.18.77,8.53,8.92,7.14,23.74-4.04,47.47-8.14,71.18-12.33,9.19-1.62,9.34-1.78,8.54-11.19-4.67-55.13-8.88-110.31-14.39-165.37-2.39-23.91-7.53-47.55-11.35-71.32-.89-5.51-3.86-7.73-9.47-7.75-19.54-.07-38.94.74-57.99,5.72-3.87,1.01-5.36,2.56-5.34,6.62.15,26.23.08,52.45.08,78.68ZM1402.45,1660.52c.76-.04,1.51-.08,2.27-.12,1.5-4.28,3.69-8.44,4.38-12.84,4.83-30.82,10.47-61.58,13.66-92.58,3.27-31.8,4.07-63.85,5.91-95.8.73-12.7,1.32-25.4,2.04-38.1.2-3.46-.84-5.22-4.73-5.51-11.47-.85-21.45-5.87-30.97-11.91-7.49-4.75-14.84-9.72-22.4-14.34-7.76-4.74-16.25-6.24-25.01-3.62-7.18,2.14-14.06,5.28-21.23,7.43-6.57,1.97-13.79,5.45-19.97,4.27-11.45-2.18-18.22,1.78-23.4,11.06-.75,1.34-1.7,2.6-2.76,3.71-3.04,3.2-2.84,6.36-.39,9.83,6.1,8.68,12.27,17.31,18.06,26.19,22.14,33.9,38.19,70.9,54.78,107.65,14.2,31.46,28.76,62.75,43.29,94.06,1.74,3.74,4.3,7.1,6.48,10.63ZM688.7,310.03c5.4-.59,9.04-.51,12.39-1.44,11.51-3.22,22.98-6.62,34.36-10.26,17.37-5.56,34.78-10.59,53.32-7.14,20.53,3.81,36.35-3.15,47.62-20.61,8.89-13.77,17.93-27.46,26.52-41.41,10.11-16.43,22.12-31.02,37.56-42.8,11.34-8.66,22.08-18.09,33.33-26.86,3.74-2.92,8.26-4.83,12.38-7.27,3.94-2.33,8.63-4.06,11.49-7.36,2.27-2.61,4.04-7.97,2.83-10.67-1.38-3.08-6.16-6.02-9.74-6.41-4.95-.54-10.37.74-15.26,2.28-61.99,19.57-119.36,48.16-170.49,88.59-28.23,22.32-52.62,48.17-70.58,79.64-1.84,3.23-3.29,6.69-5.74,11.73ZM1421.42,1668.26c.75.39,1.51.78,2.26,1.16,3.83-4.64,7.91-9.1,11.45-13.96,45.3-61.95,83.17-128.48,120.46-195.38,2.54-4.56,2.14-8.05-.68-12.18-21.29-31.23-58.32-43.87-94.16-32.5-6.32,2-8.39,5.29-8.61,11.52-.61,17.53-1.38,35.06-2.68,52.54-4.55,61.19-11.45,122.05-27.06,181.61-.61,2.32-.67,4.78-.99,7.17ZM1610.76,1923.88c-.5-37.81-4.02-75.38-11.66-112.43-4.64-22.48-11.7-44.27-21.6-65.08-2.48-5.22-5.9-8.2-11.98-8.06-11.93.27-23.86.3-35.8.31-5.02,0-6.91,2.31-6.27,7.21,1.73,13.37,3.21,26.77,5.04,40.12,7.96,57.98,16.05,115.94,23.96,173.93.57,4.21,2,5.92,6.29,4.73,16.28-4.52,32.6-8.91,48.84-13.59,1.33-.38,2.98-2.6,3.04-4.02.3-7.69.14-15.4.14-23.1ZM1417.85,2105.29c2.71,48.39,5.05,89.37,7.22,130.37.22,4.16,1.92,5.13,5.72,5.08,23.33-.3,45.21-7.1,66.86-14.83,1.42-.51,2.94-3.47,2.8-5.16-1.88-22.83-2.87-45.82-6.43-68.4-4.73-30.04-11.64-59.73-17.38-89.61-3.53-18.41-3.66-18.64-22.19-14.68-10.16,2.17-20.28,4.84-30.56,6.1-5.26.64-6.19,2.35-6.13,7.03.23,17.15.09,34.3.09,44.09ZM1012.39,1244.34c.83-5.5-2.8-6.8-6.95-7.21-13.81-1.38-27.66-2.41-41.45-3.94-22.93-2.55-46.29-3.06-67.5-14.13-1.27-.66-4.95.83-5.8,2.31-3.12,5.43-2.15,11.31,1.95,15.56,5.96,6.18,12.25,12.38,19.4,17.02,21.08,13.66,44.58,21.79,68.79,27.94,5.96,1.52,12.02,2.84,18.11,3.55,1.8.21,5.26-1.71,5.6-3.2,2.92-12.56,5.3-25.24,7.84-37.88ZM1319.54,1266.79c3.28,0,6.59-.32,9.82.06,7.07.83,12.39-2.04,17.75-6.41,14.93-12.19,30.31-23.85,45.36-35.9,2.47-1.98,4.22-4.87,6.3-7.34-3.24-.26-6.63-1.29-9.69-.66-25.12,5.15-50.17,10.63-75.26,15.96-25.59,5.43-51.13,7.65-76.5-1.29-1.74-.61-3.86-.67-5.69-.33-1.55.29-3.63,1.24-4.14,2.45-.43,1.04.68,3.22,1.73,4.29,2.01,2.05,4.39,3.75,6.72,5.45,24.95,18.14,53.37,24.17,83.59,23.71ZM1317.52,1364.39c21.9-.21,33.04-8.21,36.47-26.84,1.13-6.12,1.23-12.81.05-18.9-4.13-21.33-17.81-29.95-36.77-26.45-7.43,1.37-14.5,5.05-21.47,8.26-1.79.82-3.65,3.88-3.6,5.86.18,6.44.91,12.91,2.03,19.25,1.74,9.86,3.72,19.69,6.1,29.42,1.74,7.09,4.54,8.85,12.03,9.17,1.93.08,3.85.17,5.16.23Z"/>
  <path class="cls-1" d="M1321.35,798.13c1.06,4.01,2.04,8.05,3.2,12.03,2.37,8.14,4.6,16.34,7.33,24.36,4.65,13.68,15.57,17.9,28.84,19.06,29.1,2.55,56.32-4.61,82.6-15.91,24.97-10.73,49.61-22.22,74.29-33.61,2.59-1.2,5.08-3.64,6.53-6.14,11.09-19.11,11.89-38.29-2.16-56.18-13.45-17.13-27.76-33.6-41.81-50.25-24.17-28.63-47.32-57.99-64.74-91.4-12.19-23.38-22.12-47.57-25.3-74-.82-6.86-.8-13.86-.56-20.78.07-2.01,1.91-5.04,3.61-5.62,1.72-.58,5.19.65,6.29,2.21,2.6,3.71,5.07,7.89,6.14,12.23,6.17,25.03,19.52,46.51,33.39,67.62,31.96,48.68,68.56,93.63,109.84,134.74,6.83,6.8,13.44,13.83,19.99,20.9,5.23,5.64,6.99,12.28,4.82,19.82-4.73,16.46-9.41,32.95-14.22,49.39-.33,1.14-1.42,2.28-2.46,2.95-37.67,24.3-76.16,46.88-119.41,60.25-33.84,10.46-68.39,12.98-103.47,11.08-2.03-.11-4.49-1.23-5.89-2.71-18.66-19.6-23.63-48.71-12.58-73.04,1.15-2.53,2.79-4.84,4.2-7.25.51.07,1.02.15,1.53.22Z"/>
  <path class="cls-1" d="M1457.17,1019.6c-7.43,13.48-14.96,23.7-28,28.86-17.01,6.73-34.79,10.03-52.82,11.93-27.87,2.94-55.75,3.28-83.62-.72-29.71-4.27-53.79-18.03-72.15-41.7-7.8-10.06-15-20.58-22.99-30.48-8.7-10.79-18.21-20.93-26.91-31.72-2.57-3.18-3.58-7.61-5.31-11.47,4.13-1.7,8.17-3.72,12.43-5,3.93-1.19,7.12.26,8.92,4.3,17.38,38.98,50.72,56.98,89.49,67.42,24.91,6.71,50.55,8.22,76.22,8.53,22.16.27,44.33.06,66.49.06,12.25,0,24.5,0,38.25,0Z"/>
  <path class="cls-1" d="M1199.62,889.91c18.23,5.15,34.89,10.65,51.91,14.5,30.36,6.88,61.37,8.72,92.41,9.61,24.27.69,48.54,1.22,72.81,1.61,3.93.06,5.69,1.48,5.88,5.24.72,14.61,1.41,29.23,2.21,43.83.23,4.19-2.53,4.17-5.3,4.05-23.45-1.04-47-1.18-70.33-3.46-27.84-2.72-55.13-8.95-81.16-19.59-22.2-9.07-42.3-21.44-57.92-40.03-3.88-4.63-6.77-10.09-10.51-15.77Z"/>
  <path class="cls-1" d="M1202,469.52c2.08,4.49,4.24,8.94,6.22,13.47,4.87,11.12,9.84,22.2,14.45,33.43,7.43,18.11,18.19,33.88,32.04,47.68,5.05,5.03,9.79,10.39,14.38,15.84,10.6,12.56,9.78,31.85-1.59,43.82-12.54,13.19-27.26,21.76-45.9,22.93-20.72,1.31-41.39,1.45-61.21-5.4-7.62-2.64-15.14-6.96-21.27-12.2-8.65-7.38-9.45-18.36-3.23-27.8,1.25-1.9,4.86-3.49,7.16-3.24,11.85,1.3,23.66,3.1,35.43,5.02,15.85,2.59,31.68,5.04,47.55.47,3.67-1.06,7.28-2.54,10.69-4.28,4.64-2.37,6.3-6.04,3.62-11.01-5.22-9.67-10.53-19.28-15.58-29.04-10.93-21.13-20.49-42.85-24.17-66.54-1.15-7.42-.18-15.18-.18-22.78.53-.12,1.06-.25,1.59-.37Z"/>
  <path class="cls-1" d="M1106.67,314.58c21.24,1.02,36.84,5.96,48.01,20.41,5.16,6.68,6.91,14,3.45,22.23-1.58,3.76-3.38,4.89-7.77,4.63-15.17-.89-30.59-2.69-45.56-.98-27.95,3.18-51.35,16.66-68.71,38.85-10.52,13.45-19.18,28.35-28.61,42.65-1.27,1.92-2.11,4.12-3.23,6.14-5.26,9.49-7.47,9.45-13.35.28-3.86-6.01-3.75-12.48-2.66-19,3.23-19.39,10.87-37.02,22.9-52.49,19.99-25.71,43.84-46.71,75.06-57.78,7.71-2.74,15.99-3.88,20.49-4.93Z"/>
  <path class="cls-1" d="M1596.27,855.08c-3.89,6.81-7.55,13.76-11.71,20.41-18.78,29.99-41.43,56.27-73.15,73.27-17.36,9.31-36.15,14.12-55.75,15.95-5.42.51-8.04-1.49-8.07-6.85-.07-13.49-.05-26.99-.16-40.48-.04-4.22,2.97-5.04,6.02-5.69,9.05-1.91,18.18-3.45,27.18-5.55,26.17-6.11,49.77-18.51,73.47-30.6,13.72-7,27.32-14.25,40.97-21.39.4.31.8.62,1.2.93Z"/>
  <path class="cls-1" d="M1580.73,465.86c2.23,4.63,4.39,9.29,6.71,13.87,16.1,31.78,32.18,63.57,48.4,95.29,4.23,8.28,4.24,10.68-2.51,17.2-22.03,21.27-48.38,31.77-79.04,30.79-17.18-.55-31.53-13.74-33.02-29.24-.51-5.33.81-8.62,6.47-9.3,14.13-1.7,28.26-3.31,42.37-5.17,8.57-1.13,17.21-2.18,25.61-4.16,8.02-1.89,9.15-4.34,6.52-12.02-5.68-16.57-12-32.92-17.4-49.58-4.97-15.3-6.89-31.13-5.66-47.21.52-.16,1.03-.32,1.55-.48Z"/>
  <path class="cls-1" d="M627.37,702.99c5.66-31.73,32.48-50.99,60.22-41.84,32.62,10.76,50,34.51,56.71,67.08,2.38,11.57,2,23.29-.28,36.38-2.85-3.74-5.35-6.37-7.08-9.43-5.02-8.89-9.59-18.04-14.63-26.92-3.22-5.68-6.47-11.48-10.59-16.5-9.22-11.24-23.64-10.25-31.72,1.88-6.67,10.02-8.09,21.51-8.49,33.17-.52,15.41-.84,30.83-1.33,46.25-.07,2.23-.57,4.46-2.1,7.06-1.04-1.68-2.16-3.32-3.12-5.04-10.51-18.93-12.85-39.53-10.97-60.54,1.14-12.75,4.23-25.34,6.67-37.96,1.22-6.29.78-7.08-5.42-7.66-7.79-.73-14.45,1.45-20.02,7.01-2.13,2.13-4.48,4.03-7.88,7.07Z"/>
  <path class="cls-1" d="M1664.73,1775.72c29.38-35.67,70.08-45.61,113.79-48.8-6.73,3.33-13.61,6.39-20.15,10.06-16.3,9.13-32.31,18.8-48.7,27.75-12.37,6.76-25.24,12.51-39.81,12.63-1.52.01-3.04,0-4.56,0-.19-.55-.38-1.09-.57-1.64Z"/>
  <path class="cls-1" d="M1689.25,1862.23c7.7-6.1,16.34-9.56,25.78-10.46,34.59-3.3,68.3,1.51,101.38,11.58.89.27,1.7.79,2.48,2.04-43.21.72-86.35.48-129.64-3.15Z"/>
  <path class="cls-1" d="M1806.95,1799.99c-38.63,4.89-77.03,9.5-115.73,7.61-.23-.79-.47-1.58-.7-2.36,2.68-1.96,5.19-4.23,8.07-5.83,11.37-6.29,23.72-9.18,36.62-8.96,22.35.39,44.67,1.47,66.34,7.8,1.81.53,3.59,1.15,5.39,1.73Z"/>
  <path class="cls-1" d="M1386.8,1452.25c.03,9.87-7.37,17.83-16.6,17.84-8.67.01-16.14-7.83-16.18-16.98-.04-8.87,7.12-15.97,16.21-16.06,8.45-.08,16.54,7.33,16.57,15.19Z"/>
  <path class="cls-1" d="M1404.06,1535.16c-.08,9.43-6.4,15.35-16.31,15.3-8.91-.05-16.52-7.47-16.31-15.9.23-9.25,7.18-16.52,15.81-16.52,9.9,0,16.9,7.12,16.81,17.11Z"/>
</svg>