<?xml version="1.0" encoding="UTF-8"?>
<svg id="Layer_1" data-name="Layer 1" xmlns="http://www.w3.org/2000/svg" viewBox="0 0 2433 2500">
  <defs>
    <style>
      .cls-1 {
        fill: #000;
      }

      .cls-1, .cls-2 {
        stroke-width: 0px;
      }

      .cls-2 {
        fill: #fff;
      }
    </style>
  </defs>
  <path class="cls-1" d="M668.16,1642.25c-35.13-32.78-68.88-64.73-103.25-96-8.66-7.88-13.32-16.58-15.66-27.89-27.79-134.07-55.77-268.11-84.19-402.05-2.64-12.46.55-18.54,12.1-23.64,32.04-14.14,63.56-29.46,95.27-44.34,3.44-1.62,6.8-3.41,11.45-5.76-33.48-26.2-65.71-51.44-97.97-76.65-18.01-14.07-36.45-27.63-53.87-42.4-5.5-4.67-10.57-12.05-12.01-18.98-38.15-183.76-75.8-367.63-113.48-551.49-.71-3.44-.53-7.06-1.12-10.53-1.7-10.06,2.8-14.63,12.42-17.55,69.27-21.07,138.38-42.66,207.55-64.06,100.38-31.06,200.73-62.22,301.23-92.88,6.04-1.84,14.3-1.7,19.87.97,125.26,60.13,250.24,120.83,375.44,181.09,9.54,4.59,13.91,9.75,14.41,21.04,4.79,109.02,10.29,218,15.61,327,3.52,72.01,6.87,144.02,10.8,216.01.62,11.43-2.87,18.24-13.19,23.46-42.15,21.32-83.99,43.27-125.93,65.01-3.09,1.6-6.07,3.4-9.99,5.61,2.77,2.2,4.68,3.97,6.82,5.39,46.97,31.09,94.04,62.03,140.82,93.41,3.36,2.25,6.27,7.62,6.5,11.7,2.72,49.52,4.89,99.07,7.31,150.71,5.21-2.69,8.91-4.47,12.49-6.46,44.04-24.5,88.19-48.81,131.99-73.73,10.31-5.87,18.59-5.39,28.28,1.17,30.31,20.5,61.05,40.37,93.51,61.72.37-5.75.8-9.81.87-13.87.76-40.97,1.69-81.94,1.98-122.91.05-7.29,2.49-11.08,8.58-14.75,79.92-48.22,159.75-96.58,239.33-145.35,9.02-5.53,16.04-5.36,24.97-.36,94.1,52.77,188.33,105.3,282.64,157.69,8.84,4.91,12.93,10.11,11.32,21.33-12.76,88.84-25.65,177.68-36.46,266.77-3,24.72-13.03,40.83-32.53,55.86-69.59,53.64-137.84,109.03-206.37,164.03-7.65,6.14-13.92,5.22-21.16.21-23-15.92-46.08-31.71-69.17-47.5-3.14-2.15-6.45-4.04-10.98-6.86-2.37,32.97-4.62,64.34-6.87,95.71-.7,9.82-2.66,19.75-1.83,29.44,1.54,17.96-7.19,28.54-20.64,39.08-87.79,68.77-174.98,138.29-262.38,207.56-13.79,10.93-17.05,10.89-30.53-.34-33.32-27.74-66.61-55.5-99.93-83.23-3.27-2.72-6.69-5.25-11.28-8.84-.36,3.02-.8,4.75-.74,6.45,2.18,59.45,4.18,118.91,6.83,178.34.48,10.67-3.09,17.67-11.23,24.15-114.09,90.8-228,181.81-341.98,272.74-10.95,8.73-19.9,7.49-30.56-4.23-49.59-54.52-99.13-109.08-148.69-163.63-35.51-39.08-71.21-78.01-106.36-117.42-4.96-5.56-9.03-13.07-10.59-20.31-22.75-105.78-44.93-211.68-67.48-317.51-2.14-10.03.82-16.16,9.71-21.27,22.52-12.94,44.61-26.63,68.32-40.88ZM781.62,1150.28c4.03-1.88,7.16-3.21,10.18-4.78,32.18-16.73,64.38-33.43,96.49-50.28,64.26-33.71,128.46-67.54,192.71-101.25,48.36-25.37,96.73-50.74,145.25-75.82,5.37-2.77,7.15-5.85,6.81-11.71-1.69-28.93-3.16-57.88-4.42-86.83-1.73-39.57-3.17-79.16-4.82-118.73-1.5-36.04-3.17-72.06-4.66-108.1-1.67-40.36-3.26-80.73-4.79-121.1-1.11-29.26-2.07-58.53-3.14-88.73-3.4.95-5.62,1.39-7.7,2.19-43.6,16.66-87.19,33.34-130.77,50.05-68.66,26.32-137.3,52.68-205.97,78.99-53.76,20.6-107.58,41.05-161.19,62.03-3.24,1.27-7.29,6.98-6.87,10.06,4.66,33.94,10.31,67.73,15.33,101.62,5.2,35.09,9.94,70.25,14.97,105.37,4.91,34.33,9.85,68.66,14.93,102.97,6.73,45.48,13.67,90.92,20.42,136.39,5.77,38.85,11.4,77.72,17.24,117.64ZM875.46,1794.23c1.8-.67,2.6-.81,3.22-1.22,123.34-82.12,246.61-164.33,370.11-246.21,7.78-5.16,11.21-10.38,10.72-19.83-2.03-38.76-3.3-77.55-5-116.32-1.41-32.09-3.24-64.17-4.52-96.26-1.91-47.83-3.43-95.68-5.29-143.51-.35-9.12-1.52-18.2-2.41-28.51-5.13,2.82-8.91,4.81-12.62,6.93-76.53,43.75-153.05,87.5-229.56,131.27-58.41,33.41-116.87,66.75-175.11,100.46-3.67,2.12-8.33,7.5-7.96,10.85,2.56,23.14,6.3,46.16,9.72,69.21,4.44,29.97,9.03,59.93,13.39,89.91,4.36,30,8.43,60.04,12.77,90.05,4.34,29.99,8.86,59.95,13.28,89.93,3.1,21,6.16,42.01,9.27,63.27ZM1270.83,1740.17c-1.37-.22-2.75-.43-4.12-.65-1.57,1.05-3.16,2.06-4.69,3.15-43.32,30.88-86.63,61.77-129.95,92.64-71.3,50.81-142.55,101.69-213.98,152.31-9.99,7.08-14.85,14.5-10.13,27.24,2.64,7.13,2.08,15.42,3.18,23.15,4.95,34.72,9.88,69.45,15,104.14,5.12,34.68,10.48,69.33,15.72,104,2.52,16.68,5.02,33.36,7.84,52.14,27.01-21.5,51.97-41.47,77.03-61.32,80.69-63.9,161.21-128.02,242.38-191.31,11.16-8.7,13.84-17.44,13.01-30.67-4.25-68.12-7.93-136.27-11.12-204.45-1.09-23.41-.17-46.91-.17-70.37ZM1714.36,1418.95c-4.48,2.51-5.57,2.99-6.52,3.67-88.65,63.46-177.34,126.87-265.72,190.69-3.53,2.55-5.93,9.09-5.91,13.76.41,89.81,1.26,179.61,2.07,269.42.03,3.21.62,6.42,1.09,10.94,38.75-30.89,76.05-60.47,113.18-90.26,45.05-36.15,89.59-72.95,135.27-108.29,8.59-6.65,10.27-14.03,10.96-22.48,2.1-25.65,3.52-51.36,4.87-77.06,1.77-33.95,3.2-67.92,4.81-101.88.11-2.33.51-4.64.66-6.97,1.71-26.33,3.39-52.65,5.25-81.53ZM2084.59,1156.77c-7.95,5.58-14.24,9.92-20.46,14.37-61.5,44.01-122.88,88.18-184.59,131.91-8.29,5.88-13.8,11.41-13.18,22.57.56,10.05-1.32,20.25-2.24,30.38-3.83,42.02-7.64,84.04-11.59,126.04-2.12,22.55-4.67,45.05-6.72,67.6-1.09,12.01-1.52,24.09-2.34,37.87,66.8-53.14,131.71-104.6,196.25-156.52,4.56-3.67,8.26-10.49,9.12-16.32,8.05-54.52,15.42-109.13,22.93-163.73,4.22-30.68,8.36-61.38,12.82-94.17ZM1412.39,1902.46c.3-.09.6-.18.9-.27v-282.6c-.3,0-.6.01-.9.02v282.85Z"/>
  <path class="cls-2" d="M1412.39,1902.46v-282.85c.3,0,.6-.01.9-.02v282.6c-.3.09-.6.18-.9.27Z"/>
</svg>