<?xml version="1.0" encoding="UTF-8"?>
<svg id="Layer_1" data-name="Layer 1" xmlns="http://www.w3.org/2000/svg" viewBox="0 0 800 800">
  <defs>
    <style>
      .cls-1 {
        fill: none;
        stroke: #000;
        stroke-miterlimit: 10;
        stroke-width: 11px;
      }
    </style>
  </defs>
  <path class="cls-1" d="M537.22,346.07c-33.53-147.85-112.75-196.33-121.26-214.91-9.35-13.18-19.42-38.09-19.42-38.09-.1.52-.1.84-.2,1.36v.32c0,.42-.1.62-.1,1.04v.42h-.1v1.34h-.1c0,.2,0,.52-.1.62v.62c0,.2,0,.42-.1.52v.52c0,.32,0,.62-.1.84v.1c0,.42-.1.94-.2,1.36v.2c-.1.1-.1.2-.1.32v.42h-.1v.62h-.1v.42h-.2v.62h-.1v.52h-.1v.42h-.1v.42h-.1v.42h-.1v.42h-.1v.32h-.1v.42h-.1v.42h-.1c-.1,0-.1.1-.1.1v.2l-.1.2c0,.2-.1.42-.2.62q-.1.1-.1.2v.2h-.1v.2h-.2v.52h-.2v.32h-.1v.1h-.1v.2h-.1v.32h-.1v.2h-.2v.32h-.1v.2h-.1v.2h-.1v.32h-.1v.2h-.1v.1h-.1v.2h-.2v.32h-.1v.1h-.1v.2h-.1v.32h-.1v.1h-.1v.2h-.1v.1h-.1v.32h-.2v.1h-.1v.2h-.1v.1h-.1v.2h-.1v.2c-.1,0-.1.1-.1.1v.1h-.1c-.1.2-.2.32-.32.52,0,0-.2.2-.2.32-.1,0-.1.1-.1.1v.1h-.1v.1h-.1v.2h-.2v.1h-.1v.1h-.1v.3h-.1v.1h-.1v.1h-.1v.2h-.1v-.2h-.2v.1h-.1v.2h-.1v.2h-.1v.1h-.1v.1h-.1v.1h-.1v.2h-.2v.1h-.1v.2h-.1v.1h-.1v.1h-.1v.32h-.1v.1h-.1v.1h-.1v.1h-.1v.1h-.2v.2h-.1v.1h-.1v.1h-.1v.2h-.1v.1h-.2v.1h-.1v.1h-.1v.2h-.1v.2h-.1v.1h-.1v.1h-.2v.1h-.1v.1h-.1v.2h-.1v.1h-.1v.2h-.1v.1h-.1v.1h-.1v.1h-.1v.1h-.2v.1c-.1,0-.1.1-.1.1l-.1.1-.1.1v.2h-.1v.1h-.1v.1h-.1v.1h-.1l-.2.2v.1c-.2.1-.2.2-.42.42,0,0-.2.2-.32.2-.32.2-.72.62-1.04.94-.2.1-.42.32-.62.42-.42.42-.84.72-1.26,1.04-.62.62-1.26,1.04-1.97,1.65h-.1c-1.46,1.26-3.11,2.69-4.88,4.27h-.1c-4.47,3.95-9.77,9.03-15.79,15.05l-.52.52c-36.14,37.38-93.13,115.34-99.05,241.28-.62,10.39-.52,20.55.1,30.42v.2c2.91,49.64,18.48,92,37.99,126.46,7.67,13.71,16.09,26.17,24.6,37.38,29.28,38.63,59.18,61.58,66.76,67.18,11.74,27.09,10.68,73.82,10.68,73.82l17.12,5.7s-3.53-45.17,1.36-67.08c1.55-6.76,5.08-12.56,9.25-17.54,2.91-1.97,11.22-7.99,21.19-17.12.52-.52.84-.94,1.26-1.46,40.39-37.7,115.88-130.51,90.02-281.67l-.52.38Z"/>
</svg>