<?xml version="1.0" encoding="UTF-8"?>
<svg id="Layer_1" data-name="Layer 1" xmlns="http://www.w3.org/2000/svg" viewBox="0 0 800 800">
  <defs>
    <style>
      .cls-1 {
        fill: #000;
        stroke-width: 0px;
      }
    </style>
  </defs>
  <path class="cls-1" d="M311.61,372.95c-4.32,6.89-8.6,13.79-8.34,22.94,19.73-5.14,39.03-10.18,58.91-15.36-7.64-11.76-9.74-24.26-8.72-38.4-6.18,3.8-11.57,7.11-16.96,10.42-.22-.2-.44-.39-.65-.59,1.07-1.19,2.12-2.41,3.22-3.57,13.14-13.98,26.83-27.49,39.3-42.04,14.41-16.81,25.49-35.78,30.84-57.57,7.87-32.01-1.26-59.55-22.52-83.75-10.13-11.53-22.02-21-34.69-29.56-.94-.63-1.82-1.35-3.24-2.42,25.36-21.62,55.09-34.66,85.11-48.35.66,1.46,1.42,2.79,1.88,4.23,7.42,23.14,17.48,45.01,31.25,65.07,1.21,1.76,3.72,3.29,5.85,3.65,32.64,5.54,65.17,11.45,96.16,23.69,32.11,12.68,59.49,31.89,81.11,58.97,1.44,1.8,2.07,4.25,3.07,6.39-2.19.55-4.36,1.26-6.59,1.64-19.77,3.37-39.75,5.77-59.26,10.22-25.8,5.88-51.21,13.47-76.86,20.04-3.94,1.01-3.68,3.08-3.59,6.05.54,18.14,1.77,36.32,1.2,54.43-.96,30.35-7.54,59.85-17.38,88.49-6.08,17.69-13.44,34.94-20.24,52.38-.83,2.13-1.75,3.7-4.69,3.51-44.16-2.77-87.16-10.65-127.75-29.02-12.46-5.64-24.14-12.62-33.61-22.76-13.68-14.67-15.03-30.47-3.77-47.09,2.95-4.35,6.6-8.23,9.94-12.33.33.23.67.45,1,.68ZM643.04,242.2c-.02.49.11.13-.02-.06-.56-.85-1.17-1.66-1.82-2.45-12.08-14.81-26.73-26.49-43.3-35.9-3.08-1.75-4.57-1.5-6.52,1.64-11.66,18.79-24.26,36.9-39.16,53.32-.4.44-.56,1.1-.53,1.02,30.29-5.82,60.72-11.68,91.34-17.57ZM509.88,228.12c13.59,9.43,24.19,20.97,32.49,35.59,16.14-21.59,31.65-42.34,47.16-63.08-.4-.42-.8-.84-1.2-1.25-26.47,7.64-52.64,16.1-78.45,28.75ZM496.5,389.59c-.46-.28-.92-.57-1.38-.85-24.16,10.09-48.33,20.18-73.83,30.84,4.17,2.34,7.06,4.27,10.18,5.65,15.48,6.84,32.24,8.26,48.66,11.02,1,.17,3-1.49,3.44-2.7,2.73-7.41,5.39-14.86,7.61-22.44,2.07-7.08,3.57-14.34,5.32-21.52ZM445.42,358.24c-.54-.33-1.07-.66-1.61-.99-21.98,9.28-42.94,21.1-66.66,26.71.5,1.05.75,1.72,1.12,2.31,7.52,12.05,18.45,20.23,30.77,26.72.94.49,3.29-.33,4.16-1.29,9.51-10.42,17.86-21.72,24.16-34.36,3.08-6.17,5.39-12.72,8.05-19.1ZM457.55,289.2c.19.29.37.58.56.86,25.8-8.34,51.6-16.68,77.98-25.21-9.76-10.91-19.56-20-31.62-26.45-2.79-1.49-4.44-1.5-6.6,1.18-11.46,14.26-23.16,28.34-34.75,42.5-1.91,2.33-3.72,4.74-5.58,7.11ZM302.39,400.31c.57,15.5,4.8,28.48,19.03,36.07,1.23.66,3.85.48,4.82-.41,11.66-10.62,21.81-22.51,29.29-36.49,1.96-3.66,3.55-7.52,5.91-12.56-20.54,4.66-39.7,9.01-59.04,13.4ZM417.85,416c.27.29.54.58.81.87,25.5-11.67,51.01-23.34,77.43-35.43-17.81-4.46-32.23-13.54-46.81-22.87-6.44,21.86-17.61,40.37-31.43,57.44ZM521.17,174.97c-1.39,17.6-7.03,33.42-14.32,47.87,24.31-9.87,48.84-19.83,73.43-29.82-18.93-7.68-38.42-13.95-59.11-18.05ZM411.59,321.83c-12.9,18.76-25.36,36.89-38.04,55.34,10.23,2.37,57.83-17.08,67.26-24.58-12.38-7.62-22.58-17.22-29.22-30.76ZM417.05,425.94c-9.61,13.55-18.9,26.65-28.43,40.08,27.94-5.07,55.25-11.8,81.21-23.86-18.38-4.33-37.05-7.18-52.79-16.23ZM336.87,444.61c12.46,9.22,26.67,15.05,41.73,18.99.96.25,2.51-.6,3.39-1.39,9.22-8.26,17.22-17.55,22.8-28.68,1.63-3.26,2.59-6.85,3.93-10.47-24.43,7.33-48.02,14.41-71.85,21.56ZM334.22,440.93c22.78-5.63,45.36-12.09,66.67-21.39-11.05-9.67-21.82-19.1-31.81-27.85-11.26,15.9-22.94,32.4-34.87,49.23ZM462.49,299.54c-4.09,16.89-8.02,33.11-11.95,49.34.39.23.78.47,1.17.7,16.21-8.78,32.43-17.56,48.99-26.53-10.05-12.78-23.67-18.22-38.21-23.52ZM503.48,329.98c-.53-.17-1.06-.33-1.59-.5-16.29,8.06-32.58,16.11-49.71,24.59,14.65,11.13,30.07,16.9,48,18.4,1.14-14.63,2.22-28.56,3.3-42.49ZM403,469.74c.46.19,1.1.61,1.78.7,18.96,2.54,37.92,5.11,56.91,7.42,1.33.16,3.61-1.37,4.24-2.69,2.77-5.78,5.2-11.73,7.56-17.69,1.41-3.55,2.46-7.25,3.73-11.06-25.17,7.91-49.6,15.59-74.21,23.33ZM499.76,220.94c8.89-13.86,14.17-29.55,17.44-47.28-18.58,8.43-34.58,18.6-48.42,31.13,10.43,5.44,20.45,10.67,30.98,16.16ZM508.05,170.49c-16.85-4.55-34.08-7.64-52.39-7.48,1.87,13.23,3.65,25.85,5.37,38.02,15.78-10.25,31.28-20.32,47.01-30.54ZM370.19,373.31c9.77-9.61,28.31-39.9,29.17-47.59-.43.03-.89-.05-1.26.1-10.93,4.55-21.87,9.09-32.76,13.75-1.11.48-2.4,1.49-2.8,2.55-3.6,9.66-.58,25.26,7.65,31.18ZM446.79,294.23c15.56-20.36,30.39-39.76,45.21-59.16l-1-.9c-16.45,10.3-32.93,20.56-49.28,31.02-.86.55-1.11,2.92-.81,4.25,1.47,6.53,3.23,13,4.86,19.5.34,1.34.53,2.71,1.02,5.29ZM416.48,318.36c7.84,12.49,16.71,22.44,29.69,29.37,2.52-14.46,6.57-27.89,4.74-42.72-11.71,4.54-22.78,8.83-34.43,13.35ZM387.46,318.32c.17.22.34.44.51.65.76-.32,1.53-.63,2.29-.95,15.83-6.71,31.62-13.5,47.51-20.05,2.82-1.16,3.85-2.5,3.26-5.48-.63-3.15-.64-6.42-1.34-9.54-1.05-4.72-1.7-9.72-5.99-13.3-15.59,16.41-30.92,32.54-46.24,48.67ZM487.18,227.57c-7.66-5.66-15.18-9.29-23.33-11.87-3.18-1.01-4.36-.12-5.62,2.61-6.16,13.42-12.5,26.76-18.76,40.13-.36.77-.51,1.65-1.08,3.6,16.71-11.81,32.43-22.91,48.79-34.48ZM450.85,162.43c-12.52,7.78-24.26,14.75-32.42,27.27,12.03,3.88,23.52,7.58,35.79,11.54-1.15-13.24-2.22-25.53-3.38-38.81ZM442.56,121.63c-4.08-8.89-7.88-17.16-11.83-25.78-14,4.5-27.56,9.79-40.82,18.57,17.89,4.91,35.05,6.58,52.65,7.22ZM410.84,184.58c10.89-8.26,21.67-16.43,32.45-24.61,0-.42,0-.85,0-1.27-13.73-2.23-27.46-4.46-41.93-6.8,3.45,11.9,6.52,22.49,9.47,32.68ZM444.67,131.77c-19.83-4.05-39.28-8.02-59.04-12.06,8.11,10.38,17.67,19,29.19,25.37,1.05.58,2.97.32,4.17-.23,7.17-3.26,14.27-6.68,21.35-10.16,1.6-.79,2.99-2,4.33-2.92ZM447.36,209.14c-11.14-3.12-21.2-5.94-31.13-8.72v35.06c.41.17.83.34,1.24.51,9.65-8.67,19.31-17.35,29.89-26.85ZM435.39,258.72c5.69-14.49,11.48-29.26,17.28-44.03-.5-.35-1-.7-1.5-1.05-10.86,11.88-21.72,23.75-32.01,35.01,4.27,2.65,10,6.2,16.23,10.07ZM460.52,152.72c.15-.4.3-.8.44-1.21-3.88-5.23-7.75-10.46-11.32-15.26-8.17,3.96-16.06,7.79-24.37,11.82,11.4,6.33,23.55,3.64,35.24,4.65ZM364.25,134.62c10.38,6.25,23.28,8.32,29.37,5.04-3.63-3.9-7.45-7.69-10.91-11.79-6.05-7.16-7.65-7.3-13.89,0-1.75,2.05-3.05,4.48-4.57,6.74ZM502.15,314.16c.49-.21.99-.42,1.48-.63-.78-7.66-1.55-15.31-2.39-23.59-9.17,2.23-17.41,4.24-25.65,6.25,9.96,4.62,19.63,9.16,26.57,17.98ZM400.61,173.07c.32-.07.63-.15.95-.22-1.98-5.42-4.17-10.78-5.88-16.29-1.94-6.27-6.32-9.11-12.45-9.98-3.1-.44-6.19-.93-9.43-1.41,9.3,9.68,18.05,18.79,26.81,27.9ZM412.93,257.14c-3.22,8.38-6,15.62-9.14,23.81,7.52-5.06,14.3-9.63,22.37-15.06-4.9-3.24-8.94-5.91-13.23-8.75ZM380.78,312.02c.12.17.25.35.37.52,5.94-4.1,11.87-8.22,17.82-12.31,5.72-3.94,6.11-7.72,1.41-13-6.52,8.25-13.06,16.52-19.6,24.79Z"/>
  <path class="cls-1" d="M180.7,640.55c9.95,11.94,21,19.26,37.52,14.34,0,3.83.31,7.16-.18,10.37-.16,1.05-2.33,2.31-3.74,2.56-14.09,2.51-25.94-1.97-35.92-11.94-.21-.21-.44-.39-.63-.62-6.66-7.9-14.13-12.97-25.19-14.94-17.43-3.1-30.69-20.65-32.84-39.25-1.4-12.07-.93-24.03,3.98-35.38,6.99-16.13,19.35-25.34,36.77-27.52,36.32-4.55,56.34,21.96,54.69,54.27-.67,13.17-4.04,25.39-13.11,35.51-5.62,6.27-12.73,10.07-21.35,12.6ZM132.01,588.99c1.12,6.66,1.61,11.94,2.94,16.99,3.95,14.91,15.83,24.29,30.86,24.8,15.44.53,27.62-7.42,32.65-21.7,3.69-10.48,3.73-21.29,1.67-32.11-2.97-15.62-13.56-25.76-28.49-27.45-15.16-1.71-28.78,5.68-34.7,19.94-2.69,6.49-3.54,13.74-4.95,19.51Z"/>
  <path class="cls-1" d="M101.45,555.26c-10.88-5.84-21.46-7.69-32.58-4.67-5.88,1.6-10.41,4.91-11.41,11.37-1.01,6.56,1.9,11.47,7.44,14.69,8.22,4.77,16.68,9.12,24.87,13.92,6.42,3.76,11.85,8.66,14.44,15.95,4.95,13.96-1.62,27.82-15.91,32.9-13.99,4.97-27.96,3.6-41.75-1.16-2.75-.95-4.26-2.61-3.88-5.9.36-3.12.08-6.32.08-9.7,5.79,2.35,10.91,4.73,16.22,6.52,6.94,2.34,14.14,2.41,21.25.75,5.43-1.27,9.85-4.13,11.23-9.92,1.38-5.82.3-11.4-4.71-15.03-5.06-3.67-10.68-6.56-16.06-9.79-5.88-3.53-12.19-6.52-17.56-10.71-13.45-10.49-13.53-29.24.57-39.21,4.73-3.35,10.74-6.05,16.41-6.64,8.46-.87,17.15.28,25.73.8,4.04.24,6.44,2.13,5.7,6.83-.42,2.69-.08,5.5-.08,9Z"/>
  <path class="cls-1" d="M338.52,623.75c7.83,2.39,15.03,5.22,22.49,6.65,4.72.91,9.94.23,14.77-.65,5.48-1,9.67-4.32,10.96-10.12,1.32-5.92-.12-11.34-5.08-14.91-4.95-3.57-10.46-6.35-15.72-9.5-6.01-3.6-12.4-6.71-17.91-10.96-13.06-10.1-12.62-29.77,1-39.13,4.68-3.21,10.5-5.98,16.01-6.47,8.91-.78,18.01.36,27.02.97,3.28.22,5.16,2.09,4.7,5.9-.36,2.97-.07,6.01-.07,9.82-8.41-4.86-16.75-6.76-25.48-5.96-3.85.35-7.91,1.24-11.32,2.97-9.16,4.63-10.34,16.29-2.09,22.44,5.58,4.16,12.06,7.1,18.1,10.64,4.28,2.51,8.69,4.86,12.74,7.71,9.42,6.65,13.96,15.68,11.78,27.3-2.24,11.91-10.71,17.7-21.62,20.41-12.13,3.02-24.09,1.62-35.9-2.15-3.33-1.06-4.75-2.86-4.43-6.39.27-3.03.06-6.1.06-8.58Z"/>
  <path class="cls-1" d="M674.77,624.88c2.18,9.76.99,12.71-7.82,14.88-6.72,1.66-13.88,2.76-20.75,2.38-14.96-.82-25.33-10.81-28.13-25.69-3.07-16.38-.95-31.39,12.55-42.8,18.25-15.42,44.99-5.69,49.11,17.73.45,2.59.8,5.21.97,7.84.16,2.61.04,5.24.04,8.59h-49.99c-1.12,11.39,5.26,21.21,15.33,23.37,10.33,2.22,19.96-.09,28.7-6.3ZM631.01,597.46c11.59,0,23.23.04,34.86-.12.61,0,1.71-1.83,1.72-2.81.02-10.66-7.55-17.81-18.23-17.43-9.72.35-18.96,10.26-18.35,20.36Z"/>
  <path class="cls-1" d="M478.85,607.64h-50.61c-2.27,11.07,6,22.37,17.05,23.9,8.41,1.16,16.32-.24,23.66-4.6,1.07-.64,2.19-1.21,3.39-1.86,1.99,9.72.73,12.04-8.06,14.85-8.07,2.59-16.29,3.43-24.68,1.71-12.47-2.55-20.26-10.23-23.37-22.3-3.56-13.82-3.09-27.35,5.73-39.45,8.69-11.93,23.77-16.36,37.59-11.29,8.15,2.99,13.72,8.82,15.94,16.94,1.9,6.93,2.25,14.28,3.38,22.1ZM464.47,597.21c1.76-9.74-4.76-19.02-13.87-20.02-11.68-1.29-22.12,7.82-22.58,20.02h36.45Z"/>
  <path class="cls-1" d="M247.85,539.41c0,2.2,0,3.78,0,5.36,0,26.38.11,52.76-.11,79.14-.04,4.37,1.29,5.39,5.44,5.27,10.25-.29,20.51.01,30.77-.16,3.16-.05,4.45.75,4.36,4.15-.24,9.11.53,7.59-7.39,7.63-13.92.08-27.84-.07-41.76.08-3.26.04-4.3-.97-4.29-4.25.1-31.07.1-62.14,0-93.21,0-2.99.75-4.32,3.92-4.06,2.75.22,5.54.05,9.05.05Z"/>
  <path class="cls-1" d="M575.89,627.89c6.44-18.11,13.09-36.36,19.36-54.74,1.29-3.78,3.06-5.21,6.89-4.79,2.43.27,4.91.05,8.24.05-2.31,5.98-4.29,11.24-6.36,16.47-6.79,17.13-13.72,34.2-20.34,51.39-1.31,3.41-2.91,5.22-6.64,4.57-.57-.1-1.19-.11-1.75,0-4.93.92-7.08-1.33-8.75-5.97-7.39-20.49-15.23-40.82-22.89-61.21-.55-1.47-.99-2.98-1.72-5.19,4.4,0,8.3-.2,12.15.14.99.09,2.25,1.77,2.66,2.96,6.47,18.78,12.82,37.61,19.15,56.32Z"/>
  <path class="cls-1" d="M711.51,580.78c1.02-1.77,1.97-3.58,3.08-5.29,4.31-6.64,11.83-9.8,19.42-7.95,1.03.25,2.36,1.75,2.47,2.79.32,3.16.12,6.37.12,9.44-.66.22-.95.42-1.17.36-13.41-3.37-22.36,2.06-23.76,16.03-1.27,12.77-.74,25.71-1.15,38.57-.06,2-.67,5.54-1.47,5.68-3.38.57-6.95.21-10.42-.12-.39-.04-.86-2.01-.86-3.09-.05-21.82-.01-43.63-.07-65.45,0-2.44.8-3.41,3.28-3.38,11.81.17,9.34-1.22,9.58,8.92.03,1.12,0,2.24,0,3.36.31.04.63.08.94.12Z"/>
  <path class="cls-1" d="M508.25,581.36c2.37-3.43,4.03-6.37,6.2-8.86,4.51-5.15,10.56-5.94,16.91-4.94,1,.16,2.38,1.78,2.5,2.85.34,3.01.12,6.08.12,9.49-1.45-.14-2.43-.1-3.35-.34-8.36-2.14-14.59.06-18.44,7.7-2.11,4.19-3.62,9.09-3.84,13.74-.57,11.7-.39,23.44-.23,35.16.05,3.65-1.07,4.85-4.73,4.73-9.26-.32-8.12,1.08-8.14-8.28-.05-19.93.03-39.86-.07-59.79-.02-3.04.54-4.58,4.06-4.48,10.6.32,8.59-1.19,8.78,8.87.02,1.13.12,2.26.22,4.14Z"/>
</svg>