<?xml version="1.0" encoding="UTF-8"?>
<svg id="Layer_1" data-name="Layer 1" xmlns="http://www.w3.org/2000/svg" viewBox="0 0 85.04 85.04">
  <defs>
    <style>
      .cls-1 {
        fill: #000;
        stroke-width: 0px;
      }
    </style>
  </defs>
  <path class="cls-1" d="M44.71,77.76c-.36-.13-.72-.25-1.08-.39-1.9-.77-3.19-2.65-3.19-4.7,0-13.88,0-27.77,0-41.65,0-2.8,2.31-5.08,5.14-5.08,6.91,0,13.82,0,20.73,0,2.95,0,5.22,2.26,5.22,5.21,0,10.34,0,20.69,0,31.03v.78c1.09-.19,1.97-1.34,2.07-2.67.02-.21,0-.43,0-.65,0-14.16,0-28.33,0-42.49,0-2.45-1.2-3.65-3.66-3.65-15.4,0-30.8,0-46.2,0h-.89v-2.07c.22,0,.45,0,.67,0,15.59,0,31.19,0,46.78,0,3.16,0,5.37,2.22,5.37,5.38,0,14.29-.03,28.59.03,42.88.01,2.72-1.59,4.93-4.17,5.56,0,1.6,0,3.22,0,4.83,0,1.12.1,2.27-.09,3.36-.37,2.2-1.74,3.6-3.9,4.19-.1.03-.19.09-.28.13h-22.55ZM42.55,33.2v36.22h26.88v-36.19h-5.23c-.06.21-.1.38-.15.54-.56,1.86-1.45,2.53-3.38,2.53-3.24,0-6.48-.02-9.72,0-1.33,0-2.21-.62-2.74-1.78-.19-.42-.32-.87-.48-1.32h-5.17ZM42.54,31.11c.18,0,.31,0,.44,0,1.84,0,3.67,0,5.51,0,.9,0,1.2.28,1.3,1.15.04.32.08.64.17.95.22.81.49,1,1.33,1,3.15,0,6.3-.02,9.46.01.71,0,1.1-.27,1.26-.93.07-.29.14-.59.19-.88.16-1.13.36-1.31,1.48-1.31,1.92,0,3.84,0,5.75,0,.01-1.79-1.35-3.11-3.21-3.11-4.06-.01-8.12,0-12.18,0-2.76,0-5.53-.01-8.29,0-1.82.01-3.12,1.26-3.2,3.11ZM42.55,71.56c-.23,2.77,1.02,4.13,3.72,4.13,6.59,0,13.17,0,19.76,0,2.38,0,3.83-1.78,3.35-4.13h-26.84Z"/>
  <path class="cls-1" d="M9.33,15.69c.09-.24.18-.48.26-.72.71-2.13,2.65-3.54,4.9-3.56.67,0,1.34,0,2.05,0v2.07c-.64,0-1.28,0-1.92,0-1.85.03-3.21,1.34-3.21,3.19-.01,12.63,0,25.26,0,37.9,0,.1.01.21.02.36h26.88v2.08H11.43c0,1.21-.09,2.36.02,3.48.17,1.67,1.49,2.74,3.22,2.75,3.67.01,7.34,0,11.02,0,4.19,0,8.38,0,12.62,0v2.04h-6.36c-.18.7-.34,1.36-.52,2.08h6.89v2.09c-.72,0-1.42,0-2.13,0-1.77,0-3.54,0-5.31,0-1.68,0-1.95.3-1.8,2.06h9.25v2.05c-.17.01-.36.04-.54.04-3.18,0-6.35,0-9.53,0-.95,0-1.29-.34-1.3-1.27,0-.6,0-1.21,0-1.81,0-1.29.6-2.25,1.74-2.8.43-.21.62-.47.7-.89.1-.48.22-.96.35-1.51-.29,0-.52,0-.75,0-4.73,0-9.46,0-14.19,0-2.78,0-4.62-1.41-5.37-4.12-.02-.06-.07-.1-.11-.15,0-15.12,0-30.23,0-45.35Z"/>
  <path class="cls-1" d="M29.03,18.07c1.07.61,2,.83,2.82-.36.33-.47.95-.41,1.38.01,1.01.98,2.01,1.96,2.98,2.98.45.47.46,1.07-.09,1.48-.94.7-1.03,1.45-.42,2.37.06.09.08.2.14.34.47,0,.94,0,1.41,0,.7.02,1.1.38,1.1,1.07.01,1.36.01,2.72,0,4.08,0,.66-.4,1.03-1.05,1.06-.47.02-.95,0-1.44,0-.21.49-.42.95-.6,1.43-.05.12.01.31.07.44.05.11.17.19.26.28,1.23,1.23,1.23,1.45-.03,2.71-.73.73-1.46,1.47-2.2,2.2-.59.57-1.18.63-1.67,0-.66-.86-1.34-.96-2.21-.42-.12.08-.27.12-.45.19,0,.46,0,.94,0,1.41-.02.7-.39,1.09-1.07,1.1-1.36.01-2.72.01-4.08,0-.66,0-1.03-.4-1.05-1.05-.02-.47,0-.95,0-1.44-.49-.21-.95-.43-1.43-.6-.13-.05-.36.02-.48.12-.27.21-.49.49-.74.72-.58.54-1.09.55-1.65.01-.94-.92-1.88-1.85-2.79-2.79-.52-.53-.58-1.14,0-1.58.94-.71,1.01-1.45.41-2.37-.06-.09-.08-.19-.14-.34-.47,0-.94,0-1.41,0-.7-.02-1.09-.38-1.1-1.07-.01-1.36-.01-2.72,0-4.08,0-.66.39-1.03,1.05-1.05.47-.02.95,0,1.44,0,.21-.49.42-.95.6-1.43.05-.12-.02-.3-.07-.44-.04-.09-.14-.16-.22-.23-1.29-1.3-1.29-1.48.03-2.8.72-.72,1.43-1.44,2.16-2.15.59-.57,1.1-.58,1.69,0,.32.31.59.68.84.98.69-.28,1.22-.5,1.8-.74,0-.46,0-.93,0-1.4.02-.7.38-1.1,1.07-1.1,1.36-.01,2.72-.01,4.08,0,.66,0,1.03.39,1.06,1.05.01.24,0,.47,0,.71,0,.24,0,.47,0,.74ZM32.39,19.91c-.2.26-.37.53-.6.76-.59.59-.91.59-1.67.22-.71-.35-1.45-.65-2.2-.91-.75-.26-.96-.49-.96-1.31,0-.34,0-.67,0-.99h-2.08c0,.42,0,.79,0,1.15.01.58-.3.9-.81,1.11-.86.34-1.71.69-2.56,1.06-.51.22-.97.19-1.36-.22-.26-.28-.5-.58-.72-.83-.59.56-1.05,1.01-1.58,1.51.26.24.5.44.73.67.58.59.59.91.22,1.67-.34.69-.64,1.41-.89,2.14-.29.84-.49,1.02-1.39,1.03-.31,0-.63,0-.92,0v2.08c.42,0,.79,0,1.15,0,.58-.01.9.3,1.11.81.34.86.69,1.71,1.06,2.56.21.49.2.93-.18,1.31-.28.28-.6.53-.87.76.56.59,1,1.06,1.55,1.64.26-.31.48-.61.72-.87.41-.44.87-.46,1.41-.22.82.37,1.66.71,2.5,1.03.55.21.86.55.83,1.16-.01.38,0,.76,0,1.13h2.08c0-.35,0-.67,0-.98,0-.85.21-1.06,1-1.34.77-.27,1.52-.6,2.25-.96.58-.28,1.08-.27,1.52.21.24.27.46.56.65.79.6-.57,1.07-1.02,1.6-1.52-.26-.24-.51-.44-.73-.67-.58-.59-.59-.9-.22-1.67.34-.69.64-1.41.89-2.14.29-.84.49-1.02,1.39-1.02.31,0,.63,0,.94,0v-2.08c-.41,0-.8,0-1.18,0-.58.01-.9-.3-1.1-.81-.33-.86-.69-1.71-1.06-2.56-.21-.49-.21-.93.18-1.31.29-.28.61-.53.85-.74-.56-.59-1-1.05-1.56-1.64Z"/>
  <path class="cls-1" d="M30.85,43.8c-.59.56-1.06,1-1.63,1.53.31.26.6.48.86.73.44.41.46.87.22,1.41-.37.82-.71,1.65-1.03,2.49-.21.55-.55.86-1.15.84-.36-.01-.73,0-1.16,0v3.08h-2.06c0-1.44-.04-2.88.02-4.31.02-.52.44-.82.99-.83.49-.01.99,0,1.46,0,.05-.07.08-.1.1-.14.55-.99.75-1.87-.4-2.66-.51-.35-.44-.97,0-1.43.96-.99,1.94-1.97,2.93-2.93.48-.46.99-.45,1.5.02.35.32.64.7.95,1.04.64-.26,1.19-.49,1.78-.73,0-.49-.01-.99,0-1.48.02-.62.4-1.02,1.01-1.02,1.36-.02,2.71,0,4.12,0v2.05h-3.07c0,.4-.01.76,0,1.11.03.69-.3,1.05-.95,1.26-.77.25-1.52.58-2.26.93-.71.34-1.05.33-1.62-.24-.23-.23-.42-.49-.61-.72Z"/>
  <path class="cls-1" d="M52.91,17.59v-1.99h13.39v1.99h-13.39Z"/>
  <path class="cls-1" d="M34.18,51.81h-1.94c-.54-2.35,2.26-5.22,5.03-5.13v2.01c-1.81.22-2.87,1.25-3.09,3.11Z"/>
  <path class="cls-1" d="M23.8,61.14h-6.14v-1.99h6.14v1.99Z"/>
  <path class="cls-1" d="M20.71,11.45v1.99h-2v-1.99h2Z"/>
  <path class="cls-1" d="M68.47,15.57h1.98v2.01h-1.98v-2.01Z"/>
  <path class="cls-1" d="M15.54,59.14v1.98h-2.01v-1.98h2.01Z"/>
  <path class="cls-1" d="M44.58,51.8c.01-6.35,5.12-11.38,11.55-11.36,6.24.02,11.27,5.17,11.25,11.53-.02,6.22-5.17,11.29-11.46,11.27-6.3-.02-11.36-5.13-11.35-11.44ZM56.04,42.51c-5.12,0-9.36,4.17-9.38,9.26-.02,5.15,4.18,9.38,9.32,9.39,5.14,0,9.34-4.2,9.35-9.36,0-5.05-4.22-9.29-9.28-9.3Z"/>
  <path class="cls-1" d="M51.87,32.1v-1.99h8.23v1.99h-8.23Z"/>
  <path class="cls-1" d="M51.87,74.6v-1.98h8.23v1.98h-8.23Z"/>
  <path class="cls-1" d="M20.74,27.96c0-2.86,2.32-5.14,5.2-5.14,2.87,0,5.17,2.31,5.16,5.18,0,2.9-2.32,5.19-5.24,5.18-2.85,0-5.13-2.33-5.13-5.22ZM22.81,28.01c0,1.68,1.43,3.09,3.11,3.09,1.7,0,3.13-1.45,3.11-3.15-.02-1.64-1.43-3.05-3.07-3.06-1.7-.01-3.15,1.43-3.14,3.12Z"/>
  <path class="cls-1" d="M54.08,50.29c.54-.57,1.13-1.21,1.75-1.84,1.14-1.15,2.28-2.3,3.43-3.43.61-.61,1.13-.61,1.74-.01.97.95,1.93,1.91,2.88,2.88.55.56.57,1.1.03,1.64-3.06,3.07-6.13,6.14-9.2,9.2-.52.52-1.07.52-1.6,0-1.7-1.68-3.4-3.38-5.08-5.08-.49-.5-.49-1.05,0-1.55.99-1.02,2-2.03,3.02-3.02.52-.51,1.05-.49,1.6.02.41.38.81.78,1.21,1.17.01.01.04,0,.22.02ZM53.86,56.39c2.58-2.58,5.17-5.17,7.7-7.69-.45-.46-.95-.99-1.47-1.53-.09.08-.18.16-.27.25-1.66,1.66-3.32,3.33-4.99,4.99-.66.66-1.17.66-1.83-.01-.38-.38-.72-.78-1.01-1.1-.62.61-1.14,1.12-1.63,1.6,1.17,1.17,2.37,2.37,3.5,3.5Z"/>
</svg>