<?xml version="1.0" encoding="UTF-8"?>
<svg id="Layer_1" data-name="Layer 1" xmlns="http://www.w3.org/2000/svg" viewBox="0 0 512 512">
  <defs>
    <style>
      .cls-1 {
        fill: #000;
        stroke-width: 0px;
      }
    </style>
  </defs>
  <path class="cls-1" d="M255.49,464c-1-.24-1.99-.62-3.01-.68-11.7-.77-23.16-2.86-34.52-5.74-14.73-3.73-28.87-9.03-42.39-15.91-33.68-17.14-61.1-41.42-82.42-72.61-10.86-15.9-19.4-32.97-25.64-51.18-3.47-10.14-6.03-20.52-8-31.08-2.96-15.89-3.81-31.91-2.88-47.95.56-9.69,2.2-19.36,3.84-28.95,2.42-14.15,6.94-27.7,12.51-40.92,9.16-21.75,21.68-41.37,37.5-58.84,16.19-17.88,34.6-33.05,55.76-44.75,11.93-6.6,24.35-12.1,37.35-16.32,9.81-3.18,19.72-5.95,29.94-7.45,6.83-1.01,13.69-2.06,20.58-2.46,9.17-.53,18.42-1.07,27.56-.46,10.32.68,20.63,2.25,30.81,4.13,11.21,2.07,22.1,5.53,32.75,9.69,22.36,8.73,42.77,20.72,60.95,36.41,17.5,15.1,32.72,32.21,44.79,52,8.01,13.14,14.48,26.99,19.56,41.53,3.96,11.33,6.8,22.92,8.83,34.71.94,5.44,1.27,10.99,1.92,16.48.15,1.29.48,2.56.72,3.84v25.77c-.23,1.14-.54,2.27-.68,3.42-.98,7.68-1.61,15.41-2.97,23.02-2.09,11.71-5.36,23.12-9.48,34.3-7.93,21.52-19,41.25-33.25,59.21-9.67,12.19-20.64,23.07-32.66,32.95-12.84,10.56-26.79,19.32-41.72,26.55-14.28,6.92-29.14,12.21-44.64,15.73-9.99,2.27-20.05,4.01-30.27,4.78-1.43.11-2.84.5-4.25.77h-26.6ZM269.04,452.92c1.93-.12,3.86-.33,5.79-.36,15.58-.23,30.83-2.74,45.86-6.71,12.19-3.22,23.96-7.61,35.31-13.07,17.95-8.64,34.25-19.71,48.96-33.16,12.95-11.84,24.2-25.09,33.67-39.84,8.85-13.78,15.94-28.42,21.27-43.92,3.97-11.54,6.92-23.33,8.7-35.38,1.91-12.88,2.62-25.82,2-38.87-.66-14.03-2.73-27.81-6.27-41.35-3.7-14.14-8.99-27.71-15.71-40.71-5.74-11.09-12.44-21.54-20.14-31.38-6.97-8.91-14.77-17.04-22.97-24.8-10.91-10.32-22.86-19.26-35.82-26.8-11.19-6.51-22.91-11.9-35.16-16.15-11.27-3.91-22.77-6.88-34.54-8.63-13.08-1.95-26.23-2.71-39.49-1.99-10.94.59-21.75,1.92-32.46,4.2-16.65,3.54-32.54,9.19-47.79,16.74-21.18,10.49-39.78,24.41-56.16,41.4-9.4,9.75-17.9,20.19-25.18,31.61-14.1,22.12-23.63,46.05-28.27,71.87-2.71,15.08-3.67,30.29-2.85,45.64.72,13.46,2.78,26.68,6.21,39.68,4.12,15.63,10.11,30.54,17.88,44.73,11.84,21.65,27.06,40.57,45.58,56.86,16.18,14.23,34.15,25.64,53.92,34.18,14.72,6.36,29.99,10.84,45.83,13.46,10.55,1.75,21.15,2.41,31.81,2.74Z"/>
  <path class="cls-1" d="M404.19,199.87c0-3.5,0-6.67,0-9.84,0-1.5,1.14-1.31,2.09-1.31,7.76,0,15.52-.02,23.27,0,5.34.01,4.82-.61,4.83,4.73,0,38.86,0,77.71,0,116.57q0,3.45-3.35,3.45c-8.17,0-16.35-.05-24.52.04-1.79.02-2.51-.44-2.38-2.32.15-2.14.17-4.3,0-6.44-.16-2.02.68-2.46,2.51-2.4,3.39.12,6.79.04,10.18.04q3.23,0,3.23-3.33c0-17.45,0-34.91,0-52.36,0-11.22.02-22.44-.01-33.66-.01-4.28-.16-8.55-.25-12.83-4.27-.11-8.54-.22-12.8-.33-.82-.02-1.64,0-2.8,0Z"/>
  <path class="cls-1" d="M104.03,251.15c0-19.81.03-39.62-.05-59.43,0-2.16.64-2.68,2.7-2.65,8.45.11,16.9.09,25.35.01,1.71-.02,2.34.47,2.24,2.22-.13,2.28-.11,4.57,0,6.85.07,1.59-.45,2.22-2.12,2.18-3.88-.1-7.76.03-11.64-.07-1.63-.04-2.18.51-2.18,2.14.03,32.69.04,65.39,0,98.08,0,1.69.58,2.12,2.18,2.09,4.02-.09,8.03,0,12.05-.05,1.24-.02,1.74.35,1.7,1.65-.08,2.42-.1,4.85,0,7.27.07,1.68-.46,2.33-2.22,2.3-8.65-.15-17.31-.23-25.96-.25-1.72,0-2.08-.77-2.07-2.28.04-8.94.02-17.87.02-26.81,0-11.08,0-22.17,0-33.25Z"/>
  <path class="cls-1" d="M251.17,248.36c6.14,1.92,10.24,5.59,12.06,11.28,2.72,8.51-.93,17.05-8.76,21.38-5.81,3.21-12.22,3.98-18.66,4.08-5.59.09-11.18-.45-16.78-.66-1.42-.05-1.85-.68-1.85-2.07.04-20.77.04-41.54,0-62.32,0-1.4.44-2.02,1.84-2.1,7.31-.43,14.61-1.18,21.92-1.27,5.11-.06,9.85,1.94,14.2,4.67,8.68,5.45,8.31,17.81.64,23.97-1.32,1.06-2.84,1.88-4.6,3.04ZM229.46,264.91c0,3.12,0,6.23,0,9.35,0,.98.09,1.87,1.4,1.78,4.05-.27,8.15-.22,12.13-.92,4.52-.79,7.48-4.56,7.91-9.03.44-4.59-1.59-8.4-5.73-10.33-4.66-2.17-9.68-2.04-14.66-1.84-.37.02-.97,1.06-.99,1.64-.1,3.11-.05,6.23-.05,9.34ZM229.46,235.36c0,2.56-.06,5.12.05,7.67.02.57.69,1.61,1.01,1.59,4.11-.24,8.32-.17,12.29-1.12,3.84-.92,6.12-4.04,6.28-8.12.14-3.53-1.51-6.31-4.75-7.86-4.48-2.14-9.23-2.07-13.98-1.18-.38.07-.84,1-.86,1.55-.09,2.49-.04,4.98-.04,7.47Z"/>
  <path class="cls-1" d="M142.83,251.22c.57-10.12,3.13-19.28,10.43-26.54,7.32-7.27,16.29-9.73,26.44-8.54,14.9,1.75,25.03,14.21,26.65,28.45.91,7.98.23,15.75-3.13,23.16-4.28,9.45-11.58,15.23-21.71,17.16-8.79,1.68-17.23.71-24.77-4.65-5.87-4.17-9.75-9.81-11.63-16.68-1.1-4.03-1.54-8.24-2.28-12.37ZM193.8,249.76c-.2-1.69-.39-4.24-.86-6.75-.35-1.82-.99-3.6-1.66-5.33-2.82-7.24-8.97-11.99-15.94-11.94-7.82.05-13.09,4.14-16.29,11.12-2.64,5.76-3.07,11.82-2.53,18.05.36,4.13,1.43,8.02,3.43,11.63,6.23,11.25,20.69,12.45,28.5,2.3,4.1-5.33,5.07-11.69,5.35-19.08Z"/>
  <path class="cls-1" d="M396.46,219.28c-.79,2.92-1.47,5.73-2.36,8.48-.12.37-1.3.67-1.92.56-3.33-.56-6.6-1.58-9.95-1.86-10.63-.9-19.55,3.87-23.05,12.97-3.88,10.1-3.64,20.1,3.51,28.99,3.27,4.06,7.83,6.05,12.91,6.79,5.41.79,10.75.38,15.95-1.4,1.61-.55,2.6-.34,2.77,1.7.15,1.92.78,3.8.94,5.72.06.68-.5,1.9-1.02,2.06-12.88,3.84-25.52,4.15-37.29-3.5-6.72-4.37-10.51-10.9-12.22-18.59-1.33-5.99-1.49-12.08-.31-18.14,1.38-7.1,5-12.95,10.2-17.87,4.47-4.22,9.67-7.39,15.73-8.27,5.07-.74,10.31-.59,15.46-.41,3.63.12,7.2,1.06,10.64,2.79Z"/>
  <path class="cls-1" d="M300.68,242.54c0,7.06.14,14.13-.04,21.19-.16,6.12-1.38,11.99-5.83,16.63-4.53,4.73-10.4,5.81-16.56,5.64-2.81-.08-5.6-.75-8.39-1.2-1.22-.2-1.74-.91-1.52-2.22.37-2.18.65-4.38.95-6.57.17-1.27.78-1.42,2.02-1.26,2.78.36,5.61.67,8.41.57,4.03-.14,6.45-2.67,7.55-6.35.61-2.03.94-4.21.96-6.33.12-14.27.18-28.53.12-42.8,0-2.17.67-2.77,2.72-2.64,2.48.16,4.99.15,7.48,0,1.8-.11,2.2.59,2.18,2.26-.08,7.69-.03,15.38-.03,23.06Z"/>
  <path class="cls-1" d="M322.87,262.39c-3.53,0-7.06-.03-10.58.02-1.49.02-2.17-.55-2.1-2.08.07-1.59.03-3.18.02-4.77-.01-1.21.55-1.74,1.77-1.73,7.4.02,14.8-.02,22.2.08.56,0,1.5.95,1.58,1.56.23,1.63.05,3.31.1,4.97.04,1.42-.6,1.98-2,1.96-3.67-.04-7.33-.01-11-.01Z"/>
</svg>