<?xml version="1.0" encoding="UTF-8"?>
<svg id="Layer_1" data-name="Layer 1" xmlns="http://www.w3.org/2000/svg" viewBox="0 0 2433 2500">
  <defs>
    <style>
      .cls-1 {
        fill: none;
        stroke: #000;
        stroke-miterlimit: 10;
        stroke-width: 27px;
      }
    </style>
  </defs>
  <path class="cls-1" d="M1347.68,323c412.75-25.13,740.11,242.85,764.34,657.82,27.35,472.12-348.7,956.03-840.4,1081.24-170.12,42.92-329.36,38.02-467.67-5.56-10.01-186.36,26.24-380.5,106.07-516.16,130.09-221.05,327.12-202.15,439.88,42.03,42.47,91.85,66.94,202.59,74.05,316.67,39.36-20.9,77.61-44.48,114.08-69.83-121.87-295.77-176.35-646.03,260.41-1261.14-126.98-101.63-322.24-151-565.97-119.64,36.03-42.03,74.28-84.07,115.2-125.43h0,0Z"/>
  <path class="cls-1" d="M1247.17,823.81c-35.36,74.28-21.13,135.44,31.58,136.55,52.48.88,123.87-58.72,159.22-133.21,35.37-74.28,21.35-135.42-31.35-136.54-52.71-.89-124.09,58.71-159.45,133.21h0ZM1211.37,612.99c-369.16,452.55-525.95,1040.31-503.92,1564.48-217.94-87.17-377.61-297.33-394.29-563.74v-3.11c-27.57-472.58,349.37-956.7,841.72-1081.46,191.25-48.26,371.83-35.36,522.61,26.24-31.35,89.4-83.84,191.7-135.88,268.87-108.97,161.9-265.53,263.97-349.59,228.17-83.84-36.02-63.6-196.59,45.59-358.71,25.13-37.36,52.93-71.61,81.83-101.63-35.58,4.89-71.6,11.79-108.08,20.9h0Z"/>
</svg>