<?xml version="1.0" encoding="UTF-8"?>
<svg id="Layer_1" data-name="Layer 1" xmlns="http://www.w3.org/2000/svg" viewBox="0 0 85.04 85.04">
  <defs>
    <style>
      .cls-1 {
        fill: #000;
        stroke-width: 0px;
      }
    </style>
  </defs>
  <path class="cls-1" d="M1.93,42.76c1.51-4.23,5.11-6.06,8.92-7.44,3.52-1.27,7.17-2.18,10.8-3.26-.43-1.39-.96-2.95-1.41-4.54-1.07-3.76-1.85-7.56-1.61-11.5.11-1.76.5-3.46,1.6-4.88,1.69-2.18,3.95-2.6,6.49-1.95,2.28.58,4.26,1.78,6.12,3.14,3.09,2.27,5.82,4.94,8.34,7.82.19.21.39.42.65.7.31-.34.61-.66.89-.98,3.03-3.38,6.25-6.53,10.16-8.9,1.63-.99,3.34-1.81,5.26-2.03,3.3-.36,5.94,1.72,6.61,5.13.74,3.77.18,7.44-.72,11.09-.59,2.38-1.33,4.73-1.99,7.06,2.4.6,4.86,1.12,7.26,1.84,3.51,1.06,6.96,2.29,9.79,4.76,1.58,1.38,2.73,3,2.65,5.22-.07,2.02-1.15,3.51-2.59,4.79-1.85,1.64-4.04,2.71-6.32,3.6-3.42,1.34-6.96,2.19-10.55,2.93-.1.02-.2.05-.24.06.72,2.59,1.5,5.14,2.14,7.72.71,2.86,1.08,5.77.85,8.72-.13,1.67-.52,3.3-1.56,4.66-1.67,2.19-3.93,2.65-6.48,2.01-2.28-.57-4.26-1.76-6.13-3.13-3.1-2.26-5.83-4.93-8.35-7.81-.2-.23-.41-.46-.68-.75-.73.8-1.42,1.57-2.12,2.32-2.68,2.84-5.53,5.5-8.89,7.54-1.65,1-3.38,1.85-5.33,2.05-3.31.35-5.92-1.74-6.59-5.15-.74-3.74-.17-7.39.71-11.01.58-2.39,1.33-4.73,2.02-7.15-1.62-.37-3.31-.71-4.98-1.15-3.49-.92-6.93-2-10.04-3.9-1.72-1.06-3.27-2.31-4.17-4.19-.2-.41-.36-.83-.54-1.25,0-.73,0-1.46,0-2.18ZM22.87,52.25c1.25-2.72,2.49-5.38,3.68-8.05.11-.25.02-.64-.1-.92-1.04-2.35-2.1-4.68-3.16-7.01-.12-.28-.26-.55-.47-1-3.35.95-6.68,1.8-9.95,2.85-2.27.73-4.44,1.77-6.26,3.38-1.74,1.55-1.8,3.19-.01,4.67,1.11.92,2.36,1.7,3.66,2.33,3.99,1.95,8.28,2.93,12.62,3.75ZM60.89,52.44c3.35-.95,6.69-1.8,9.96-2.85,2.25-.72,4.39-1.75,6.19-3.34,1.81-1.59,1.85-3.25-.02-4.78-1.09-.89-2.33-1.66-3.6-2.27-3.99-1.94-8.28-2.92-12.63-3.75-.97,2.16-1.83,4.37-2.95,6.43-.76,1.4-.78,2.51-.01,3.92,1.12,2.06,1.98,4.27,3.05,6.63ZM44.08,64.24c2.53,2.93,5.17,5.71,8.24,8.05,1.63,1.24,3.34,2.38,5.34,2.96,1.99.58,3.37-.15,3.78-2.17.25-1.23.38-2.53.31-3.78-.24-4.44-1.49-8.66-3.01-12.81-.07-.2-.43-.45-.64-.43-2.81.27-5.62.57-8.43.88-.2.02-.45.16-.56.32-1.68,2.31-3.34,4.63-5.03,6.98ZM39.62,23.47c-2.51-2.91-5.13-5.68-8.18-8.01-1.65-1.26-3.37-2.42-5.41-3-2-.58-3.37.15-3.78,2.18-.25,1.23-.38,2.53-.31,3.78.23,4.44,1.5,8.66,3.01,12.81.07.2.44.45.64.43,2.81-.27,5.62-.57,8.43-.88.2-.02.45-.16.56-.32,1.68-2.31,3.34-4.63,5.03-6.98ZM44.08,23.46c1.69,2.36,3.33,4.66,5,6.95.14.19.45.34.7.37,2.76.32,5.52.59,8.28.91.5.06.64-.18.75-.56.84-2.97,1.78-5.91,2.48-8.9.56-2.43.76-4.92.22-7.42-.45-2.08-1.81-2.99-3.83-2.31-1.24.42-2.46.99-3.56,1.69-3.89,2.49-7.03,5.82-10.03,9.28ZM39.62,64.24c-1.68-2.35-3.34-4.67-5.03-6.97-.14-.19-.46-.31-.71-.34-2.73-.31-5.47-.58-8.2-.9-.53-.06-.68.19-.8.6-.77,2.69-1.64,5.35-2.3,8.07-.64,2.68-.97,5.42-.39,8.18.4,1.91,1.36,2.72,3.19,2.49,1.55-.19,2.9-.95,4.18-1.79,3.89-2.54,7.06-5.87,10.05-9.32ZM41.81,53.69s0,0,0,0c1.74,0,3.48.01,5.22-.02.22,0,.54-.2.65-.4,1.77-2.99,3.53-5.98,5.26-9,.12-.21.13-.62,0-.84-1.73-3.01-3.48-6.01-5.26-9-.13-.21-.48-.4-.73-.4-3.4-.02-6.8-.02-10.2,0-.25,0-.6.19-.73.4-1.78,2.98-3.53,5.98-5.26,8.99-.12.21-.13.62,0,.84,1.73,3.01,3.48,6.01,5.26,9,.13.21.48.4.73.4,1.69.04,3.37.02,5.06.02ZM26.31,34.88c.81,1.82,1.56,3.51,2.36,5.3,1.15-1.98,2.24-3.87,3.41-5.91-1.97.21-3.8.4-5.77.61ZM55.03,40.18c.8-1.8,1.55-3.5,2.35-5.3-1.99-.21-3.8-.39-5.75-.59,1.17,2.03,2.25,3.91,3.4,5.9ZM26.31,52.83c1.96.2,3.79.4,5.76.6-1.18-2.04-2.26-3.92-3.4-5.89-.8,1.78-1.55,3.47-2.36,5.29ZM51.62,53.44c1.99-.21,3.82-.41,5.78-.62-.82-1.83-1.57-3.51-2.36-5.29-1.15,1.99-2.23,3.86-3.41,5.91ZM41.83,26.17c-1.11,1.5-2.15,2.9-3.23,4.36h6.49c-1.1-1.47-2.13-2.86-3.26-4.36ZM38.59,57.15c1.14,1.52,2.18,2.91,3.29,4.38,1.12-1.51,2.15-2.91,3.24-4.38h-6.52Z"/>
  <path class="cls-1" d="M48.52,43.84c.03,3.58-2.97,6.68-6.62,6.67-3.73-.01-6.61-2.75-6.71-6.64-.09-3.6,3.08-6.73,6.68-6.69,3.63.04,6.63,3.04,6.65,6.66ZM38.56,43.84c0,1.83,1.47,3.31,3.3,3.3,1.81,0,3.27-1.45,3.28-3.24.02-1.84-1.44-3.33-3.26-3.34-1.85,0-3.32,1.44-3.32,3.28Z"/>
</svg>