<?xml version="1.0" encoding="UTF-8"?>
<svg id="Layer_1" data-name="Layer 1" xmlns="http://www.w3.org/2000/svg" viewBox="0 0 2215 2500">
  <defs>
    <style>
      .cls-1 {
        fill: none;
        stroke: #000;
        stroke-miterlimit: 10;
        stroke-width: 30px;
      }
    </style>
  </defs>
  <path class="cls-1" d="M2073.81,992.47c-8.77,20.52-25.66,33.56-44.32,43.1-46.82,23.95-93.75,47.89-141.88,69.02-187.11,82.19-374.79,163.08-562.04,244.95-39.62,17.32-78.05,37.35-117.54,54.97-66.83,29.82-132.57,26.31-199.68-3-131.64-57.5-264.46-112.29-396.77-168.26-119.23-50.43-238.58-100.58-357.48-151.76-21.19-9.12-40.91-21.97-60.49-34.39-15.34-9.72-22.35-23.82-21.97-43.33,1.13-57.54.77-115.11.15-172.67-.16-14.91,5.08-26.26,16.89-33.77,14.1-8.97,28.62-17.91,44.08-24,166.72-65.61,333.55-130.96,500.6-195.72,99.62-38.62,199.57-76.38,299.61-113.88,33.56-12.58,67.92-22.98,103.87-26.73,1.22-.13,2.37-.91,3.55-1.39,12.94,0,25.87,0,38.81,0,5.34,1.02,10.66,2.16,16.02,3.04,42.7,7.08,82.56,23.25,122.52,38.83,179.48,69.99,358.82,140.34,538.24,210.49,56.8,22.21,113.83,43.82,170.47,66.43,18.87,7.53,37.11,16.97,47.36,36.27v201.79ZM731.62,908.27c43.02-.34,83.55-3.54,123.35-13.03,33.45-7.97,66.2-18.03,93.4-40.32,28.67-23.51,29.27-53.34-.4-75.51-16.27-12.16-35.03-22.65-54.28-28.88-102.78-33.25-206.47-32.79-310.04-3.32-24.58,6.99-48.08,17.33-67.21,35.21-24,22.44-23.61,48.15.83,70.19,15.38,13.87,33.67,22.62,52.86,29.71,52.84,19.54,107.89,25.25,161.5,25.95ZM1279.06,814.54c3.14,1.52,4.55,2.32,6.04,2.91,81.91,32.4,163.78,64.89,245.85,96.88,4.99,1.95,12.13,1.54,17.23-.45,72.18-28.05,144.18-56.54,216.21-84.96,20.3-8.01,40.54-16.15,62.27-24.81-2.95-1.52-4.22-2.32-5.59-2.87-82.19-32.57-164.35-65.21-246.68-97.44-4.48-1.75-10.89-1.5-15.44.27-60.44,23.51-120.72,47.44-181.03,71.29-32.37,12.8-64.72,25.64-98.86,39.17ZM1293.65,912.02c-147.4,22.65-292.15,44.9-436.9,67.15-.02.66-.05,1.33-.07,1.99,101.19,41.94,202.38,83.87,303.92,125.95,44.01-64.54,87.63-128.5,133.05-195.09ZM1062.49,615.1c-46.68,16.89-92.06,33.31-137.45,49.73,5.95,2.23,11.39,2.95,16.85,3.44,53.44,4.76,106.88,9.54,160.33,14.12,6.03.52,9.82,2.75,12.98,8.13,16.03,27.3,32.48,54.34,48.81,81.46,1.79,2.97,3.75,5.84,6.37,9.91,10.95-26.26,21.91-50.97,31.45-76.22,3.63-9.61,8.7-13.1,18.65-13.93,34.78-2.9,69.48-6.71,104.2-10.27,14.27-1.46,28.51-3.18,42.77-4.78.03-.63.06-1.26.09-1.88-40.92-15.32-81.83-30.65-123.4-46.22,11.25-27.1,22.06-53.13,33.52-80.73-3.35,1-4.8,1.4-6.23,1.86-36.53,11.85-72.99,23.93-109.66,35.34-5.3,1.65-12.18,1.64-17.34-.27-29.06-10.74-57.81-22.31-86.68-33.56-11.57-4.51-23.17-8.95-34.76-13.42-.46.56-.92,1.12-1.38,1.68,13.42,24.82,26.83,49.64,40.87,75.61Z"/>
  <path class="cls-1" d="M2073.81,1632.76c-9.83,19.62-26.29,32.97-45.01,42.39-50.43,25.37-100.9,50.88-152.56,73.56-172.62,75.77-345.9,150.03-518.63,225.55-49.96,21.85-98.63,46.63-148.39,68.96-66.64,29.9-132.37,27.14-199.65-2.1-145.05-63.03-291.28-123.35-436.95-184.95-106.73-45.13-213.53-90.11-319.86-136.19-21.44-9.29-41.33-22.52-61.08-35.25-14.07-9.06-20.29-22.48-19.97-40.38.97-54.3.35-108.63.35-162.95,0-3.49,0-6.98,0-11.66,20.63,31.67,52.68,45.66,83.99,59.44,78.87,34.72,158.28,68.24,237.73,101.63,158.9,66.79,317.98,133.16,476.98,199.74,24.7,10.34,48.92,21.99,74.09,31,56.02,20.07,111.1,12.57,164.17-10.79,49.33-21.71,97.24-46.64,146.61-68.24,166.81-72.95,334.19-144.6,500.91-217.73,57.01-25.01,112.8-52.82,168.99-79.67,7.51-3.59,14.99-8.16,20.92-13.9,9.8-9.49,18.32-20.3,27.38-30.56v192.08Z"/>
  <path class="cls-1" d="M2073.81,1318.44c-8.61,20.19-25.17,33.06-43.5,42.6-41.5,21.59-83.13,43.16-125.94,61.93-162.33,71.18-325.34,140.8-487.68,211.93-63.56,27.85-126.01,58.23-189.03,87.31-33.02,15.24-67.09,26.84-103.78,29.45-38.8,2.76-74.86-7.36-110.05-22.2-180.27-76-360.59-151.86-540.8-228-73.45-31.03-146.88-62.15-219.85-94.29-20.26-8.93-39.31-20.94-58.06-32.87-16.14-10.27-24.05-24.66-23.55-45.53,1.37-56.85.47-113.75.47-172.12,20.33,31.04,51.48,45.24,82.26,58.54,111.13,48.03,222.71,95,334.27,142.01,129.12,54.41,258.35,108.53,387.64,162.54,27.95,11.68,55.7,24.45,84.63,33.02,50.61,14.98,100.21,5.95,147.41-14.92,53.43-23.62,105.56-50.21,159.08-73.61,169.79-74.26,340.17-147.19,509.89-221.61,50.8-22.28,100.49-47.17,150.08-72.08,18.96-9.52,36.1-22.56,46.5-42.24v190.14Z"/>
</svg>