<?xml version="1.0" encoding="UTF-8"?>
<svg id="Layer_1" data-name="Layer 1" xmlns="http://www.w3.org/2000/svg" viewBox="0 0 256 257">
  <defs>
    <style>
      .cls-1 {
        fill: #000;
        stroke-width: 0px;
      }
    </style>
  </defs>
  <path class="cls-1" d="M211.92,72.99c.25,3.64.64,6.64.64,9.63.04,34.36.05,68.72.02,103.07-.02,17.32-9.61,31.28-25.67,36.7-4.25,1.44-8.98,2.05-13.49,2.07-34.23.17-68.45.16-102.68.06-16.45-.05-28.52-7.44-35.75-22.34-2.52-5.2-3.34-10.81-3.34-16.55,0-34.36-.09-68.72.03-103.07.06-16.27,7.42-28.25,22.14-35.46,5.13-2.51,10.66-3.43,16.33-3.44,34.71-.03,69.41-.05,104.12.04,3.79,0,7.57.76,11.35,1.16l.2.71c-2.08,2.19-4.16,4.4-6.27,6.57-.19.19-.63.2-.95.2-8.28-.06-16.56-.19-24.84-.19-27.72-.03-55.45.01-83.17-.02-11.55-.01-20.49,4.66-26.51,14.58-2.87,4.73-4,9.97-3.99,15.49.03,15.4,0,30.8,0,46.2,0,19.37-.04,38.74.02,58.11.04,14.35,9.24,25.79,23.21,28.91,2.18.49,4.47.67,6.71.67,34.71.04,69.41.05,104.12.02,15.52-.01,27.27-10.11,29.69-25.47.3-1.88.24-3.82.24-5.73.01-33.81.02-67.62-.02-101.43,0-1.63.4-2.83,1.59-3.97,2.01-1.93,3.87-4.01,6.26-6.51Z"/>
  <path class="cls-1" d="M209.13,32.4c5.1,4.75,10.1,9.4,15.25,14.19-25.55,27.91-50.99,55.71-76.63,83.72-15.81-15.11-31.57-30.17-47.44-45.34,4.75-5.1,9.39-10.09,14.19-15.24,10.82,10.11,21.55,20.14,32.47,30.34,20.74-22.58,41.41-45.07,62.17-67.67Z"/>
  <path class="cls-1" d="M48.7,176.61c3.63,0,7.17-.04,10.72.05.42,0,1.07.6,1.19,1.04,1.47,5.27,5.14,8.31,10.15,9.78,6.78,1.98,13.52,2.08,19.81-1.71,5.49-3.3,7.2-10.11,3.79-14.87-1.83-2.56-4.53-4-7.43-4.85-6.49-1.89-13.06-3.49-19.55-5.39-4.72-1.39-9.07-3.6-12.23-7.5-7.43-9.16-5.58-23.25,3.9-30.3,6.4-4.76,13.77-6.11,21.53-5.89,7.4.21,14.17,2.24,19.76,7.3,4.46,4.05,6.75,9.14,7.01,15.29h-11.51c-.82-1.74-1.44-3.58-2.47-5.14-2.6-3.91-6.55-5.7-11.05-6.29-5.72-.76-11.31-.34-15.88,3.64-5.68,4.94-4.66,13.15,2.21,16.1,4.73,2.03,9.9,3.02,14.83,4.6,4.8,1.54,9.72,2.84,14.28,4.93,15.23,7,13.37,28.51,2.09,36.3-5.37,3.71-11.32,5.4-17.68,5.85-8.65.61-16.97-.54-24.23-5.76-5.32-3.82-8.42-9.05-9.22-15.58-.06-.45,0-.92,0-1.6Z"/>
  <path class="cls-1" d="M173.24,182.47c-1.14,5.39-3.96,9.45-8.27,12.45-8.71,6.06-25.32,7.1-34.84-1.15-3.72-3.22-6.32-7.21-7.77-11.86-2.7-8.67-2.75-17.42.12-26.03,3.91-11.71,13.41-18.18,25.8-17.89,14.57.34,24.41,9.73,25.69,24.58.26,3.04.31,6.1.47,9.45h-42.08c-.19,8.68,4.44,15.54,12.08,17.04,6.66,1.31,13.03.54,17.27-5.88.22-.33.74-.66,1.13-.67,3.41-.05,6.82-.03,10.39-.03ZM162.38,163.04c-.66-9.85-6.06-15.52-14.63-15.5-8.58.03-14.37,5.96-15,15.5h29.62Z"/>
</svg>