<?xml version="1.0" encoding="UTF-8"?>
<svg id="Layer_1" data-name="Layer 1" xmlns="http://www.w3.org/2000/svg" viewBox="0 0 2215 2500">
  <defs>
    <style>
      .cls-1 {
        fill: #000;
        stroke-width: 0px;
      }
    </style>
  </defs>
  <path class="cls-1" d="M1387.25,2254.06l2.54,11.73,615.52-133.38-1.64-11.1s-54.52-369.01-109.26-739.24c-27.37-185.12-54.8-370.54-75.5-510.29-10.35-69.88-19.01-128.34-25.15-169.64-3.07-20.65-5.5-37.01-7.2-48.36-.85-5.68-1.51-10.1-1.98-13.19-.23-1.55-.42-2.76-.55-3.63-.07-.44-.12-.79-.17-1.08-.02-.14-.04-.27-.06-.38-.02-.12-.04-.22-.07-.41v-.02c-1.39-7.46-5.17-13.9-10.36-18.5-2.6-2.3-5.56-4.16-8.8-5.46-3.23-1.3-6.76-2.03-10.39-2.03v1.41-1.41s0,0,0,0v1.41-1.41s-.38,0-.86-.03c-.96-.04-2.49-.12-4.45-.24-7.38-.44-20.85-1.35-36.83-2.47-23.97-1.68-53.64-3.82-77.31-5.55-11.83-.86-22.17-1.62-29.55-2.16-3.69-.27-6.64-.49-8.66-.64-2.03-.15-3.13-.23-3.13-.23l-.88,11.97,8.49-8.49s-26.67-26.67-54.95-54.76c-14.14-14.05-28.69-28.45-40.54-40.07-5.92-5.81-11.17-10.93-15.36-14.97-2.1-2.02-3.93-3.78-5.47-5.23-1.55-1.46-2.77-2.59-3.78-3.48l-7.92,9.02,8.78-8.18c-2.37-2.55-4.93-4.46-7.2-5.87-2.28-1.41-4.25-2.36-5.73-3.13l-16.69-8.64-77.41,1800.12h13.81l1.26-.27-2.54-11.73v-12h0v12l11.99.52,76.06-1768.82-11.99-.52-5.51,10.66c1.78.92,3.12,1.59,4.1,2.21.99.62,1.63,1.13,2.29,1.83l.41.44.45.4c.61.53,1.73,1.56,3.16,2.91,2.71,2.55,6.59,6.29,11.26,10.84,16.38,15.95,42.55,41.9,64.58,63.82,11.02,10.97,21.01,20.93,28.25,28.15,3.62,3.61,6.55,6.54,8.57,8.56,1.01,1.01,1.8,1.8,2.33,2.33.53.53.81.81.81.81l3.15,3.15,4.45.33s38.4,2.84,77.82,5.68c19.71,1.42,39.68,2.84,55.24,3.9,7.78.53,14.46.98,19.48,1.29,2.51.16,4.6.28,6.23.37.82.04,1.52.08,2.12.1.61.02,1.08.04,1.66.04.41,0,.9.08,1.47.31.85.34,1.85,1.02,2.68,2.05.83,1.03,1.49,2.36,1.8,4.01v-.02s6.12-1.13,6.12-1.13l-6.14,1.05v.08s6.14-1.13,6.14-1.13l-6.14,1.05s.03.2.08.47c.35,2.25,1.54,10.15,3.43,22.81,14.18,95.02,68.26,460.59,118.79,802.38,25.27,170.9,49.65,335.85,67.71,458.08,18.06,122.23,29.81,201.74,29.81,201.74l11.87-1.75-2.54-11.73-604.55,131,2.54,11.73v-12,12ZM1437.36,482.09v-12c-1.1,0-1.96.11-2.7.23-1.28.22-2.2.49-2.98.72-1.14.35-1.97.65-2.35.76-.09.03-.15.05-.16.05h0s1.06,3.98,1.06,3.98l-.7-4.06c-.26.05-.36.07-.36.07l1.06,3.98-.7-4.06,1.43,8.33v-8.45c-.74,0-1.16.07-1.43.11l1.43,8.33v-8.45c-.49,0-.82.02-1.11.05-.55.05-.9.1-1.22.15-.6.1-1.07.2-1.57.31-.93.21-1.97.47-3.23.81-2.19.58-5.03,1.38-8.53,2.4-10.49,3.04-26.92,8.04-47.8,14.58l3.59,11.45,11.34-3.92c-9.1-26.3-19.97-52.21-33.03-76.37-9.79-18.12-20.82-35.28-33.28-50.86-18.69-23.37-40.66-43.26-66.49-57.32-12.91-7.03-26.77-12.58-41.58-16.36-14.8-3.78-30.54-5.79-47.17-5.79h-9.66v12l9.37-7.5c-17.15-21.42-36.18-37.12-55.75-47.47-19.56-10.35-39.67-15.34-58.78-15.34-33.77,0-65.48,5.28-95.02,14.87-25.86,8.38-50.06,20.05-72.64,34.28-39.52,24.91-74.05,57.63-104.14,94.55-45.12,55.4-80.28,120.28-107.07,183.27-26.77,62.99-45.14,124.09-56.38,172.03l11.68,2.74-3.54-11.47c-50.12,15.45-93.32,28.82-125.07,38.75-15.88,4.96-28.89,9.06-38.49,12.13-4.8,1.54-8.75,2.82-11.8,3.83-1.53.51-2.83.94-3.92,1.32-1.1.38-1.95.68-2.73.98l4.33,11.19-3.59-11.45c-14.2,4.46-25.12,7.92-34.16,11.75-3.39,1.44-6.53,2.94-9.46,4.61-2.56,1.46-4.97,3.05-7.22,4.83-3.93,3.1-7.31,6.85-9.93,11.08-1.97,3.17-3.52,6.57-4.77,10.15-1.88,5.38-3.13,11.16-4.23,17.74-1.09,6.59-2.01,14-3.05,22.67l11.91,1.43-11.84-1.96c-.24,1.44-.57,3.72-1.05,7.06-1.82,12.85-5.56,40.71-10.72,79.74-36.13,273.11-141.87,1092.05-141.88,1092.06l-1.45,11.24,1161.37,217.99,78.13-1787.25-11.99-.52,5.37,10.73h0s45.47-22.73,45.47-22.73h-50.83v12l-5.37-10.73h0s-6.31,3.16-6.31,3.16l-77.23,1766.66-1123.04-210.8-2.21,11.79,11.9,1.54s.57-4.45,1.65-12.81c8.1-62.68,44.58-345.02,79.78-616.23,17.6-135.6,34.89-268.41,48.15-369.59,6.63-50.59,12.25-93.26,16.4-124.41,2.08-15.57,3.78-28.27,5.06-37.62.64-4.67,1.17-8.51,1.59-11.45.42-2.92.72-4.99.88-5.9l.04-.27.03-.27c1.58-13.32,2.88-23.17,4.56-30.05.62-2.58,1.29-4.73,1.99-6.52.61-1.57,1.25-2.86,1.93-3.98,1.19-1.95,2.47-3.42,4.39-4.99,1.44-1.17,3.28-2.38,5.68-3.65,3.59-1.9,8.43-3.91,14.66-6.11,6.23-2.21,13.83-4.62,22.95-7.48l.37-.12.36-.14c.27-.11.97-.36,1.91-.68,1.78-.62,4.5-1.52,8.01-2.66,12.31-4,34.43-10.96,63.69-20.07,29.27-9.11,65.72-20.38,106.81-33.05l6.58-2.03,1.57-6.7c9.53-40.67,24.43-91.37,45.37-144.38,15.71-39.76,34.82-80.83,57.6-119.96,17.08-29.35,36.21-57.61,57.48-83.43,31.9-38.75,68.58-71.96,110.27-95.42,20.85-11.73,42.96-21.04,66.43-27.42,23.48-6.38,48.33-9.85,74.72-9.85,14.93,0,31.17,3.89,47.56,12.55,16.38,8.66,32.91,22.12,48.23,41.26l3.6,4.5h15.43c26.15.01,49.09,5.55,69.67,15.35,15.43,7.36,29.53,17.15,42.48,28.96,19.41,17.7,36.19,39.97,50.55,65,14.36,25.02,26.3,52.77,36.16,81.25l3.81,11.01,11.12-3.48c17.71-5.55,32.18-9.97,42.39-12.99,5.1-1.51,9.15-2.67,11.93-3.42,1.38-.38,2.46-.65,3.1-.8.16-.04.29-.07.38-.09l.13-.03h0s-1.01-5.4-1.01-5.4l.72,5.44c.2-.03.27-.04.29-.04l-1.01-5.4.72,5.44-1.22-9.26.78,9.31c.21-.02.34-.03.45-.05l-1.22-9.26.78,9.31-.9-10.79v10.82c.42,0,.69-.02.9-.04l-.9-10.79v10.82c1.19,0,2.07-.13,2.8-.26,1.26-.24,2.11-.5,2.83-.72,1.05-.34,1.8-.6,2.14-.7l.15-.04h0s-.88-3.51-.88-3.51l.56,3.57c.23-.04.31-.06.32-.06l-.88-3.51.56,3.57-1.19-7.6v7.69c.6,0,.96-.05,1.19-.09l-1.19-7.6v7.69s0-12,0-12l-5.37-10.73,5.37,10.73ZM1141.32,561.19h-12v11.46h12l-3.55-11.46c-62.75,19.42-132.29,40.43-200.31,61.45l3.54,11.46,11.61,3.04c19.1-73.02,46.33-126.9,76.09-165.69,29.77-38.79,62.08-62.54,91.58-75.43l-4.8-11-11.18,4.35c7.83,20.1,14.09,43.89,18.39,72.26,4.3,28.36,6.63,61.28,6.63,99.55h24c0-39.25-2.39-73.34-6.9-103.15-4.52-29.81-11.18-55.33-19.75-77.37l-4.53-11.64-11.45,5c-33.53,14.64-69.02,41.11-101.02,82.81-32,41.71-60.49,98.61-80.27,174.22l-5.46,20.87,20.61-6.37c67.92-20.99,137.46-42,200.32-61.46l8.45-2.62v-20.31h-12ZM1037.96,314.02v12c4.5,0,8.84.62,13.26,2.04,4.42,1.42,8.94,3.66,13.73,7.14l7.05-9.71-5.1-10.86c-43.14,20.27-88,56.07-126.71,111.81-38.72,55.75-71.28,131.37-90.19,231.39l11.79,2.23-3.66-11.43c-52.54,16.81-105.29,32.96-158.24,48.45l3.37,11.52,11.52,3.35c10.81-37.21,25.43-80.24,44.1-123.73,14-32.62,30.29-65.5,48.91-96.38,13.96-23.16,29.24-45.19,45.83-65.15,24.88-29.95,52.68-55.2,83.31-72.84,15.32-8.83,31.35-15.77,48.15-20.52,16.8-4.74,34.38-7.3,52.87-7.3v-12s0-12,0-12c-24.54,0-47.85,4.04-69.76,11.41-19.18,6.44-37.29,15.41-54.34,26.38-29.84,19.2-56.44,44.48-80.14,73.29-35.54,43.23-64.62,94.44-88.07,145.76-23.44,51.31-41.22,102.73-53.9,146.39l-6.1,21.01,21-6.14c53.14-15.55,106.08-31.75,158.81-48.62l6.81-2.18,1.33-7.02c18.39-97.27,49.81-169.6,86.32-222.16,36.51-52.56,78.1-85.4,117.2-103.78l18.39-8.64-16.45-11.93c-6.67-4.84-13.55-8.33-20.48-10.56-6.93-2.23-13.88-3.19-20.61-3.19v12ZM1083.12,1191.69l5.55-10.64c-.43-.22-17.95-9.34-45.83-18.46-27.89-9.11-66.15-18.28-108.24-18.29-31.57,0-56.26,4.94-75.59,13.12-14.48,6.13-25.89,14.12-34.64,22.95-6.57,6.62-11.63,13.69-15.49,20.71-5.79,10.54-8.89,20.93-10.55,29.8-1.66,8.86-1.9,16.27-1.9,20.81,0,7.78,1.29,15.32,3.65,22.48,2.21,6.72,5.35,13.1,9.17,19.19,7.18,11.42,16.75,21.87,27.84,32.05,9.71,8.91,20.61,17.61,32.26,26.45,20.38,15.46,43.07,31.34,65.59,49,16.89,13.24,33.69,27.45,49.35,43.14,23.49,23.55,44.38,50.36,59.44,82.23,15.04,31.89,24.34,68.88,24.36,113.4,0,46.83-7.38,89.17-20.82,126.32-10.08,27.86-23.56,52.81-39.93,74.57-24.56,32.64-55.59,58.15-91.62,75.58-36.03,17.42-77.11,26.78-121.79,26.78-48.07,0-90.09-7.48-126.16-18.67-54.08-16.78-94.79-41.95-121.9-62.86-13.55-10.45-23.7-19.83-30.41-26.53-3.35-3.35-5.84-6.03-7.47-7.84-.81-.9-1.41-1.59-1.78-2.03-.19-.22-.32-.38-.4-.48l-.08-.1h0s0-.01,0-.01l-3.31,2.71,3.32-2.71h0s-3.31,2.71-3.31,2.71l3.32-2.71h0s-8.34,6.82-8.34,6.82l8.36-6.81-.02-.02-8.34,6.83,8.36-6.81-9.3,7.58,11.48,3.51,53.37-174.59-11.48-3.51-7.82,9.1c.33.27,26.62,22.87,64.29,45.66,18.84,11.39,40.53,22.84,63.4,31.54,11.44,4.35,23.18,8,35.04,10.59,11.86,2.58,23.84,4.1,35.75,4.1v-12l-.48,11.99c1.23.05,2.46.07,3.69.07,11.97,0,23.48-2.37,33.99-6.68,15.77-6.47,29.32-17.27,39.13-31.01,9.81-13.73,15.88-30.45,16.61-48.54.04-1.1.07-2.21.07-3.32v-.02s0-.02,0-.02c.02-18.62-3.88-35.42-10.64-50.46-5.91-13.18-13.93-25.01-23.24-35.97-8.15-9.59-17.3-18.54-27.01-27.21-17-15.18-35.73-29.57-54.19-44.93-13.84-11.51-27.53-23.55-40.23-36.76-19.06-19.83-35.91-42.23-48.08-69.62-12.16-27.41-19.73-59.9-19.75-100.4,0-45.45,8.14-90.56,24.44-132.61,12.22-31.54,29.03-61.36,50.45-88.37,32.14-40.51,74.63-74.71,127.89-98.89,53.26-24.17,117.36-38.32,192.71-38.32,51.42,0,89.43,7.46,114.42,14.79,12.49,3.67,21.73,7.3,27.75,9.96,3.01,1.33,5.22,2.42,6.62,3.15.7.36,1.2.64,1.51.8.15.08.25.14.3.17l.04.02,1.34-2.3-1.35,2.3h0s1.34-2.3,1.34-2.3l-1.35,2.3,3.7-6.3-3.71,6.29h.01s3.7-6.29,3.7-6.29l-3.71,6.29h0s5.89-9.97,5.89-9.97l-5.9,9.96h.02s5.89-9.96,5.89-9.96l-5.9,9.96,6.12-10.32-11.33-3.95-79.43,227.84,11.33,3.95h12v-7.28l-6.45-3.36-5.55,10.64h-12v70.88l105.99-304.04-8.44-5c-.77-.46-14.58-8.52-41.67-16.47-27.08-7.95-67.43-15.77-121.18-15.76-69.64,0-130.8,11.65-183.33,32.31-39.4,15.49-73.93,36.04-103.51,60.44-44.38,36.6-77.59,81.84-99.64,131.46-22.06,49.63-33,103.64-33,157.98,0,28.86,3.62,54.47,10.03,77.36,5.61,20.03,13.35,37.95,22.57,54.11,16.13,28.3,36.71,51.17,58.14,71.08,16.08,14.93,32.65,28.23,48.33,40.93,11.76,9.52,23.02,18.71,33.2,27.94,7.64,6.92,14.67,13.86,20.89,20.96,9.33,10.65,16.79,21.61,21.93,33.46,5.13,11.87,8.02,24.65,8.04,39.51v-.04c0,.81-.02,1.62-.05,2.43-.36,8.89-2.45,17.24-5.93,24.82-5.22,11.36-13.6,20.98-23.96,27.73-10.37,6.75-22.66,10.64-35.86,10.65-.9,0-1.81-.02-2.72-.05h-.24s-.24,0-.24,0c-9.86,0-20.16-1.26-30.64-3.55-18.33-3.99-37.15-11.1-54.97-19.6-26.74-12.74-51.21-28.56-68.87-41.15-8.84-6.3-15.98-11.79-20.89-15.68-2.45-1.95-4.35-3.49-5.62-4.54-.63-.52-1.11-.93-1.42-1.19-.16-.13-.27-.23-.34-.29l-.08-.07h-.01s-1.29,1.49-1.29,1.49l1.29-1.5h0s-1.29,1.5-1.29,1.5l1.29-1.5-13.93-11.96-60.61,198.28,4.05,4.96c.61.74,26.54,32.41,77.76,64.08,25.61,15.83,57.55,31.65,95.77,43.5,38.21,11.86,82.7,19.75,133.27,19.74,42.69,0,82.8-7.97,118.89-23.15,27.07-11.38,51.88-26.81,73.82-45.9,32.91-28.62,59.33-65.45,77.46-108.97,18.13-43.52,27.99-93.72,27.98-149.24,0-31.63-4.41-60.17-12.18-85.98-6.8-22.58-16.16-43.05-27.29-61.68-19.48-32.61-44.31-59.58-70.33-82.89-19.52-17.48-39.73-32.93-58.96-47.16-14.42-10.67-28.3-20.67-40.91-30.28-9.46-7.21-18.2-14.19-25.92-21.05-11.59-10.28-20.83-20.27-26.92-29.99-3.05-4.86-5.33-9.64-6.85-14.4-1.52-4.77-2.3-9.52-2.3-14.51,0-2.18.07-5.09.39-8.56.57-6.07,1.93-13.78,5.05-21.8,2.34-6.03,5.64-12.23,10.34-18.18,3.53-4.47,7.86-8.81,13.24-12.87,8.08-6.07,18.57-11.52,32.47-15.51,13.89-3.98,31.2-6.47,52.68-6.47,38.58-.01,74.57,8.52,100.78,17.1,13.11,4.29,23.76,8.57,31.09,11.76,3.66,1.59,6.49,2.91,8.38,3.82.94.45,1.65.8,2.11,1.03.23.11.4.2.5.25l.11.05h.02s2.16-4.15,2.16-4.15l-2.16,4.15h0s2.16-4.15,2.16-4.15l-2.16,4.15,5.55-10.64h-12,12ZM1186.71,373.68l-1.38,11.92c6.23.72,12.15,2.23,17.87,4.46,9.99,3.91,19.38,10.08,28.27,18.33,6.66,6.18,13.01,13.51,19.01,21.82,9.01,12.45,17.22,27.08,24.6,43.09,7.39,16.01,13.95,33.4,19.75,51.36l11.42-3.69-3.83-11.37c-28.69,9.67-61.12,19.33-96.74,30.6l3.62,11.44h12v-21.01c0-64.05-8.21-117.15-23.23-160.86l-11.35,3.9-1.38,11.92,1.38-11.92-11.35,3.9c13.96,40.56,21.93,91.04,21.93,153.05v37.39l15.62-4.94c35.38-11.2,67.88-20.87,97.17-30.74l11.22-3.78-3.64-11.27c-6.13-18.99-13.13-37.53-21.17-54.86-6.03-13-12.66-25.32-19.98-36.64-10.98-16.97-23.54-31.75-38.19-43-7.32-5.62-15.18-10.34-23.57-13.92-8.39-3.59-17.31-6.03-26.67-7.11l-18.93-2.19,6.2,18.02,11.35-3.9Z"/>
</svg>