<?xml version="1.0" encoding="UTF-8"?>
<svg id="Layer_1" data-name="Layer 1" xmlns="http://www.w3.org/2000/svg" viewBox="0 0 540 405">
  <defs>
    <style>
      .cls-1 {
        fill: none;
        stroke: #231f20;
        stroke-miterlimit: 10;
        stroke-width: 8px;
      }
    </style>
  </defs>
  <path class="cls-1" d="M406.05,76.47c14.65,3.41,27.96,11.08,38.25,22.04,5.67,5.93,10.59,12.54,14.66,19.67.19.77-26.4,18.64-42.52,28.6-.59.4-2.91-2.13-5.54-6.02-5.99-10.29-16.84-16.79-28.74-17.21-18.53-1.27-30.48,8.43-30.39,24.66-.16,3.99.75,7.94,2.63,11.46,4.08,8.43,11.65,13.49,35.43,23.8,43.78,18.84,62.57,31.27,74.17,48.92,13.27,22.58,15.89,49.87,7.16,74.56-12.07,27.24-37.98,45.79-67.66,48.44-15.49,1.78-31.15,1.62-46.6-.48-23.67-3.89-45.47-15.25-62.22-32.42-6.33-7.13-11.69-15.06-15.93-23.59,1.79-1.33,3.67-2.52,5.63-3.58,2.72-1.55,13.01-7.47,22.71-13.1l17.62-10.32,3.68,5.37c6.2,8.87,14.1,16.43,23.23,22.23,18.81,10.32,41.83,9.15,59.51-3.01,9.23-8.99,10.68-23.31,3.44-33.97-4.75-6.8-14.45-12.51-42.04-24.47-21.63-7.29-41.33-19.38-57.63-35.36-7.76-8.85-13.49-19.28-16.8-30.58-2.44-12.87-2.8-26.05-1.07-39.03,6.63-30.6,31.68-53.8,62.71-58.06,15.42-1.84,31.03-1.36,46.31,1.45ZM262.48,101.99l.19,25.02h-79.67v226.25h-56.18V127.07H47.14v-24.57c-.21-8.42.02-16.84.69-25.23.29-.4,48.73-.59,107.47-.48l106.88.29.31,24.92Z"/>
</svg>