<?xml version="1.0" encoding="UTF-8"?>
<svg id="Layer_1" data-name="Layer 1" xmlns="http://www.w3.org/2000/svg" viewBox="0 0 800 800">
  <defs>
    <style>
      .cls-1 {
        fill: none;
        stroke: #000;
        stroke-miterlimit: 10;
        stroke-width: 12px;
      }
    </style>
  </defs>
  <path class="cls-1" d="M126.33,518.08l-53.41-246.11h56.65l16.64,100.35c4.71,28.96,8.93,59.81,12.58,86.2h.8c3.81-27.82,9.52-56.49,15.4-86.73l20.02-99.83h53.03l18.65,101.87c5.03,28.39,9.2,54.99,12.62,83.77h.77c3.59-28.85,8.15-56.77,12.91-85.93l17.54-99.72h53.63l-57.41,246.11h-56.94l-19.03-98.33c-4.65-24.11-8.44-48.75-11.58-77.31h-.73c-4.22,28.35-8.23,52.9-13.86,77.52l-21.43,98.12h-56.87Z"/>
  <path class="cls-1" d="M392.18,275.35c16.06-2.88,38.33-5.05,67.59-5.05,32.45,0,56.43,5.91,72.79,19.6,15.39,12.45,24.58,32.88,24.58,56.01,0,24.9-7.88,44.93-21.97,58.56-17.9,17.38-45.15,25.36-73.9,25.36-6.14,0-11.69-.34-16.18-.93v89.18h-52.9v-242.73ZM445.08,387.05c3.98.88,8.75,1.19,15.32,1.19,27.92,0,43.9-15.62,43.9-39.98,0-22.28-13.47-36.81-39.76-36.81-9.04,0-15.74.85-19.46,1.84v73.77Z"/>
  <path class="cls-1" d="M590.82,271.97h137.34v44.36h-84v58.48h78.63v43.54h-78.63v99.72h-53.34v-246.11Z"/>
</svg>