<?xml version="1.0" encoding="UTF-8"?>
<svg id="Layer_1" data-name="Layer 1" xmlns="http://www.w3.org/2000/svg" version="1.1" xmlns:xlink="http://www.w3.org/1999/xlink" viewBox="0 0 540 405">
  <defs>
    <style>
      .cls-1 {
        opacity: .3;
      }

      .cls-1, .cls-2, .cls-3, .cls-4, .cls-5, .cls-6, .cls-7, .cls-8, .cls-9, .cls-10, .cls-11, .cls-12, .cls-13, .cls-14, .cls-15, .cls-16, .cls-17 {
        stroke-width: 0px;
      }

      .cls-1, .cls-5 {
        fill: #bfe5ec;
      }

      .cls-1, .cls-13 {
        isolation: isolate;
      }

      .cls-18 {
        fill: url(#New_Pattern_Swatch_1-3);
        stroke: #dfe2f2;
      }

      .cls-18, .cls-19, .cls-20, .cls-21, .cls-22 {
        stroke-miterlimit: 10;
      }

      .cls-19, .cls-20 {
        stroke-width: .9px;
      }

      .cls-19, .cls-9, .cls-21, .cls-22 {
        fill: none;
      }

      .cls-19, .cls-21 {
        stroke: #fff;
      }

      .cls-2 {
        fill: #142e53;
      }

      .cls-3 {
        fill: #281616;
      }

      .cls-23 {
        opacity: .5;
      }

      .cls-4 {
        fill: #c7e5f1;
      }

      .cls-6 {
        fill: #cc6463;
      }

      .cls-7 {
        fill: #ceebef;
      }

      .cls-20, .cls-11 {
        fill: #fff;
      }

      .cls-20, .cls-22 {
        stroke: url(#New_Pattern_Swatch_1);
      }

      .cls-8 {
        fill: #85c3cc;
      }

      .cls-10 {
        fill: #e69290;
      }

      .cls-21 {
        stroke-width: .5px;
      }

      .cls-12 {
        fill: #396085;
      }

      .cls-13 {
        opacity: .5;
      }

      .cls-13, .cls-15 {
        fill: #3d5574;
      }

      .cls-14 {
        fill: #f1f4fa;
      }

      .cls-22 {
        stroke-linecap: round;
        stroke-width: 1.7px;
      }

      .cls-16 {
        fill: #54789e;
      }

      .cls-17 {
        fill: #30a5b4;
      }
    </style>
    <pattern id="New_Pattern_Swatch_1" data-name="New Pattern Swatch 1" x="0" y="0" width="32" height="39.5" patternTransform="translate(-3 -16340.5) scale(1 -1)" patternUnits="userSpaceOnUse" viewBox="0 0 32 39.5">
      <g>
        <rect class="cls-9" width="32" height="39.5"/>
        <g>
          <rect class="cls-9" width="32" height="39.5"/>
          <rect class="cls-17" width="32" height="39.5"/>
        </g>
      </g>
    </pattern>
    <pattern id="New_Pattern_Swatch_1-3" data-name="New Pattern Swatch 1-3" x="0" y="0" width="32" height="39.5" patternTransform="translate(17 -16332) scale(1 -1)" patternUnits="userSpaceOnUse" viewBox="0 0 32 39.5">
      <g>
        <rect class="cls-9" width="32" height="39.5"/>
        <g>
          <rect class="cls-9" width="32" height="39.5"/>
          <rect class="cls-17" width="32" height="39.5"/>
        </g>
      </g>
    </pattern>
  </defs>
  <path class="cls-5" d="M145,132.7h.3v-8.8c0-1.1-.9-1.9-1.9-1.9h-2.3c-.5,0-1-.3-1.1-.8-.8-3.4-2.1-6.7-4-9.6-.1-.2-.2-.4-.2-.6s.1-.6.3-.8l1.6-1.6c.4-.4.6-.9.6-1.3s-.2-1-.6-1.3l-6.2-6.2c-.4-.4-.9-.6-1.3-.6s-1,.2-1.3.6l-1.6,1.6c-.2.2-.5.3-.8.3s-.4,0-.6-.2c-2.9-1.8-6.2-3.2-9.6-4-.5-.1-.8-.6-.8-1.1v-2.3c0-1.1-.8-1.9-1.9-1.9h-8.8c-1.1,0-1.9.8-1.9,1.9v2.3c0,.5-.3,1-.8,1.1-3.4.8-6.7,2.1-9.6,4-.2.1-.4.2-.6.2s-.6-.1-.8-.3l-1.6-1.6c-.4-.4-.9-.6-1.3-.6s-1,.2-1.3.6l-6.2,6.2c-.4.4-.6.9-.6,1.3s.2,1,.6,1.3l1.6,1.6c.2.2.3.5.3.8s0,.4-.2.6c-1.8,2.9-3.2,6.2-4,9.6-.1.5-.6.8-1.1.8h-2.3c-1.1,0-1.9.8-1.9,1.9v8.8c0,1.1.8,1.9,1.9,1.9h2.3c.5,0,1,.4,1.1.8.8,3.4,2.1,6.7,4,9.6.1.2.2.4.2.6s-.1.6-.3.8l-1.6,1.6c-.4.4-.6.9-.6,1.3s.2,1,.6,1.3l6.2,6.2c.4.4.9.6,1.3.6s1-.2,1.3-.6l1.6-1.6c.2-.2.5-.3.8-.3s.4,0,.6.2c2.9,1.8,6.2,3.2,9.6,4,.5.1.8.6.8,1.1v2.3c0,1.1.8,1.9,1.9,1.9h8.8c1.1,0,1.9-.9,1.9-1.9v-2.3c0-.5.3-1,.8-1.1,3.4-.8,6.7-2.1,9.6-4,.2-.1.4-.2.6-.2s.6.1.8.3l1.6,1.6c.4.4.9.6,1.3.6s1-.2,1.3-.6l6.2-6.2c.4-.4.6-.9.6-1.3s-.2-1-.6-1.3l-1.6-1.6c-.2-.2-.3-.5-.3-.8s0-.4.2-.6c1.8-2.9,3.2-6.2,4-9.6.1-.5.6-.8,1.1-.8h2.3c1.1,0,1.9-.9,1.9-1.9h-.7c0,.7-.6,1.2-1.2,1.2h-2.3c-.8,0-1.5.6-1.7,1.4-.8,3.4-2.1,6.6-3.9,9.4-.2.3-.3.6-.3,1s.2.9.5,1.2l1.6,1.6c.2.2.4.6.4.9s-.1.6-.4.9l-6.2,6.2c-.2.2-.6.4-.9.4s-.6-.1-.9-.4l-1.6-1.6c-.3-.3-.8-.5-1.2-.5s-.7,0-1,.3c-2.9,1.8-6,3.1-9.4,3.9-.8.2-1.4.9-1.4,1.7v2.3c0,.7-.6,1.2-1.2,1.2h-8.8c-.7,0-1.2-.6-1.2-1.2v-2.3c0-.8-.6-1.5-1.4-1.7-3.4-.8-6.6-2.1-9.4-3.9-.3-.2-.6-.3-1-.3s-.9.2-1.2.5l-1.6,1.6c-.2.2-.6.4-.9.4s-.6-.1-.9-.4l-6.2-6.2c-.2-.2-.4-.6-.4-.9s.1-.6.4-.9l1.6-1.6c.3-.3.5-.8.5-1.2s0-.7-.3-1c-1.8-2.9-3.1-6-3.9-9.4-.2-.8-.9-1.4-1.7-1.4h-2.3c-.7,0-1.2-.6-1.2-1.2v-8.8c0-.7.6-1.2,1.2-1.2h2.3c.8,0,1.5-.6,1.7-1.4.8-3.4,2.1-6.6,3.9-9.4.2-.3.3-.6.3-1s-.2-.9-.5-1.2l-1.6-1.6c-.2-.2-.4-.6-.4-.9s.1-.6.4-.9l6.2-6.2c.2-.2.6-.4.9-.4s.6.1.9.4l1.6,1.6c.3.3.8.5,1.2.5s.7,0,1-.3c2.9-1.8,6-3.1,9.4-3.9.8-.2,1.4-.9,1.4-1.7v-2.3c0-.7.6-1.2,1.2-1.2h8.8c.7,0,1.2.6,1.2,1.2v2.3c0,.8.6,1.5,1.4,1.7,3.4.8,6.6,2.1,9.4,3.9.3.2.6.3,1,.3s.9-.2,1.2-.5l1.6-1.6c.2-.2.6-.4.9-.4s.6.1.9.4l6.2,6.2c.2.2.4.6.4.9s-.1.6-.4.9l-1.6,1.6c-.3.3-.5.8-.5,1.2s0,.7.3,1c1.8,2.9,3.1,6,3.9,9.4.2.8.9,1.4,1.7,1.4h2.3c.7,0,1.2.6,1.2,1.2v8.8h.3,0ZM109.2,153.1v-.3c-6.8,0-12.9-2.7-17.3-7.2-4.4-4.4-7.2-10.5-7.2-17.3s2.7-12.8,7.2-17.3c4.4-4.4,10.5-7.2,17.3-7.2s12.9,2.7,17.3,7.2c4.4,4.4,7.2,10.5,7.2,17.3s-2.7,12.9-7.2,17.3c-4.4,4.4-10.5,7.2-17.3,7.2v.7c13.9,0,25.1-11.3,25.1-25.1s-11.2-25.1-25.1-25.1-25.1,11.3-25.1,25.1,11.2,25.1,25.1,25.1v-.3Z"/>
  <path class="cls-5" d="M185.4,162.4v-6c0-.6-.5-1.1-1.1-1.1h-1.5c-.4,0-.9-.3-.9-.8-.5-2.3-1.4-4.5-2.7-6.5-.2-.4-.2-.9.1-1.2l1.1-1.1c.4-.4.4-1.1,0-1.5l-4.2-4.2c-.4-.4-1.1-.4-1.5,0l-1.1,1.1c-.3.3-.8.4-1.2.1-2-1.2-4.1-2.1-6.5-2.7-.4-.1-.8-.5-.8-.9v-1.5c0-.6-.5-1.1-1.1-1.1h-6c-.6,0-1.1.5-1.1,1.1v1.5c0,.4-.3.9-.8.9-2.3.5-4.5,1.4-6.5,2.7-.4.2-.9.2-1.2-.1l-1.1-1.1c-.4-.4-1.1-.4-1.5,0l-4.2,4.2c-.4.4-.4,1.1,0,1.5l1.1,1.1c.3.3.4.8.1,1.2-1.2,2-2.1,4.1-2.7,6.5-.1.4-.5.8-.9.8h-1.5c-.6,0-1.1.5-1.1,1.1v6c0,.6.5,1.1,1.1,1.1h1.5c.4,0,.9.3.9.8.5,2.3,1.4,4.5,2.7,6.5.2.4.2.9-.1,1.2l-1.1,1.1c-.4.4-.4,1.1,0,1.5l4.2,4.2c.4.4,1.1.4,1.5,0l1.1-1.1c.3-.3.8-.4,1.2-.1,2,1.2,4.1,2.1,6.5,2.7.4.1.8.5.8.9v1.6c0,.6.5,1.1,1.1,1.1h6c.6,0,1.1-.5,1.1-1.1v-1.6c0-.4.3-.9.8-.9,2.3-.5,4.5-1.4,6.5-2.7.4-.2.9-.2,1.2.1l1.1,1.1c.4.4,1.1.4,1.5,0l4.2-4.2c.4-.4.4-1.1,0-1.5l-1.1-1.1c-.3-.3-.4-.8-.1-1.2,1.2-2,2.1-4.1,2.7-6.5.1-.4.5-.8.9-.8h1.5c.6,0,1.1-.5,1.1-1.1ZM161.1,175.4c-8.8,0-15.9-7.1-15.9-15.9s7.1-15.9,15.9-15.9,15.9,7.1,15.9,15.9-7.1,15.9-15.9,15.9Z"/>
  <circle class="cls-5" cx="346.4" cy="99.8" r="1.8"/>
  <path class="cls-5" d="M83.9,75.6c0,1-.8,1.8-1.8,1.8s-1.8-.8-1.8-1.8.8-1.8,1.8-1.8,1.8.8,1.8,1.8Z"/>
  <path class="cls-5" d="M124.3,187.8c0,1-.8,1.8-1.8,1.8s-1.8-.8-1.8-1.8.8-1.8,1.8-1.8,1.8.8,1.8,1.8Z"/>
  <circle class="cls-5" cx="414" cy="320" r="2.9"/>
  <circle class="cls-5" cx="475.8" cy="320" r="2.9"/>
  <circle class="cls-5" cx="134" cy="67.6" r="2.9"/>
  <path class="cls-5" d="M329.3,199.8c0,2.1-1.7,3.9-3.9,3.9s-3.9-1.7-3.9-3.9,1.7-3.9,3.9-3.9,3.9,1.7,3.9,3.9Z"/>
  <rect class="cls-11" x="31.3" y="87.7" width="6" height="6" rx=".7" ry=".7"/>
  <rect class="cls-11" x="39.4" y="87.7" width="6" height="6" rx=".7" ry=".7"/>
  <rect class="cls-11" x="47.5" y="87.7" width="6" height="6" rx=".7" ry=".7"/>
  <rect class="cls-8" x="436.9" y="299.4" width="6" height="6" rx=".7" ry=".7"/>
  <rect class="cls-8" x="444.9" y="299.4" width="6" height="6" rx=".7" ry=".7"/>
  <rect class="cls-8" x="453" y="299.4" width="6" height="6" rx=".7" ry=".7"/>
  <rect class="cls-17" x="153.6" y="58.9" width="152.7" height="295.1" rx="21.3" ry="21.3"/>
  <rect class="cls-11" x="156.5" y="61.5" width="147" height="288.3" rx="18.7" ry="18.7"/>
  <path class="cls-5" d="M297.1,77v255.9c0,6-4.9,10.9-10.9,10.9h-112.4c-6,0-10.9-4.9-10.9-10.9V77c0-6,4.9-10.9,10.9-10.9h18.8c1,0,2,.6,2.5,1.5l2,4c.9,1.8,2.8,3,4.8,3h56.4c2,0,3.9-1.2,4.8-3l2-4c.5-.9,1.4-1.5,2.5-1.5h18.8c6,0,10.9,4.9,10.9,10.9h0Z"/>
  <path class="cls-5" d="M253.7,70h-45.4c-1.1,0-1.9-.9-1.9-1.9h0c0-1.1.9-1.9,1.9-1.9h45.4c1.1,0,1.9.9,1.9,1.9h0c0,1.1-.9,1.9-1.9,1.9Z"/>
  <path class="cls-8" d="M276.2,211.1c-.6.3-1.3.5-2,.5h-2.4c-.2,0-.4.2-.4.4s.2.4.4.4h2.4c.9,0,1.7-.2,2.4-.5.2-.1.3-.4.2-.6-.1-.2-.4-.3-.6-.2h0ZM278.8,207.8c-.1.8-.5,1.4-.9,2-.1.2-.1.5,0,.6.2.1.5.1.6,0,.5-.7.9-1.5,1.1-2.4,0-.2-.1-.5-.3-.5s-.5.1-.5.3h0ZM278.9,203v2.4c0,.2.2.4.4.4s.4-.2.4-.4v-2.4c0-.2-.2-.4-.4-.4s-.4.2-.4.4ZM278.9,198.1v2.4c0,.2.2.4.4.4s.4-.2.4-.4v-2.4c0-.2-.2-.4-.4-.4s-.4.2-.4.4ZM278.9,193.2v2.4c0,.2.2.4.4.4s.4-.2.4-.4v-2.4c0-.2-.2-.4-.4-.4s-.4.2-.4.4ZM278.9,188.4v2.4c0,.2.2.4.4.4s.4-.2.4-.4v-2.4c0-.2-.2-.4-.4-.4s-.4.2-.4.4ZM278.9,183.5v2.4c0,.2.2.4.4.4s.4-.2.4-.4v-2.4c0-.2-.2-.4-.4-.4s-.4.2-.4.4ZM277.9,179.1c.5.6.8,1.3.9,2,0,.2.3.4.5.3.2,0,.4-.3.3-.5-.2-.9-.5-1.7-1.1-2.4-.1-.2-.4-.2-.6,0-.2.1-.2.4,0,.6h0ZM274,177.3h.2c.7,0,1.4.2,2,.4.2.1.5,0,.6-.2s0-.5-.2-.6c-.7-.3-1.5-.5-2.4-.5h-.2c-.2,0-.4.2-.4.4s.2.4.4.4h0ZM269.1,177.3h2.4c.2,0,.4-.2.4-.4s-.2-.4-.4-.4h-2.4c-.2,0-.4.2-.4.4s.2.4.4.4ZM264.2,177.3h2.4c.2,0,.4-.2.4-.4s-.2-.4-.4-.4h-2.4c-.2,0-.4.2-.4.4s.2.4.4.4ZM259.4,177.3h2.4c.2,0,.4-.2.4-.4s-.2-.4-.4-.4h-2.4c-.2,0-.4.2-.4.4s.2.4.4.4ZM254.5,177.3h2.4c.2,0,.4-.2.4-.4s-.2-.4-.4-.4h-2.4c-.2,0-.4.2-.4.4s.2.4.4.4h0ZM249.6,177.3h2.4c.2,0,.4-.2.4-.4s-.2-.4-.4-.4h-2.4c-.2,0-.4.2-.4.4s.2.4.4.4ZM244.7,177.3h2.4c.2,0,.4-.2.4-.4s-.2-.4-.4-.4h-2.4c-.2,0-.4.2-.4.4s.2.4.4.4ZM239.9,177.3h2.4c.2,0,.4-.2.4-.4s-.2-.4-.4-.4h-2.4c-.2,0-.4.2-.4.4s.2.4.4.4ZM235,177.3h2.4c.2,0,.4-.2.4-.4s-.2-.4-.4-.4h-2.4c-.2,0-.4.2-.4.4s.2.4.4.4ZM230.1,177.3h2.4c.2,0,.4-.2.4-.4s-.2-.4-.4-.4h-2.4c-.2,0-.4.2-.4.4s.2.4.4.4ZM225.3,177.3h2.4c.2,0,.4-.2.4-.4s-.2-.4-.4-.4h-2.4c-.2,0-.4.2-.4.4s.2.4.4.4ZM220.9,178.4c.6-.5,1.2-.8,2-1,.2,0,.4-.3.3-.5,0-.2-.3-.4-.5-.3-.9.2-1.7.6-2.3,1.1-.2.1-.2.4,0,.6.1.2.4.2.6,0h0ZM219.2,182.4v-.3c0-.7.1-1.3.4-1.9,0-.2,0-.5-.2-.6s-.5,0-.6.2c-.3.7-.5,1.4-.5,2.2v.3c0,.2.2.4.4.4s.4-.2.4-.4h0ZM219.2,187.2v-2.4c0-.2-.2-.4-.4-.4s-.4.2-.4.4v2.4c0,.2.2.4.4.4s.4-.2.4-.4ZM219.2,192.1v-2.4c0-.2-.2-.4-.4-.4s-.4.2-.4.4v2.4c0,.2.2.4.4.4s.4-.2.4-.4ZM219.2,197v-2.4c0-.2-.2-.4-.4-.4s-.4.2-.4.4v2.4c0,.2.2.4.4.4s.4-.2.4-.4ZM219.2,201.9v-2.4c0-.2-.2-.4-.4-.4s-.4.2-.4.4v2.4c0,.2.2.4.4.4s.4-.2.4-.4ZM219.2,206.7v-2.4c0-.2-.2-.4-.4-.4s-.4.2-.4.4v2.4c0,.2.2.4.4.4s.4-.2.4-.4ZM221.1,210.6c-.6-.5-1.1-1.1-1.4-1.7-.1-.2-.4-.3-.6-.2-.2.1-.3.4-.2.6.4.8.9,1.5,1.6,2,.2.1.5.1.6,0,.1-.2.1-.5,0-.6ZM225.4,211.6h-1.4c-.3,0-.6,0-.9,0-.2,0-.5.1-.5.3s.1.5.3.5c.3,0,.7.1,1.1.1h1.4c.2,0,.4-.2.4-.4s-.2-.4-.4-.4h0ZM230.3,211.6h-2.4c-.2,0-.4.2-.4.4s.2.4.4.4h2.4c.2,0,.4-.2.4-.4s-.2-.4-.4-.4ZM235.2,211.6h-2.4c-.2,0-.4.2-.4.4s.2.4.4.4h2.4c.2,0,.4-.2.4-.4s-.2-.4-.4-.4ZM240,211.6h-2.4c-.2,0-.4.2-.4.4s.2.4.4.4h2.4c.2,0,.4-.2.4-.4s-.2-.4-.4-.4ZM244.9,211.6h-2.4c-.2,0-.4.2-.4.4s.2.4.4.4h2.4c.2,0,.4-.2.4-.4s-.2-.4-.4-.4ZM249.8,211.6h-2.4c-.2,0-.4.2-.4.4s.2.4.4.4h2.4c.2,0,.4-.2.4-.4s-.2-.4-.4-.4ZM254.6,211.6h-2.4c-.2,0-.4.2-.4.4s.2.4.4.4h2.4c.2,0,.4-.2.4-.4s-.2-.4-.4-.4ZM259.5,211.6h-2.4c-.2,0-.4.2-.4.4s.2.4.4.4h2.4c.2,0,.4-.2.4-.4s-.2-.4-.4-.4ZM264.4,211.6h-2.4c-.2,0-.4.2-.4.4s.2.4.4.4h2.4c.2,0,.4-.2.4-.4s-.2-.4-.4-.4ZM269.3,211.6h-2.4c-.2,0-.4.2-.4.4s.2.4.4.4h2.4c.2,0,.4-.2.4-.4s-.2-.4-.4-.4Z"/>
  <rect class="cls-13" x="175.2" y="220.5" width="115.9" height="56" rx="7.2" ry="7.2"/>
  <path class="cls-8" d="M286.4,222.1v43.7c0,3.4-2.8,6.2-6.2,6.2h-103.1c-3.4,0-6.2-2.8-6.2-6.2v-43.7c0-3.4,2.8-6.2,6.2-6.2h103.1c3.4,0,6.2,2.8,6.2,6.2Z"/>
  <rect class="cls-11" x="176.3" y="228.7" width="38.7" height="38.7" rx="4.9" ry="4.9"/>
  <g>
    <path class="cls-5" d="M246.9,233.6h-26.8c-.7,0-1.3-.6-1.3-1.3h0c0-.7.6-1.3,1.3-1.3h26.8c.7,0,1.3.6,1.3,1.3h0c0,.7-.6,1.3-1.3,1.3Z"/>
    <path class="cls-5" d="M234.7,238.9h-14.6c-.7,0-1.3-.6-1.3-1.3h0c0-.7.6-1.3,1.3-1.3h14.6c.7,0,1.3.6,1.3,1.3h0c0,.7-.6,1.3-1.3,1.3Z"/>
    <path class="cls-5" d="M279.4,238.9h-39.4c-.7,0-1.3-.6-1.3-1.3h0c0-.7.6-1.3,1.3-1.3h39.4c.7,0,1.3.6,1.3,1.3h0c0,.7-.6,1.3-1.3,1.3Z"/>
    <path class="cls-5" d="M242.6,244.1h-22.5c-.7,0-1.3-.6-1.3-1.3h0c0-.7.6-1.3,1.3-1.3h22.5c.7,0,1.3.6,1.3,1.3h0c0,.7-.6,1.3-1.3,1.3Z"/>
    <path class="cls-5" d="M261.8,244.1h-14.2c-.7,0-1.3-.6-1.3-1.3h0c0-.7.6-1.3,1.3-1.3h14.2c.7,0,1.3.6,1.3,1.3h0c0,.7-.6,1.3-1.3,1.3Z"/>
    <path class="cls-5" d="M279.4,244.1h-13c-.7,0-1.3-.6-1.3-1.3h0c0-.7.6-1.3,1.3-1.3h13c.7,0,1.3.6,1.3,1.3h0c0,.7-.6,1.3-1.3,1.3Z"/>
    <path class="cls-5" d="M279.4,249.4h-59.3c-.7,0-1.3-.6-1.3-1.3h0c0-.7.6-1.3,1.3-1.3h59.3c.7,0,1.3.6,1.3,1.3h0c0,.7-.6,1.3-1.3,1.3Z"/>
    <path class="cls-5" d="M252.8,254.6h-32.7c-.7,0-1.3-.6-1.3-1.3h0c0-.7.6-1.3,1.3-1.3h32.6c.7,0,1.3.6,1.3,1.3h0c0,.7-.6,1.3-1.3,1.3h0Z"/>
    <path class="cls-5" d="M279.4,254.6h-21.4c-.7,0-1.3-.6-1.3-1.3h0c0-.7.6-1.3,1.3-1.3h21.4c.7,0,1.3.6,1.3,1.3h0c0,.7-.6,1.3-1.3,1.3Z"/>
    <path class="cls-5" d="M239.3,259.9h-19.2c-.7,0-1.3-.6-1.3-1.3h0c0-.7.6-1.3,1.3-1.3h19.2c.7,0,1.3.6,1.3,1.3h0c0,.7-.6,1.3-1.3,1.3h0Z"/>
    <path class="cls-5" d="M263.7,259.9h-19.2c-.7,0-1.3-.6-1.3-1.3h0c0-.7.6-1.3,1.3-1.3h19.2c.7,0,1.3.6,1.3,1.3h0c0,.7-.6,1.3-1.3,1.3Z"/>
    <path class="cls-5" d="M279.4,259.9h-11.1c-.7,0-1.3-.6-1.3-1.3h0c0-.7.6-1.3,1.3-1.3h11.1c.7,0,1.3.6,1.3,1.3h0c0,.7-.6,1.3-1.3,1.3Z"/>
    <path class="cls-5" d="M246.9,265.1h-26.8c-.7,0-1.3-.6-1.3-1.3h0c0-.7.6-1.3,1.3-1.3h26.8c.7,0,1.3.6,1.3,1.3h0c0,.7-.6,1.3-1.3,1.3Z"/>
    <path class="cls-5" d="M279.4,233.6h-26.8c-.7,0-1.3-.6-1.3-1.3h0c0-.7.6-1.3,1.3-1.3h26.8c.7,0,1.3.6,1.3,1.3h0c0,.7-.6,1.3-1.3,1.3Z"/>
  </g>
  <g>
    <path class="cls-16" d="M286.4,222.1v1.8h-115.5v-1.8c0-3.4,2.8-6.2,6.2-6.2h103.1c3.4,0,6.2,2.8,6.2,6.2h0Z"/>
    <g>
      <path class="cls-16" d="M264.7,220.1c0,.8-.6,1.4-1.4,1.4s-1.4-.6-1.4-1.4.6-1.4,1.4-1.4,1.4.6,1.4,1.4Z"/>
      <path class="cls-16" d="M272,220.1c0,.8-.6,1.4-1.4,1.4s-1.4-.6-1.4-1.4.6-1.4,1.4-1.4,1.4.6,1.4,1.4Z"/>
      <path class="cls-16" d="M279.3,220.1c0,.8-.6,1.4-1.4,1.4s-1.4-.6-1.4-1.4.6-1.4,1.4-1.4,1.4.6,1.4,1.4Z"/>
    </g>
  </g>
  <g>
    <path class="cls-8" d="M281.3,334.1c-.7.2-1.4.3-2.1.3h-2.4c-.2,0-.4.2-.4.4s.2.4.4.4h2.4c.8,0,1.6-.1,2.4-.4.2,0,.4-.3.3-.5s-.3-.4-.5-.3h0ZM284.9,331.4c-.4.6-1,1.2-1.5,1.7-.2.1-.2.4,0,.6s.4.2.6,0c.7-.5,1.3-1.2,1.8-1.9.1-.2,0-.5-.1-.6-.2-.1-.5,0-.6.1h0ZM286,327v.7c0,.6,0,1.1-.2,1.6,0,.2,0,.5.3.5s.5,0,.5-.3c.1-.6.2-1.2.2-1.8v-.7c0-.2-.2-.4-.4-.4s-.4.2-.4.4h0ZM286,322.1v2.4c0,.2.2.4.4.4s.4-.2.4-.4v-2.4c0-.2-.2-.4-.4-.4s-.4.2-.4.4ZM286,317.3v2.4c0,.2.2.4.4.4s.4-.2.4-.4v-2.4c0-.2-.2-.4-.4-.4s-.4.2-.4.4ZM286,312.4v2.4c0,.2.2.4.4.4s.4-.2.4-.4v-2.4c0-.2-.2-.4-.4-.4s-.4.2-.4.4ZM286,307.5v2.4c0,.2.2.4.4.4s.4-.2.4-.4v-2.4c0-.2-.2-.4-.4-.4s-.4.2-.4.4ZM286,302.7v2.4c0,.2.2.4.4.4s.4-.2.4-.4v-2.4c0-.2-.2-.4-.4-.4s-.4.2-.4.4ZM286,297.8v2.4c0,.2.2.4.4.4s.4-.2.4-.4v-2.4c0-.2-.2-.4-.4-.4s-.4.2-.4.4ZM286,292.9v2.4c0,.2.2.4.4.4s.4-.2.4-.4v-2.4c0-.2-.2-.4-.4-.4s-.4.2-.4.4ZM285,288.5c.4.6.7,1.4.9,2.1,0,.2.3.4.5.3.2,0,.4-.3.3-.5-.2-.9-.5-1.7-1-2.4-.1-.2-.4-.3-.6-.1-.2.1-.3.4-.1.6h0ZM281.5,285.7c.7.3,1.4.6,2,1.1.2.1.5.1.6,0s.1-.5,0-.6c-.7-.5-1.4-1-2.2-1.3-.2,0-.5,0-.5.3s0,.5.3.5h0ZM276.9,285.3h2.4c.2,0,.4-.2.4-.4s-.2-.4-.4-.4h-2.4c-.2,0-.4.2-.4.4s.2.4.4.4h0ZM272,285.3h2.4c.2,0,.4-.2.4-.4s-.2-.4-.4-.4h-2.4c-.2,0-.4.2-.4.4s.2.4.4.4ZM267.1,285.3h2.4c.2,0,.4-.2.4-.4s-.2-.4-.4-.4h-2.4c-.2,0-.4.2-.4.4s.2.4.4.4ZM262.2,285.3h2.4c.2,0,.4-.2.4-.4s-.2-.4-.4-.4h-2.4c-.2,0-.4.2-.4.4s.2.4.4.4ZM257.4,285.3h2.4c.2,0,.4-.2.4-.4s-.2-.4-.4-.4h-2.4c-.2,0-.4.2-.4.4s.2.4.4.4ZM252.5,285.3h2.4c.2,0,.4-.2.4-.4s-.2-.4-.4-.4h-2.4c-.2,0-.4.2-.4.4s.2.4.4.4ZM247.6,285.3h2.4c.2,0,.4-.2.4-.4s-.2-.4-.4-.4h-2.4c-.2,0-.4.2-.4.4s.2.4.4.4ZM242.8,285.3h2.4c.2,0,.4-.2.4-.4s-.2-.4-.4-.4h-2.4c-.2,0-.4.2-.4.4s.2.4.4.4ZM237.9,285.3h2.4c.2,0,.4-.2.4-.4s-.2-.4-.4-.4h-2.4c-.2,0-.4.2-.4.4s.2.4.4.4ZM233,285.3h2.4c.2,0,.4-.2.4-.4s-.2-.4-.4-.4h-2.4c-.2,0-.4.2-.4.4s.2.4.4.4ZM228.2,285.3h2.4c.2,0,.4-.2.4-.4s-.2-.4-.4-.4h-2.4c-.2,0-.4.2-.4.4s.2.4.4.4ZM223.3,285.3h2.4c.2,0,.4-.2.4-.4s-.2-.4-.4-.4h-2.4c-.2,0-.4.2-.4.4s.2.4.4.4ZM218.4,285.3h2.4c.2,0,.4-.2.4-.4s-.2-.4-.4-.4h-2.4c-.2,0-.4.2-.4.4s.2.4.4.4ZM213.6,285.3h2.4c.2,0,.4-.2.4-.4s-.2-.4-.4-.4h-2.4c-.2,0-.4.2-.4.4s.2.4.4.4ZM208.7,285.3h2.4c.2,0,.4-.2.4-.4s-.2-.4-.4-.4h-2.4c-.2,0-.4.2-.4.4s.2.4.4.4ZM203.8,285.3h2.4c.2,0,.4-.2.4-.4s-.2-.4-.4-.4h-2.4c-.2,0-.4.2-.4.4s.2.4.4.4ZM198.9,285.3h2.4c.2,0,.4-.2.4-.4s-.2-.4-.4-.4h-2.4c-.2,0-.4.2-.4.4s.2.4.4.4ZM194.1,285.3h2.4c.2,0,.4-.2.4-.4s-.2-.4-.4-.4h-2.4c-.2,0-.4.2-.4.4s.2.4.4.4ZM189.2,285.3h2.4c.2,0,.4-.2.4-.4s-.2-.4-.4-.4h-2.4c-.2,0-.4.2-.4.4s.2.4.4.4ZM184.4,285.3h2.4c.2,0,.4-.2.4-.4s-.2-.4-.4-.4h-2.4c-.2,0-.4.2-.4.4s.2.4.4.4ZM179.5,285.3h2.4c.2,0,.4-.2.4-.4s-.2-.4-.4-.4h-2.4c-.2,0-.4.2-.4.4s.2.4.4.4ZM175,286.1c.7-.4,1.4-.6,2.2-.7.2,0,.4-.3.4-.5,0-.2-.3-.4-.5-.4-.9.1-1.7.4-2.4.8-.2.1-.3.4-.2.6.1.2.4.3.6.2h0ZM171.9,289.4c.3-.7.7-1.4,1.2-1.9.2-.2.1-.5,0-.6-.2-.2-.4-.1-.6,0-.6.6-1,1.4-1.4,2.2,0,.2,0,.5.2.6s.5,0,.6-.2h0ZM171.4,294v-2c0-.1,0-.3,0-.4,0-.2-.2-.4-.4-.5-.2,0-.4.2-.4.4,0,.1,0,.3,0,.5v2c0,.2.2.4.4.4s.4-.2.4-.4h0ZM171.4,298.9v-2.4c0-.2-.2-.4-.4-.4s-.4.2-.4.4v2.4c0,.2.2.4.4.4s.4-.2.4-.4ZM171.4,303.8v-2.4c0-.2-.2-.4-.4-.4s-.4.2-.4.4v2.4c0,.2.2.4.4.4s.4-.2.4-.4ZM171.4,308.6v-2.4c0-.2-.2-.4-.4-.4s-.4.2-.4.4v2.4c0,.2.2.4.4.4s.4-.2.4-.4ZM171.4,313.5v-2.4c0-.2-.2-.4-.4-.4s-.4.2-.4.4v2.4c0,.2.2.4.4.4s.4-.2.4-.4ZM171.4,318.4v-2.4c0-.2-.2-.4-.4-.4s-.4.2-.4.4v2.4c0,.2.2.4.4.4s.4-.2.4-.4ZM171.4,323.2v-2.4c0-.2-.2-.4-.4-.4s-.4.2-.4.4v2.4c0,.2.2.4.4.4s.4-.2.4-.4ZM171.4,328.1v-2.4c0-.2-.2-.4-.4-.4s-.4.2-.4.4v2c0,.1,0,.3,0,.4,0,.2.2.4.4.4.2,0,.4-.2.4-.5h0ZM173.1,332.2c-.5-.6-.9-1.2-1.2-1.9,0-.2-.3-.3-.6-.2s-.3.3-.2.6c.3.8.8,1.5,1.4,2.2.2.2.4.2.6,0,.2-.2.2-.4,0-.6h0ZM177.1,334.4c-.8-.1-1.5-.4-2.1-.7-.2-.1-.5,0-.6.2-.1.2,0,.5.2.6.7.4,1.6.7,2.4.8.2,0,.4-.1.5-.4,0-.2-.1-.5-.4-.5h0ZM181.9,334.5h-2.4c-.2,0-.4.2-.4.4s.2.4.4.4h2.4c.2,0,.4-.2.4-.4s-.2-.4-.4-.4ZM186.7,334.5h-2.4c-.2,0-.4.2-.4.4s.2.4.4.4h2.4c.2,0,.4-.2.4-.4s-.2-.4-.4-.4ZM191.6,334.5h-2.4c-.2,0-.4.2-.4.4s.2.4.4.4h2.4c.2,0,.4-.2.4-.4s-.2-.4-.4-.4ZM196.5,334.5h-2.4c-.2,0-.4.2-.4.4s.2.4.4.4h2.4c.2,0,.4-.2.4-.4s-.2-.4-.4-.4ZM201.4,334.5h-2.4c-.2,0-.4.2-.4.4s.2.4.4.4h2.4c.2,0,.4-.2.4-.4s-.2-.4-.4-.4ZM206.2,334.5h-2.4c-.2,0-.4.2-.4.4s.2.4.4.4h2.4c.2,0,.4-.2.4-.4s-.2-.4-.4-.4ZM211.1,334.5h-2.4c-.2,0-.4.2-.4.4s.2.4.4.4h2.4c.2,0,.4-.2.4-.4s-.2-.4-.4-.4ZM215.9,334.5h-2.4c-.2,0-.4.2-.4.4s.2.4.4.4h2.4c.2,0,.4-.2.4-.4s-.2-.4-.4-.4ZM220.8,334.5h-2.4c-.2,0-.4.2-.4.4s.2.4.4.4h2.4c.2,0,.4-.2.4-.4s-.2-.4-.4-.4ZM225.7,334.5h-2.4c-.2,0-.4.2-.4.4s.2.4.4.4h2.4c.2,0,.4-.2.4-.4s-.2-.4-.4-.4ZM230.6,334.5h-2.4c-.2,0-.4.2-.4.4s.2.4.4.4h2.4c.2,0,.4-.2.4-.4s-.2-.4-.4-.4ZM235.4,334.5h-2.4c-.2,0-.4.2-.4.4s.2.4.4.4h2.4c.2,0,.4-.2.4-.4s-.2-.4-.4-.4ZM240.3,334.5h-2.4c-.2,0-.4.2-.4.4s.2.4.4.4h2.4c.2,0,.4-.2.4-.4s-.2-.4-.4-.4ZM245.2,334.5h-2.4c-.2,0-.4.2-.4.4s.2.4.4.4h2.4c.2,0,.4-.2.4-.4s-.2-.4-.4-.4ZM250,334.5h-2.4c-.2,0-.4.2-.4.4s.2.4.4.4h2.4c.2,0,.4-.2.4-.4s-.2-.4-.4-.4ZM254.9,334.5h-2.4c-.2,0-.4.2-.4.4s.2.4.4.4h2.4c.2,0,.4-.2.4-.4s-.2-.4-.4-.4ZM259.8,334.5h-2.4c-.2,0-.4.2-.4.4s.2.4.4.4h2.4c.2,0,.4-.2.4-.4s-.2-.4-.4-.4ZM264.6,334.5h-2.4c-.2,0-.4.2-.4.4s.2.4.4.4h2.4c.2,0,.4-.2.4-.4s-.2-.4-.4-.4ZM269.5,334.5h-2.4c-.2,0-.4.2-.4.4s.2.4.4.4h2.4c.2,0,.4-.2.4-.4s-.2-.4-.4-.4ZM274.4,334.5h-2.4c-.2,0-.4.2-.4.4s.2.4.4.4h2.4c.2,0,.4-.2.4-.4s-.2-.4-.4-.4Z"/>
    <path class="cls-8" d="M206.7,212v-.4h-22.9c-1.6,0-3-.6-4.1-1.7-1-1-1.7-2.5-1.7-4.1v-22.9c0-1.6.6-3,1.7-4.1,1-1,2.5-1.7,4.1-1.7h22.9c1.6,0,3,.6,4.1,1.7,1,1,1.7,2.5,1.7,4.1v22.9c0,1.6-.6,3-1.7,4.1-1,1-2.5,1.7-4.1,1.7v.8c3.6,0,6.5-2.9,6.5-6.5v-22.9c0-3.6-2.9-6.5-6.5-6.5h-22.9c-3.6,0-6.5,2.9-6.5,6.5v22.9c0,3.6,2.9,6.5,6.5,6.5h22.9v-.4h0Z"/>
    <path class="cls-8" d="M189.3,188.9l-5.1,5.1c-.1.1-.2.3-.2.5s0,.4.2.5l5.1,5.1c.3.3.7.3,1,0s.3-.7,0-1l-4.6-4.6,4.6-4.6c.3-.3.3-.7,0-1s-.7-.3-1,0h0Z"/>
    <path class="cls-8" d="M200.3,189.9l4.6,4.6-4.6,4.6c-.3.3-.3.7,0,1s.7.3,1,0l5.1-5.1c.1-.1.2-.3.2-.5s0-.4-.2-.5l-5.1-5.1c-.3-.3-.7-.3-1,0s-.3.7,0,1h0Z"/>
    <path class="cls-8" d="M197,189.1l-4.7,10.2c-.2.4,0,.8.4.9s.8,0,.9-.4l4.7-10.2c.2-.4,0-.8-.4-.9s-.8,0-.9.4"/>
  </g>
  <rect class="cls-8" x="171" y="84.2" width="115.5" height="85.5" rx="7" ry="7"/>
  <circle class="cls-14" cx="263" cy="106.7" r="16.7"/>
  <path class="cls-11" d="M238.9,169.7h-60.9c-3.9,0-7-3.1-7-7v-11.2l26.6-46.1c1.4-2.4,4.9-2.4,6.3,0l20.1,34.8,14.9,25.9c.7,1.2.6,2.6,0,3.7Z"/>
  <path class="cls-7" d="M265.1,169.7h-58.2l17.1-29.6,9.2-15.9c1.2-2.2,4.4-2.2,5.6,0l26.3,45.5Z"/>
  <rect class="cls-5" x="335.6" y="302.4" width="44.9" height="67.4"/>
  <rect class="cls-8" x="380.5" y="302.4" width="17.2" height="67.4"/>
  <g>
    <rect class="cls-11" x="383" y="305" width="12.6" height="2.1"/>
    <rect class="cls-11" x="383" y="309.6" width="12.6" height="2.1"/>
    <rect class="cls-11" x="383" y="314.3" width="12.6" height="2.1"/>
    <rect class="cls-11" x="383" y="318.9" width="12.6" height="2.1"/>
    <rect class="cls-11" x="383" y="323.5" width="12.6" height="2.1"/>
    <rect class="cls-11" x="383" y="328.1" width="12.6" height="2.1"/>
    <rect class="cls-11" x="383" y="332.8" width="12.6" height="2.1"/>
    <rect class="cls-11" x="383" y="337.4" width="12.6" height="2.1"/>
    <rect class="cls-11" x="383" y="342" width="12.6" height="2.1"/>
    <rect class="cls-11" x="383" y="346.6" width="12.6" height="2.1"/>
    <rect class="cls-11" x="383" y="351.2" width="12.6" height="2.1"/>
    <rect class="cls-11" x="383" y="355.9" width="12.6" height="2.1"/>
    <rect class="cls-11" x="383" y="360.5" width="12.6" height="2.1"/>
    <rect class="cls-11" x="383" y="365.1" width="12.6" height="2.1"/>
  </g>
  <path class="cls-3" d="M328.4,369.9h22.8s1.3-4.1-1.5-9.1c0,0-1.8,1.5-7.3.5,0,0-2.3,2-3.9,2.7-1.6.8-10.7,2.6-10.1,5.9Z"/>
  <path class="cls-16" d="M329.9,305.6c1.5,8.8,8.3,38.5,11.2,56.1,5.3.5,7.9-.2,9.3-.5-.3-6.1-.8-20.8-.7-27.2.1-10.9.6-25.2-4.2-33l-16.1,1.3c.1.9.2,1.5.3,2,0,.5.2.9.2,1.3h0Z"/>
  <path class="cls-3" d="M287.1,369.9h22.8s1.3-4.1-1.5-9.1c0,0-1.8,1.5-7.3.5,0,0-2.3,2-3.9,2.7-1.6.8-10.7,2.6-10.1,5.9Z"/>
  <path class="cls-16" d="M300.4,361.1c4.4,1.1,7.5,1,9,.8,1.2-7.1,3.1-22.6,4.9-29.9,2.7-11.3,5.3-26.9,3.5-32.4l-15.8-4c0,.5-1.3,48.1-1.5,65.5h0Z"/>
  <path class="cls-16" d="M363.4,279.5h0c-.3-3.1-.7-5.4-.7-5.4l-17.7,4.3-15,3.4c-5.6,1.2-12.3,2.7-18.2,4.1-6.6,1.5-11.1,6.6-9.6,13.2l1.7,8.1c9.3-.1,53-4.3,56.7-6.2,4.2-2.1,5.5-9.7,2.7-21.5h0Z"/>
  <path class="cls-16" d="M389.7,279.5h0c-.3-3.1-1.8-6.5-1.8-6.5l-16.5,5.4-15,3.4c-5.6,1.2-12.3,2.7-18.2,4.1-6.6,1.5-11.1,6.6-9.6,13.2l1.7,8.1c9.3-.1,48.1-1.5,56.7-6.2,4.1-2.3,5.5-9.7,2.7-21.5h0Z"/>
  <path class="cls-10" d="M340.3,254.1s7.8-3.5,10,0c1.2,1.9.4,5.6-2.3,7.1-2.7,1.5-17.8,7.9-32.1,11.5,0,0-.6-2-1.6-4.1,0,0,6.4-2.7,12.8-7.1,6.4-4.5,13.2-7.4,13.2-7.4h0Z"/>
  <path class="cls-10" d="M342.2,229.6l-6.7,26.9s.7,6.8,7.5,3.5c6.9-3.3,11.4-24.7,11.4-24.7l-12.2-5.6h0Z"/>
  <path class="cls-11" d="M353.6,244.7c-.8-.2-1.6-.4-2.4-.6-.8-.2-1.5-.5-2.2-.7-6.4-2.2-9.8-4.8-9.8-4.8,2-8.7,4.4-14.6,6.6-18.5,0-.1.1-.2.2-.3,0-.1.1-.2.2-.3,1.2-1.9,2.8-3.5,4.7-4.9.2-.1.4-.3.6-.4l.8,14v1.4c.1,0,1.5,15,1.5,15h0Z"/>
  <path class="cls-4" d="M353.6,244.7c-.8-.2-1.6-.4-2.4-.6-.8-.2-1.5-.5-2.2-.7,1.3-9.4,2.5-15.4,2.5-15.4l.7,1.7,1.4,15h0Z"/>
  <path class="cls-11" d="M393.3,220.4c-.2,4.1-.9,10.8-1.5,17.5-.2,2.1-.4,4.3-.5,6.3-.1,1.3-2,8.1-2.1,9.3-.3,5.8-3.2,10.2-.5,19.1.6,2.1.8,3.2.8,4.1s-.8,1.2-1.1,1.4c-1.1.7-3.4,1.1-6.1,1.5h0c-5.4.6-12.6.8-16.9.8s-14.6-.9-15.7-2.4c-1-1.4,0-3.3.4-6,2.1-12.2,1.4-18.6,1.2-27.4v-.7c-.2-13.6-1.1-25.2-.5-29.4.2-.1.4-.3.6-.4.9-.6,1.8-1.2,2.7-1.7,0,0,.2-.1.3-.1.3-.1.5-.3.8-.4.1,0,.2-.1.3-.1,2-1,4.9-2,6.5-2.6.2,0,.4-.1.6-.2,1.6-.1,3.2-.1,5.1,0,1.6,0,4,.3,6.7.6h0c3,.4,6.2.9,8.8,1.6,0,0,0,0,0,0,.5.1,3.6,1.3,7,4.9,1.1,1.2,2.2,2.6,3.2,4.4h0Z"/>
  <path class="cls-4" d="M388.6,272.7c.6,2.1.8,3.2.8,4.1s-.8,1.2-1.1,1.4c-1.1.7-3.4,1.1-6.1,1.5,1.1-.1,3-1.9,3-3.5s-1.5-8.7-1-13.6c.4-4.9,1.2-12.6-.3-18.9-1.5-6.2-3-14.4-3-14.4l8.5,5.1s1.1,1.5,2.3,3.4c-.2,2.1-.4,4.3-.5,6.3-.1,1.3-5.3,19.6-2.6,28.5h0Z"/>
  <g>
    <path class="cls-2" d="M351.1,184.5s.7,8.9,3.7,9.5c3,.6,2.2-3.2,2.2-3.2l-.4-4.2-5.5-2.1Z"/>
    <path class="cls-10" d="M364.7,216.8c-5.8-.7-3.6-6.3-2.8-7.6.2,0,1.2-.4,1.3-.4h0c.2-.1.3-.4.5-.7.6-1.5.3-4.4.3-4.6h0v-.5c.1-.4.2-.7.3-1l3-2.4,6.4-5.1s-1.7,8.5-.3,13.8c.1.4.3,1,.9,1.3h0c.2.1.4.2.6.2,1.6.8-.6,8.1-10.1,7h0Z"/>
    <path class="cls-6" d="M369.8,199.8s0,5.6-6.2,8.2c.6-1.5.3-4.4.3-4.6l2.6-2,3.3-1.6h0Z"/>
    <path class="cls-10" d="M352.5,185.8s1.3,18.5,6.3,20.1c0,0,6.4.6,10.9-5.5,1.3-1.8,3-2.2,3.5-4.3.9-3.5,2.1-9.9.5-13.7-2.3-5.5-21.1-9.9-21.3,3.5h0Z"/>
    <path class="cls-2" d="M373.9,179.2c0-3.4-3.5-4.6-3.5-4.6-3.4-1.6-10.4-.9-17.7.7-1.7.4-3.8-.7-5,.2-1.4,1,0,5.5,0,5.5,2.8,8.5,13.1,5.7,16.2,4.7.7,2.2.6,5.2,2.5,6.8,1,.9,2.9.9,4.7.6.2.4,1.1.8,1.2,1.4.6,2,.5,5.1.5,7.5l.9-.4c.1-.6,9.1-22,.2-22.3h0Z"/>
    <g>
      <path class="cls-21" d="M357.6,192c.3,1.5-.5,2.9-1.7,3.1-1.2.2-2.4-.9-2.6-2.4-.3-1.5.5-2.9,1.7-3.1,1.2-.2,2.4.9,2.6,2.4Z"/>
      <path class="cls-21" d="M363.7,190.9c.3,1.5-.5,2.9-1.7,3.1-1.2.2-2.4-.9-2.6-2.4-.3-1.5.5-2.9,1.7-3.1,1.2-.2,2.4.9,2.6,2.4Z"/>
      <path class="cls-21" d="M357.6,192s.3-.4,1.6-.3"/>
      <line class="cls-21" x1="363.7" y1="191.2" x2="368.9" y2="190.4"/>
    </g>
    <path class="cls-10" d="M369.3,196.9c3.5,1.4,4.7-7.4,1.3-7.8-2.6-.3-2.7,3.3-2.7,3.3,0,0-.6,3.7,1.4,4.5h0Z"/>
    <g class="cls-23">
      <path class="cls-6" d="M370.5,190.5c-1.1,1.4-.8,2.9-.8,4.5-1.2-1.3-1.1-4,.8-4.5h0Z"/>
      <path class="cls-6" d="M371,192.2c-.7.1-1.3.7-1.4,1.4l-.7-.2c.4-.8,1.2-1.3,2.1-1.2h0Z"/>
    </g>
  </g>
  <path class="cls-10" d="M403.4,257.7h0c-1.6,1.8-7.5,3.1-10.3.6-.9-.8-1.9-2.9-2.9-5.5-2.5-6.7-4.9-16.6-4.9-16.6l13.2-6.8s1.7,7.6,3.2,14.9c0,0,0,0,0,.2.5,2.3.9,4.6,1.3,6.6,0,0,0,.1,0,.2.4,2.4.6,4.8.4,6.5h0Z"/>
  <path class="cls-11" d="M380.3,226.9c1.3,5.3,5.3,15.4,5.3,15.4,2.8.5,6.6,0,9.7-1.2,3.6-1.3,6.2-4,6.2-4,0,0-2.7-7.5-5.1-12.9-2.1-4.8-3.4-6.6-4.4-7.6-1.4-1.5-3.7-3.1-5.3-3.9l-6.5,14.2h0Z"/>
  <path class="cls-11" d="M397,230.4l-7.8-3.4-6.1-15.8s1.1.3,2.6.9h0s0,0,.2,0c0,0,0,0,.1,0,1.3.6,6.5,3.6,10,14.6,0,0,0,.2,0,.3.4,1.3.6,2.3.8,2.8,0,0,0,.1,0,.2,0,0,0,.1,0,.2h0Z"/>
  <g>
    <path class="cls-10" d="M403.4,257.7h0c-.1,1-.4,1.7-.9,1.9,0,0-1.2.7-1.2.8-1.6,1-4.6,2.7-8.2,4.2-8.9,3.8-21.8,8.3-28.7,10.3,0,0-.7-2-1.8-4,0,0,6.3-2.9,12.5-7.6,6.2-4.7,15.1-10.4,15.1-10.4l2.2-2.6s8-7.4,9.3-5.9c0,0,0,0,0,.2.2.8.8,3.6,1.3,6.6,0,0,0,.1,0,.2.4,2.4.6,4.8.4,6.5h0Z"/>
    <path class="cls-10" d="M363.6,270.5s-1.6.9-3.1.6c-.9-.2-1.2-.5-1.9-.7-.6-.1-2.4-.3-3.2-.8s-1.2-.5-1.2.4c0,.9,1.7,1.6,2.2,1.8.5.2,1,1,1.1,1.1,0,.1-2.8,1.6-3.6,1.3,0,0-.2.7-.1,1.1.1.4.7.5.8.7,0,.2-.1.6,0,.9.1.3.7.3.9.8s0,.5.1,1c.2.5.8.6,1,.9s0,.6.3.8c.3.2,2.9-.6,3.8-1,1-.4,3.5-4,6.3-5.3l-3.3-3.7h0Z"/>
  </g>
  <path class="cls-12" d="M376.8,286.7h-20.2v-2h20.2c.5,0,1,.4,1,1h0c0,.5-.4,1-1,1h0Z"/>
  <path class="cls-15" d="M365.9,286.7h-50.5c-.6,0-1.1-.4-1.3-1l-10.3-37.2c-.2-.8.4-1.6,1.2-1.6h48.8c1.1,0,2.1.8,2.4,1.9l10.3,37.1c.1.5-.2.9-.7.9h0Z"/>
  <path class="cls-5" d="M364.1,286.7h-50.5c-.6,0-1.1-.4-1.3-1l-10.3-37.2c-.2-.8.4-1.6,1.2-1.6h48.8c1.1,0,2.1.8,2.4,1.9l10.3,37.1c.1.5-.2.9-.7.9h0Z"/>
  <path class="cls-19" d="M445.6,169.7h-45.5c-2.9,0-5.3,2.4-5.3,5.3v10.8c0,2.7,2,4.9,4.6,5.2.4,0,.7.4.7.8v5.9c0,.3.4.5.6.2l4.6-6.5c.1-.2.4-.3.6-.3h39.6c2.9,0,5.3-2.4,5.3-5.3v-10.8c0-2.9-2.4-5.3-5.3-5.3h0Z"/>
  <path class="cls-19" d="M407,180.3c0,1-.8,1.7-1.7,1.7s-1.7-.8-1.7-1.7.8-1.7,1.7-1.7,1.7.8,1.7,1.7Z"/>
  <path class="cls-19" d="M415.8,180.3c0,1-.8,1.7-1.7,1.7s-1.7-.8-1.7-1.7.8-1.7,1.7-1.7,1.7.8,1.7,1.7Z"/>
  <path class="cls-19" d="M424.5,180.3c0,1-.8,1.7-1.7,1.7s-1.7-.8-1.7-1.7.8-1.7,1.7-1.7,1.7.8,1.7,1.7Z"/>
  <path class="cls-19" d="M433.3,180.3c0,1-.8,1.7-1.7,1.7s-1.7-.8-1.7-1.7.8-1.7,1.7-1.7,1.7.8,1.7,1.7Z"/>
  <path class="cls-19" d="M442.1,180.3c0,1-.8,1.7-1.7,1.7s-1.7-.8-1.7-1.7.8-1.7,1.7-1.7,1.7.8,1.7,1.7Z"/>
  <path class="cls-1" d="M85.8,216.8h45.5c2.9,0,5.3,2.4,5.3,5.3v10.8c0,2.7-2,4.9-4.6,5.2-.4,0-.7.4-.7.8v5.9c0,.3-.4.5-.6.2l-4.6-6.5c-.1-.2-.4-.3-.6-.3h-39.6c-2.9,0-5.3-2.4-5.3-5.3v-10.8c0-2.9,2.4-5.3,5.3-5.3h0Z"/>
  <path class="cls-19" d="M124.3,227.5c0,1,.8,1.7,1.7,1.7s1.7-.8,1.7-1.7-.8-1.7-1.7-1.7-1.7.8-1.7,1.7Z"/>
  <path class="cls-19" d="M115.6,227.5c0,1,.8,1.7,1.7,1.7s1.7-.8,1.7-1.7-.8-1.7-1.7-1.7-1.7.8-1.7,1.7Z"/>
  <path class="cls-19" d="M106.8,227.5c0,1,.8,1.7,1.7,1.7s1.7-.8,1.7-1.7-.8-1.7-1.7-1.7-1.7.8-1.7,1.7Z"/>
  <path class="cls-19" d="M98,227.5c0,1,.8,1.7,1.7,1.7s1.7-.8,1.7-1.7-.8-1.7-1.7-1.7-1.7.8-1.7,1.7Z"/>
  <path class="cls-19" d="M89.3,227.5c0,1,.8,1.7,1.7,1.7s1.7-.8,1.7-1.7-.8-1.7-1.7-1.7-1.7.8-1.7,1.7Z"/>
  <path class="cls-20" d="M360.8,144.9h-83c-4.6,0-8.3-3.7-8.3-8.3h0c0-4.6,3.7-8.3,8.3-8.3h83c4.6,0,8.3,3.7,8.3,8.3h0c0,4.6-3.7,8.3-8.3,8.3Z"/>
  <path class="cls-17" d="M359.5,136h-.7c0,1-.4,1.9-1.1,2.6-.7.7-1.6,1.1-2.6,1.1s-1.9-.4-2.6-1.1c-.7-.7-1.1-1.6-1.1-2.6s.4-1.9,1.1-2.6c.7-.7,1.6-1.1,2.6-1.1s1.9.4,2.6,1.1c.7.7,1.1,1.6,1.1,2.6h1.4c0-2.8-2.3-5.1-5.1-5.1s-5.1,2.3-5.1,5.1,2.3,5.1,5.1,5.1,5.1-2.3,5.1-5.1h-.7,0Z"/>
  <line class="cls-22" x1="358.2" y1="139.1" x2="360.7" y2="141.5"/>
  <rect class="cls-8" x="415.1" y="325.7" width="44.6" height="44.6" rx="10.1" ry="10.1"/>
  <rect class="cls-5" x="406.9" y="325.7" width="44.6" height="44.6" rx="10.1" ry="10.1"/>
  <path class="cls-11" d="M434.6,336.6c0,3-2.4,5.4-5.4,5.4s-5.4-2.4-5.4-5.4,2.4-5.4,5.4-5.4,5.4,2.4,5.4,5.4Z"/>
  <path class="cls-11" d="M440.4,354.7v7.9c0,.7-.6,1.3-1.3,1.3h-19.8c-.7,0-1.3-.6-1.3-1.3v-7.9c0-6.2,5-11.2,11.2-11.2h0c6.2,0,11.2,5,11.2,11.2h0Z"/>
  <path class="cls-1" d="M329.5,154.4h-17.5c-.7,0-1.3-.6-1.3-1.3h0c0-.7.6-1.3,1.3-1.3h17.5c.7,0,1.3.6,1.3,1.3h0c0,.7-.6,1.3-1.3,1.3Z"/>
  <path class="cls-1" d="M347.1,154.4h-12.7c-.7,0-1.3-.6-1.3-1.3h0c0-.7.6-1.3,1.3-1.3h12.7c.7,0,1.3.6,1.3,1.3h0c0,.7-.6,1.3-1.3,1.3Z"/>
  <path class="cls-1" d="M319.4,160.2h-7.5c-.7,0-1.3-.6-1.3-1.3h0c0-.7.6-1.3,1.3-1.3h7.5c.7,0,1.3.6,1.3,1.3h0c0,.7-.6,1.3-1.3,1.3Z"/>
  <path class="cls-1" d="M347.1,160.2h-23.2c-.7,0-1.3-.6-1.3-1.3h0c0-.7.6-1.3,1.3-1.3h23.2c.7,0,1.3.6,1.3,1.3h0c0,.7-.6,1.3-1.3,1.3Z"/>
  <path class="cls-1" d="M335.1,166h-23.1c-.7,0-1.3-.6-1.3-1.3h0c0-.7.6-1.3,1.3-1.3h23.1c.7,0,1.3.6,1.3,1.3h0c0,.7-.6,1.3-1.3,1.3h0Z"/>
  <path class="cls-1" d="M347.1,166h-7.5c-.7,0-1.3-.6-1.3-1.3h0c0-.7.6-1.3,1.3-1.3h7.5c.7,0,1.3.6,1.3,1.3h0c0,.7-.6,1.3-1.3,1.3Z"/>
  <path class="cls-8" d="M420.1,254.8h16.4c3.1,0,5.6,2.5,5.6,5.6v16.4c0,3.1-2.5,5.6-5.6,5.6h-16.4c-3.1,0-5.6-2.5-5.6-5.6v-16.4c0-3.1,2.5-5.6,5.6-5.6h0Z"/>
  <rect class="cls-18" x="412.3" y="252.4" width="27.7" height="27.7" rx="4.5" ry="4.5"/>
  <path class="cls-11" d="M420.5,274.5c0,0-.2,0-.2,0-.5-.1-.7-.6-.6-1.1l4.2-14.8c.1-.5.6-.7,1.1-.6.5.1.7.6.6,1.1l-4.2,14.8c-.1.4-.5.6-.8.6h0Z"/>
  <path class="cls-11" d="M427.6,274.5c0,0-.2,0-.2,0-.5-.1-.7-.6-.6-1.1l4.2-14.8c.1-.5.6-.7,1.1-.6.5.1.7.6.6,1.1l-4.2,14.8c-.1.4-.5.6-.8.6h0Z"/>
  <path class="cls-11" d="M433.6,263.7h-14.8c-.5,0-.9-.4-.9-.9s.4-.9.9-.9h14.8c.5,0,.9.4.9.9s-.4.9-.9.9Z"/>
  <path class="cls-11" d="M433.6,270.5h-14.8c-.5,0-.9-.4-.9-.9s.4-.9.9-.9h14.8c.5,0,.9.4.9.9s-.4.9-.9.9Z"/>
  <path class="cls-1" d="M108.1,194.5h-10.7c-.7,0-1.2-.5-1.2-1.2h0c0-.6.5-1.2,1.2-1.2h10.7c.7,0,1.2.5,1.2,1.2h0c0,.6-.5,1.2-1.2,1.2Z"/>
  <path class="cls-1" d="M118.9,199.7h-21.5c-.7,0-1.2-.5-1.2-1.2h0c0-.6.5-1.2,1.2-1.2h21.5c.7,0,1.2.5,1.2,1.2h0c0,.6-.5,1.2-1.2,1.2Z"/>
  <path class="cls-1" d="M99.9,204.9h-2.5c-.7,0-1.2-.5-1.2-1.2h0c0-.6.5-1.2,1.2-1.2h2.5c.7,0,1.2.5,1.2,1.2h0c0,.6-.5,1.2-1.2,1.2Z"/>
  <path class="cls-1" d="M118.9,204.9h-15c-.7,0-1.2-.5-1.2-1.2h0c0-.6.5-1.2,1.2-1.2h15c.7,0,1.2.5,1.2,1.2h0c0,.6-.5,1.2-1.2,1.2Z"/>
  <path class="cls-1" d="M118.9,194.5h-6.5c-.7,0-1.2-.5-1.2-1.2h0c0-.6.5-1.2,1.2-1.2h6.5c.7,0,1.2.5,1.2,1.2h0c0,.6-.5,1.2-1.2,1.2Z"/>
  <rect class="cls-5" x="60.8" y="265.7" width="61.3" height="76.4"/>
  <rect class="cls-17" x="462.6" y="135.1" width="32.4" height="33.7"/>
</svg>