<?xml version="1.0" encoding="UTF-8"?>
<svg xmlns="http://www.w3.org/2000/svg" version="1.1" xmlns:xlink="http://www.w3.org/1999/xlink" viewBox="0 0 500 500">
  <defs>
    <style>
      .cls-1 {
        fill: url(#linear-gradient-8);
      }

      .cls-1, .cls-2, .cls-3, .cls-4, .cls-5, .cls-6, .cls-7, .cls-8, .cls-9, .cls-10, .cls-11 {
        stroke-width: 0px;
      }

      .cls-1, .cls-2, .cls-3, .cls-12, .cls-6, .cls-13, .cls-7, .cls-9, .cls-10, .cls-11 {
        fill-rule: evenodd;
      }

      .cls-2 {
        fill: url(#linear-gradient-7);
      }

      .cls-3 {
        fill: url(#linear-gradient-9);
      }

      .cls-4 {
        fill: url(#linear-gradient-6);
      }

      .cls-12 {
        stroke-dasharray: 0 3;
      }

      .cls-12, .cls-13 {
        fill: none;
        stroke: #808285;
        stroke-miterlimit: 10;
      }

      .cls-5 {
        fill: #f1f2f2;
      }

      .cls-6 {
        fill: url(#linear-gradient-3);
      }

      .cls-7 {
        fill: url(#linear-gradient);
      }

      .cls-8 {
        fill: url(#linear-gradient-2);
      }

      .cls-9 {
        fill: url(#linear-gradient-5);
      }

      .cls-14 {
        fill: #fff;
        font-family: MyriadPro-Regular, 'Myriad Pro';
        font-size: 12px;
      }

      .cls-10 {
        fill: url(#linear-gradient-4);
      }

      .cls-11 {
        fill: url(#linear-gradient-10);
      }
    </style>
    <linearGradient id="linear-gradient" x1="-137.9" y1="330.8" x2="265.7" y2="-27.4" gradientUnits="userSpaceOnUse">
      <stop offset="0" stop-color="#3c5371"/>
      <stop offset=".5" stop-color="#83c2cb"/>
      <stop offset="1" stop-color="#b1cb4e"/>
    </linearGradient>
    <linearGradient id="linear-gradient-2" x1="-1.1" y1="484.9" x2="402.5" y2="126.7" xlink:href="#linear-gradient"/>
    <linearGradient id="linear-gradient-3" x1="27.8" y1="517.4" x2="431.3" y2="159.2" xlink:href="#linear-gradient"/>
    <linearGradient id="linear-gradient-4" x1="98.4" y1="597" x2="501.9" y2="238.7" xlink:href="#linear-gradient"/>
    <linearGradient id="linear-gradient-5" x1="-55.6" y1="423.5" x2="347.9" y2="65.2" xlink:href="#linear-gradient"/>
    <linearGradient id="linear-gradient-6" x1="81.1" y1="577.6" x2="484.7" y2="219.3" xlink:href="#linear-gradient"/>
    <linearGradient id="linear-gradient-7" x1="-67.3" y1="410.3" x2="336.2" y2="52.1" xlink:href="#linear-gradient"/>
    <linearGradient id="linear-gradient-8" x1="-54.8" y1="424.4" x2="348.8" y2="66.2" xlink:href="#linear-gradient"/>
    <linearGradient id="linear-gradient-9" x1="15" y1="503" x2="418.5" y2="144.8" xlink:href="#linear-gradient"/>
    <linearGradient id="linear-gradient-10" x1="27.5" y1="517.1" x2="431" y2="158.9" xlink:href="#linear-gradient"/>
  </defs>
  <g id="Background">
    <rect class="cls-5" width="500" height="500"/>
  </g>
  <g id="Content">
    <polygon class="cls-7" points="178.2 68.5 113.4 68.5 100.5 93.2 112.3 114.4 150.2 114.4 178.2 68.5"/>
    <polygon class="cls-8" points="315.6 151.4 382 151.4 394.4 173.8 382 197.3 343.3 197.3 315.6 151.4"/>
    <polygon class="cls-6" points="178.2 402.1 113.4 402.1 100.5 426.9 112.3 448 150.2 448 178.2 402.1"/>
    <path class="cls-13" d="M92.3,427.5l15.5,27.8h46.4l36.9-59.1h179.1c18,0,32.5,14.6,32.5,32.5h0"/>
    <path class="cls-10" d="M163,455.3l32.4-53.1h174.8c14.6,0,26.5,11.9,26.5,26.5s-11.9,26.5-26.5,26.5h-207.2Z"/>
    <polyline class="cls-12" points="151.5 396.2 107.9 396.2 92.3 427.5"/>
    <polygon class="cls-9" points="178.2 234.1 113.4 234.1 100.5 258.9 112.3 280 150.2 280 178.2 234.1"/>
    <polygon class="cls-4" points="315.6 317 382 317 394.4 339.4 382 362.9 343.3 362.9 315.6 317"/>
    <path class="cls-13" d="M92.3,93.8l15.5,27.8h46.4l36.9-59.1h179.1c18,0,32.5,14.6,32.5,32.5h0"/>
    <path class="cls-2" d="M163,121.6l32.4-53.1h174.8c14.6,0,26.5,11.9,26.5,26.5s-11.9,26.5-26.5,26.5h-207.2Z"/>
    <polyline class="cls-12" points="151.5 62.5 107.9 62.5 92.3 93.8"/>
    <path class="cls-13" d="M402.7,173.8l-16,30.7h-46.8l-36.4-59.1H124.4c-18,0-32.5,14.6-32.5,32.5h0"/>
    <path class="cls-1" d="M331.5,204.4l-32.4-53.1H124.4c-14.6,0-26.5,11.9-26.5,26.5s11.9,26.5,26.5,26.5h207.2Z"/>
    <polyline class="cls-12" points="343.1 145.4 386.7 145.4 402.7 173.8"/>
    <path class="cls-13" d="M92.3,259.5l15.5,27.8h46.4l36.9-59.1h179.1c18,0,32.5,14.6,32.5,32.5h0"/>
    <path class="cls-3" d="M163,287.3l32.4-53.1h174.8c14.6,0,26.5,11.9,26.5,26.5s-11.9,26.5-26.5,26.5h-207.2Z"/>
    <polyline class="cls-12" points="151.5 228.2 107.9 228.2 92.3 259.5"/>
    <path class="cls-13" d="M402.7,339.5l-16,30.7h-46.8l-36.4-59.1H124.4c-18,0-32.5,14.6-32.5,32.5h0"/>
    <path class="cls-11" d="M331.5,370.2l-32.4-53.1H124.4c-14.6,0-26.5,11.9-26.5,26.5s11.9,26.5,26.5,26.5h207.2Z"/>
    <polyline class="cls-12" points="343.1 311.1 386.7 311.1 402.7 339.5"/>
    <text class="cls-14" transform="translate(198.5 98.1)"><tspan x="0" y="0">Not getting the desired visibility?</tspan></text>
    <text class="cls-14" transform="translate(121.3 181.6)"><tspan x="0" y="0">Sky high app development costs?</tspan></text>
    <text class="cls-14" transform="translate(192.7 265.7)"><tspan x="0" y="0">What app type to choose for business?</tspan></text>
    <text class="cls-14" transform="translate(134.3 349.6)"><tspan x="0" y="0">Need an app in limited time?</tspan></text>
    <text class="cls-14" transform="translate(202.1 432.2)"><tspan x="0" y="0">Can&apos;t fnd the right company?</tspan></text>
    <path class="cls-5" d="M127.5,98.4c-1-.9-2-1.7-3-2.6-1.3-1.2-2.3-2.6-3.2-4.1-.2-.4-.3-.8,0-1.1,2.3-3.8,5.3-6.8,9.5-8.5,4.1-1.7,8.2-1.4,12.2.4.3.1.4,0,.6-.1,1.3-1.4,2.7-2.7,4-4,.4-.3.8-.4,1.2-.2.4.2.6.6.6,1,0,.3-.2.5-.4.7-1.2,1.3-2.5,2.5-3.7,3.7,0,0,0,0-.1.1.3.2.5.4.8.6,2.3,1.7,4,3.8,5.3,6.3.2.4.2.7,0,1.1-2.3,3.7-5.3,6.7-9.3,8.4-4.2,1.7-8.3,1.5-12.3-.5-.2-.1-.3,0-.5,0-1.4,1.4-2.8,2.8-4.2,4.2-.3.3-.6.4-1,.4-.4,0-.7-.3-.8-.7-.1-.4,0-.8.2-1,.6-.7,1.3-1.3,1.9-1.9.7-.7,1.4-1.4,2.1-2.1ZM141.3,87.5c1.8,2.6,1.2,5.7-.4,7.5-.9,1-2,1.6-3.2,1.9-1.7.4-3.4,0-4.8-.9-.6.6-1.3,1.3-1.9,1.9,0,0,.1,0,.2.1,3.6,1.6,7.1,1.5,10.6-.2,3.1-1.5,5.4-3.8,7.3-6.7,0,0,0-.3,0-.4-1-1.8-2.3-3.3-3.8-4.6-.5-.4-1.1-.8-1.6-1.2-.9.9-1.7,1.7-2.5,2.5ZM131.3,94.5c-1.8-2.7-1.2-5.9.7-7.8,1.9-1.9,5.1-2.6,7.7-.7.7-.7,1.4-1.3,2.1-2-3.7-1.4-7.5-1.5-11.1.3-3,1.5-5.3,3.8-7.2,6.6-.1.2,0,.3,0,.4.7.9,1.4,1.8,2.1,2.7,1,1.1,2.2,2.1,3.4,2.9.8-.8,1.5-1.5,2.3-2.3ZM138.3,87.5c-1.3-.9-3.5-.8-4.9.7-1.4,1.5-1.3,3.6-.5,4.7,1.8-1.8,3.6-3.6,5.5-5.5ZM134.3,94.5c1.2.8,3.3.9,4.8-.6,1.5-1.5,1.4-3.7.6-4.8-1.8,1.8-3.6,3.6-5.4,5.5Z"/>
    <g>
      <path class="cls-5" d="M357.3,159.4c-.3,0-.5.2-.8.4-.3.3-.4.6-.3.9.4,1.4.8,2.9,1.3,4.3.1.4.1.4-.2.6-1.2.7-1.3,2.4-.2,3.3.3.2.3.3.1.6-1.2,1.9-2.4,3.7-3.5,5.5-.5.8-1,1.5-1.4,2.3-.7,1.4-1,3-.9,4.6.1,2,.9,3.8,2.2,5.3,1.4,1.7,3.3,2.6,5.4,3,.4,0,.8.1,1.2.1,1.9,0,3.8,0,5.7,0,2.1,0,4-.6,5.7-1.9,1.9-1.6,3-3.6,3.3-6,.3-2.2-.3-4.2-1.5-6-1.5-2.3-2.9-4.5-4.4-6.8-.2-.3-.2-.4.1-.6,1.1-.8,1-2.6-.2-3.3-.4-.2-.4-.2-.2-.6.4-1.4.8-2.8,1.2-4.2.2-.6.1-.8-.4-1.2-.2-.1-.5-.2-.7-.3,0,0-.2,0-.2-.2h0c-.2.1-.4,0-.6,0h0c-.6.1-1.1.4-1.5.8-.4.4-1,.4-1.4,0-.4-.4-.9-.7-1.5-.8h-.7c-.6.1-1,.4-1.5.8-.4.3-1,.3-1.4,0-.4-.4-.9-.7-1.5-.8h0c-.2,0-.4.1-.6,0h0c0,.2-.2.1-.3.2ZM368.7,167.5c0,.4-.4.8-.9.8-.6,0-1.3,0-1.9,0-.5,0-.7.2-.7.6,0,.4.3.6.7.6.5,0,.9,0,1.4,0,.2,0,.2,0,.3.2,1.6,2.5,3.2,5.1,4.8,7.6,2.6,4.2.8,9.2-3,11.1-1.1.5-2.2.9-3.4.9-2,0-4.1,0-6.1,0-3.8,0-7.1-3.1-7.5-6.9-.2-1.9.2-3.6,1.2-5.2,1.6-2.5,3.2-5,4.8-7.5,0-.1.2-.2.4-.2.5,0,.9,0,1.4,0,.4,0,.7-.3.7-.6,0-.4-.3-.6-.7-.6-.6,0-1.2,0-1.9,0-.6,0-1-.4-1-.9,0-.5.4-.8,1-.8,1.6,0,3.1,0,4.7,0,1.6,0,3.2,0,4.7,0,.6,0,.9.4.9.9ZM357.7,160.5c.5-.1.9,0,1.2.4.7.6,1.6.8,2.5.5.3-.1.6-.3.9-.5.6-.5,1.2-.5,1.7,0,1,.9,2.3.9,3.4,0,.4-.3.8-.5,1.2-.3.1,0,.2,0,.2.3-.4,1.5-.8,2.9-1.2,4.4,0,.2-.2.2-.3.2-1.4,0-2.7,0-4.1,0s-2.7,0-4.1,0c-.2,0-.3,0-.3-.2-.4-1.4-.8-2.8-1.2-4.2,0-.3,0-.3.2-.4Z"/>
      <path class="cls-5" d="M356.1,160.7c.4,1.5.9,3,1.3,4.5,0,.2,0,.3-.2.4-1.4.7-1.5,2.6-.2,3.5.2.1.2.2,0,.4-1.5,2.4-3.1,4.8-4.6,7.2-1.2,1.8-1.6,3.9-1.3,6,.7,4.6,4.4,7.8,9.1,7.8,1.8,0,3.6,0,5.4,0,.5,0,1,0,1.5-.1,4.3-.6,7.6-4.4,7.7-8.7,0-1.9-.5-3.6-1.5-5.2-1.5-2.3-3-4.7-4.5-7-.1-.2-.1-.3,0-.4,1.3-.9,1.2-2.8-.2-3.5-.2-.1-.2-.2-.2-.4.4-1.5.9-3,1.3-4.5.1-.4,0-.7-.3-.9-.4-.3-.8-.4-1.2-.5,0,.2.1.1.2.2.2,0,.5.2.7.3.5.4.6.6.4,1.2-.4,1.4-.8,2.8-1.2,4.2-.1.4-.1.4.2.6,1.2.7,1.3,2.4.2,3.3-.3.2-.3.2-.1.6,1.4,2.3,2.9,4.6,4.4,6.8,1.2,1.8,1.8,3.8,1.5,6-.3,2.5-1.4,4.5-3.3,6-1.6,1.3-3.6,1.9-5.7,1.9-1.9,0-3.8,0-5.7,0-.4,0-.8,0-1.2-.1-2.2-.3-4-1.3-5.4-3-1.3-1.5-2.1-3.3-2.2-5.3-.1-1.6.2-3.1.9-4.6.4-.8.9-1.6,1.4-2.3,1.2-1.9,2.4-3.7,3.5-5.5.2-.3.2-.3-.1-.6-1.1-.9-1-2.6.2-3.3.4-.2.4-.2.2-.6-.4-1.4-.8-2.9-1.3-4.3-.1-.4,0-.7.3-.9.2-.2.5-.3.8-.4.1,0,.3,0,.3-.2-.4.2-.8.3-1.2.6-.3.2-.4.5-.3.9Z"/>
      <path class="cls-5" d="M358.2,159.2h-.6c.2,0,.4,0,.6,0Z"/>
      <path class="cls-5" d="M358.2,159.2c-.2,0-.4,0-.6,0,.2.1.4,0,.6,0Z"/>
      <path class="cls-5" d="M368.4,159.2h-.6c.2,0,.4,0,.6,0Z"/>
      <path class="cls-5" d="M368.4,159.2c-.2,0-.4,0-.6,0,.2,0,.4.1.6,0Z"/>
      <path class="cls-5" d="M364.3,175.2c-.5,0-.7-.3-.7-.9,0-.3-.3-.6-.6-.6-.3,0-.6.2-.6.6,0,.1,0,.2,0,.3,0,.2,0,.3-.3.4-.9.2-1.6,1.1-1.7,2-.1,1,.2,1.8,1.1,2.3.2.1.5.3.8.4.1,0,.2.1.2.3,0,1,0,2.1,0,3.1,0,.2,0,.2-.2.2-.4,0-.8-.3-1.1-.5-.3-.2-.7,0-.8.2-.2.3-.1.6.2.8.4.3.8.5,1.3.6.2,0,.5,0,.6.1.1.1,0,.4,0,.6,0,.3.3.6.6.6.3,0,.6-.2.6-.6,0-.2,0-.3,0-.5,0-.2,0-.3.2-.3.5-.1.9-.4,1.3-.8,1.2-1.4,1.1-3.7-1-4.5-.1,0-.2,0-.3-.1,0,0-.1,0-.1-.2,0-.9,0-1.7,0-2.6.3,0,.5.2.7.3.3.2.7.1.8-.2.2-.3.1-.6-.2-.9-.2-.2-.5-.3-.8-.4ZM362.4,178.5c-.5-.2-.9-.6-.8-1.2,0-.5.4-.9.8-1v2.2ZM363.7,180.4c.6.2,1,.6,1,1.2,0,.7-.4,1.4-1,1.7v-2.9Z"/>
      <path class="cls-5" d="M363.1,169.5c.3,0,.6-.3.6-.6,0-.3-.3-.6-.6-.6-.3,0-.6.3-.6.6,0,.3.3.6.6.6Z"/>
    </g>
    <g>
      <path class="cls-5" d="M148.5,255.6c0,.2-.2.5-.3.7-.3.5-.7.8-1.3.9-3.2.7-6.5,1.4-9.7,2.2-.2,0-.3.1-.3.4,0,.5,0,1.1,0,1.6,0,.6-.2.8-.8.8-1.2,0-2.4,0-3.6,0-.6,0-.8-.2-.8-.8,0-.5,0-1.1,0-1.6,0-.2,0-.3-.3-.3-3.2-.7-6.5-1.4-9.7-2.2-1-.2-1.6-1-1.6-2,0-1.3,0-2.6,0-3.9,0-1.2.7-2,2-2.1,0,0,.1,0,.2,0,8,0,16,0,23.9,0,.7,0,1.4.2,1.8.8.2.3.3.6.4.9v4.7ZM136.9,258.2c.1,0,.2,0,.3,0,3.1-.7,6.2-1.4,9.3-2.1.5-.1.7-.3.7-.8,0-1.3,0-2.5,0-3.8,0-.6-.2-.8-.8-.8-8.1,0-16.1,0-24.2,0-.6,0-.8.2-.8.8,0,1.3,0,2.5,0,3.8,0,.5.2.7.7.8,2.4.5,4.9,1.1,7.3,1.6.8.2,1.5.3,2.3.5,0-.1,0-.3,0-.4,0-.6.2-.8.8-.8.5,0,1,0,1.4,0,.7,0,1.5,0,2.2,0,.5,0,.7.2.7.7,0,.1,0,.3,0,.4ZM133.1,260.9h2.5v-2.5h-2.5v2.5Z"/>
      <path class="cls-5" d="M134.3,269.2c-3.8,0-7.6,0-11.4,0-.8,0-1.5-.3-1.9-1.1-.1-.3-.2-.6-.2-.9,0-2.7,0-5.5,0-8.2,0-.6.3-.8.8-.7.2,0,.4.2.4.4,0,.1,0,.3,0,.4,0,2.6,0,5.3,0,7.9,0,.7.2.9.9.9,7.6,0,15.1,0,22.7,0,.7,0,.9-.2.9-.9,0-2.7,0-5.3,0-8,0-.5.2-.7.5-.8.4,0,.7.2.7.6,0,0,0,.2,0,.2,0,2.7,0,5.4,0,8,0,.8-.3,1.5-1.1,1.9-.3.1-.7.2-1,.2-3.8,0-7.6,0-11.4,0Z"/>
      <path class="cls-5" d="M139.5,247c0,.2,0,.3,0,.5,0,.3-.3.5-.6.5-.3,0-.6-.2-.6-.6,0-.2,0-.4,0-.6,0-.5-.2-.7-.7-.7-2.1,0-4.2,0-6.3,0-.5,0-.7.2-.7.7,0,.2,0,.5,0,.7,0,.3-.3.5-.6.5-.3,0-.6-.1-.6-.4-.1-.7-.1-1.4.3-2,.4-.5,1-.8,1.6-.8,1.2,0,2.4,0,3.6,0,.8,0,1.7,0,2.5,0,1.4,0,2.2.7,2.2,2.2Z"/>
    </g>
    <g>
      <path class="cls-5" d="M374.3,340.6c-.2.5-.4.8-1,.9-.6,0-1.2-.4-1.3-1,0-.3,0-.6,0-.9,0-.6.4-1,1-1.1.5,0,1,.3,1.2.8,0,0,0,.1,0,.2v1.2Z"/>
      <path class="cls-5" d="M368,328.3c.3-.4.6-.8.9-1.2,0-.1.3-.3.4-.3.1,0,.3.2.3.4.3,1.2.7,2.4,1,3.6.2.6,0,.9-.7.9-1.2.1-2.4.2-3.6.3,0,0,0,0-.1,0-.1,0-.4,0-.4-.2,0,0,0-.3,0-.4.3-.4.6-.8.9-1.3-.6-.3-1.1-.6-1.7-.9-1.9-.9-3.9-1.2-6-1-3.3.3-6.1,1.8-8.2,4.4-1.7,2.1-2.6,4.4-2.6,7.1,0,4.2,1.7,7.6,5.1,10.1,1.4,1,2.9,1.6,4.5,1.9.8.2,1.2.8.9,1.5-.2.5-.7.9-1.3.7-4.2-.9-7.5-3.1-9.7-6.9-1.4-2.3-2-4.9-1.9-7.6.1-3.2,1.2-6,3.3-8.5,2.1-2.6,4.8-4.2,8.1-4.8,3.7-.7,7.1,0,10.3,1.9.1,0,.2.1.3.2Z"/>
      <path class="cls-5" d="M360.4,335.7c0,1.3,0,2.6,0,3.9,0,.2,0,.3.2.4,2.3,1.2,4.7,2.4,7,3.6.5.3.7.6.6,1.1-.1.5-.7.8-1.2.7-.1,0-.2,0-.3-.1-2.7-1.4-5.3-2.7-8-4.1-.2,0-.2-.2-.2-.4,0-2.9,0-5.9,0-8.8,0-.6.3-1,.9-1,.5,0,.9.4.9,1,0,1.3,0,2.6,0,3.9Z"/>
      <path class="cls-5" d="M368.9,348.5s0,0,0,0c0-.7,1-1.7,1.6-1.7.9,0,1.4.9,1,1.7-.2.3-.4.6-.7.9-.3.3-.8.4-1.2.2-.4-.2-.7-.6-.7-1Z"/>
      <path class="cls-5" d="M363.1,351.5c.7,0,1.2.4,1.3.9,0,.5-.2,1.1-.7,1.3-.4.1-.7.2-1.1.2-.5,0-1-.3-1.2-.9-.1-.5.1-1.1.6-1.3.4-.1.8-.2,1.1-.3Z"/>
      <path class="cls-5" d="M373.7,344.1c-.1.3-.3.8-.5,1.2-.3.4-.9.6-1.3.4-.5-.2-.8-.7-.7-1.2,0-.4.2-.8.4-1.1.2-.5.8-.7,1.3-.5.5.1.8.6.8,1.3Z"/>
      <path class="cls-5" d="M372.5,337.1c-.4,0-.8-.2-1-.7-.1-.3-.2-.6-.3-.9-.2-.6.1-1.1.7-1.4.5-.2,1.2,0,1.4.5.2.3.3.7.4,1.1.2.7-.4,1.3-1.2,1.3Z"/>
      <path class="cls-5" d="M367.3,349.7c.5,0,.9.3,1.1.8.2.4,0,1-.3,1.2-.3.2-.6.4-1,.6-.5.3-1.2,0-1.4-.5-.3-.5-.1-1.1.4-1.5.2-.2.5-.3.8-.5.2,0,.3-.1.5-.2Z"/>
    </g>
    <g>
      <path class="cls-5" d="M131.8,407.6c.5.1,1,.2,1.5.4,3.4,1.3,4.8,5.1,3.2,8.4-.4.8-1,1.6-1.6,2.3,0,0-.1.1-.2.3.1,0,.2,0,.3,0,.7,0,1.4,0,2.1,0,1.1,0,1.8.7,1.8,1.8,0,1.2,0,2.5,0,3.7,0,.1,0,.2,0,.4.1,0,.2,0,.3,0,1.1,0,2.1,0,3.2,0,1.1,0,1.8.7,1.8,1.8,0,2.4,0,4.7,0,7.1,0,.2,0,.4.3.4.9.2,1.4,1.1,1.3,2.1-.1.9-.9,1.6-1.8,1.6,0,0-.2,0-.2,0-8.4,0-16.8,0-25.2,0-1.1,0-1.8-.6-2-1.6-.1-1,.4-1.9,1.4-2.1,0,0,.1,0,.2,0,0-.1,0-.2,0-.4,0-2.3,0-4.7,0-7,0-1.2.8-1.9,1.9-1.9,1,0,2,0,3.1,0h.4c0-.4,0-.8,0-1.2,0-.5.1-.7.4-.7.3,0,.5.2.5.7,0,3.4,0,6.7,0,10.1v.4h13.6c0-.4,0-.7,0-1.1,0-.2,0-.4,0-.6,0-.3.2-.5.5-.5.3,0,.4.2.4.5,0,.6,0,1.2,0,1.8h4.4c0,0,0-.2,0-.3,0-2.3,0-4.7,0-7,0-.7-.3-1-1-1-1,0-2.1,0-3.1,0h-.3v.3c0,1.3,0,2.6,0,3.9,0,0,0,.2,0,.3,0,.3-.2.4-.4.4-.3,0-.4-.1-.4-.4,0,0,0-.2,0-.3,0-3,0-6.1,0-9.1,0-.7-.3-1-1-1-1,0-2.1,0-3.1,0-.2,0-.3,0-.4.2-.6.4-1.2.8-1.9,1.3-.2.2-.5.2-.7,0-.6-.4-1.2-.9-1.9-1.3-.1,0-.3-.2-.4-.2-1.1,0-2.1,0-3.2,0-.7,0-.9.3-.9,1,0,.1,0,.3,0,.4,0,.3-.2.5-.4.5-.2,0-.4-.2-.4-.5,0-.3,0-.6,0-.9.1-.8.8-1.3,1.7-1.4.7,0,1.5,0,2.2,0,.1,0,.2,0,.3,0-.4-.4-.7-.8-1-1.2-.9-1.3-1.5-2.7-1.5-4.3,0-2.9,2.3-5.4,5.2-5.7,0,0,.1,0,.2,0,.4,0,.8,0,1.2,0ZM131.2,434.8c-4.2,0-8.3,0-12.5,0-.1,0-.2,0-.3,0-.5,0-.9.4-.9.9,0,.7.4,1.1,1.1,1.1,8.4,0,16.8,0,25.2,0,0,0,.2,0,.2,0,.5,0,.8-.4.9-.9,0-.7-.4-1.1-1.1-1.1-4.2,0-8.4,0-12.7,0ZM126.2,413.6c0,.7.2,1.5.6,2.2,1,2,2.6,3.3,4.4,4.4,0,0,.2,0,.3,0,1.5-.9,2.9-2.1,3.9-3.6.8-1.1,1.2-2.4,1-3.8-.3-2.6-2.6-4.6-5.3-4.5-2.6.1-4.8,2.4-4.8,5.2ZM123.5,425.6c0,0,0,0,0,0-1.1,0-2.2,0-3.3,0-.7,0-1,.3-1,1,0,2.3,0,4.7,0,7,0,.1,0,.2,0,.3h4.4v-8.3Z"/>
      <path class="cls-5" d="M128.6,429.8c0,.4,0,.8,0,1.2,0,.6-.4.9-.9.9-.3,0-.6,0-.9,0-.5,0-.9-.4-.9-.9,0-.8,0-1.6,0-2.5,0-.5.4-.9.9-.9.3,0,.6,0,.9,0,.5,0,.9.4.9.9,0,0,0,0,0,0,0,.4,0,.8,0,1.2ZM127.7,431v-2.5h-.9v2.5h.9Z"/>
      <path class="cls-5" d="M132.5,429.8c0,.4,0,.8,0,1.2,0,.5-.4.9-.9.9-.3,0-.6,0-.9,0-.5,0-.9-.4-.9-.9,0-.8,0-1.7,0-2.5,0-.5.4-.8.9-.9.3,0,.6,0,.9,0,.5,0,.9.4.9.9,0,.4,0,.8,0,1.3h0ZM131.6,431v-2.5h-.9v2.5h.9Z"/>
      <path class="cls-5" d="M133.7,429.8c0-.4,0-.8,0-1.1,0-.6.4-.9.9-.9.3,0,.5,0,.8,0,.5,0,.9.4.9.9,0,.8,0,1.7,0,2.5,0,.5-.4.9-.9.9-.3,0-.6,0-.9,0-.5,0-.9-.4-.9-.9,0-.4,0-.9,0-1.3h0ZM135.5,431v-2.5h-.9v2.5h.9Z"/>
      <path class="cls-5" d="M139.8,429.8c0-.4,0-.8,0-1.2,0-.5.4-.9.9-.9.3,0,.5,0,.8,0,.5,0,.9.3.9.8,0,.9,0,1.7,0,2.6,0,.5-.4.8-.9.8-.3,0-.6,0-.9,0-.5,0-.9-.4-.9-.9,0-.4,0-.8,0-1.2ZM140.7,428.6v2.5h.9v-2.5h-.9Z"/>
      <path class="cls-5" d="M136.1,422.9c0,.3-.2.5-.4.5-.2,0-.4-.1-.5-.4,0-.2-.1-.4-.4-.4-.2,0-.3.2-.4.4,0,.3-.2.4-.5.4-.2,0-.4-.2-.4-.5,0-.6.6-1.2,1.2-1.2.7,0,1.3.6,1.3,1.2Z"/>
      <path class="cls-5" d="M128.8,422.9c0,.2-.2.4-.4.5-.2,0-.4-.1-.5-.4,0-.2-.1-.4-.4-.4-.2,0-.3.2-.4.4,0,.3-.2.4-.5.4-.2,0-.4-.2-.4-.5,0-.6.6-1.2,1.3-1.2.7,0,1.3.6,1.3,1.2Z"/>
      <path class="cls-5" d="M131.2,424.7c-.5,0-.8-.2-1.1-.5-.2-.2-.2-.4,0-.6.2-.2.4-.2.6,0,.4.4.7.4,1.1,0,.2-.2.5-.2.6,0,.2.2.2.4,0,.6-.3.3-.7.5-1.2.5Z"/>
      <path class="cls-5" d="M127.9,413.1c0-1.8,1.5-3.3,3.3-3.3,1.8,0,3.3,1.5,3.3,3.3,0,1.8-1.5,3.3-3.3,3.3-1.8,0-3.3-1.5-3.3-3.3ZM131.2,415.5c1.4,0,2.5-1.1,2.4-2.5,0-1.3-1.1-2.4-2.4-2.4-1.3,0-2.5,1.1-2.5,2.5,0,1.4,1.1,2.4,2.5,2.4Z"/>
      <path class="cls-5" d="M122.7,429.8c0,.4,0,.8,0,1.2,0,.6-.4.9-.9.9-.3,0-.5,0-.8,0-.5,0-.9-.3-.9-.8,0-.8,0-1.7,0-2.5,0-.5.4-.9.9-.9.3,0,.6,0,.9,0,.5,0,.9.4.9.9,0,.4,0,.8,0,1.2ZM121.8,428.6h-.9v2.5h.9v-2.5Z"/>
    </g>
  </g>
</svg>