<?xml version="1.0" encoding="UTF-8"?>
<svg id="_Layer_" data-name=" Layer " xmlns="http://www.w3.org/2000/svg" xmlns:xlink="http://www.w3.org/1999/xlink" viewBox="0 0 4818.99 1830">
  <defs>
    <style>
      .cls-1 {
        fill: url(#Unnamed_Pattern);
      }

      .cls-1, .cls-2, .cls-3, .cls-4, .cls-5, .cls-6 {
        stroke-width: 0px;
      }

      .cls-2 {
        fill: #2ea3b3;
      }

      .cls-3 {
        fill: url(#Unnamed_Pattern_3);
      }

      .cls-7, .cls-8, .cls-9 {
        isolation: isolate;
      }

      .cls-4, .cls-10 {
        fill: none;
      }

      .cls-5 {
        fill: url(#Unnamed_Pattern_2);
      }

      .cls-6 {
        fill: #e8fbfc;
      }

      .cls-10 {
        stroke: url(#New_Pattern_Swatch_2);
        stroke-linecap: round;
        stroke-linejoin: round;
        stroke-width: 5.16px;
      }

      .cls-8 {
        font-size: 49.08px;
      }

      .cls-8, .cls-9 {
        fill: #818283;
        font-family: Poppins-Regular, Poppins;
      }

      .cls-9 {
        font-size: 28.06px;
      }
    </style>
    <pattern id="Unnamed_Pattern_2" data-name="Unnamed Pattern 2" x="0" y="0" width="226.04" height="234.62" patternTransform="translate(-1217.35 2811.86)" patternUnits="userSpaceOnUse" viewBox="0 0 226.04 234.62">
      <g>
        <rect class="cls-4" width="226.04" height="234.62"/>
        <g>
          <rect class="cls-4" width="226.04" height="234.62"/>
          <rect class="cls-2" width="226.04" height="234.62"/>
        </g>
      </g>
    </pattern>
    <pattern id="New_Pattern_Swatch_2" data-name="New Pattern Swatch 2" x="0" y="0" width="226.04" height="234.62" patternTransform="translate(-1217.35 -15402.14) scale(1 -1)" patternUnits="userSpaceOnUse" viewBox="0 0 226.04 234.62">
      <g>
        <rect class="cls-4" width="226.04" height="234.62"/>
        <g>
          <rect class="cls-4" width="226.04" height="234.62"/>
          <rect class="cls-2" width="226.04" height="234.62"/>
        </g>
      </g>
    </pattern>
    <pattern id="Unnamed_Pattern_3" data-name="Unnamed Pattern 3" x="0" y="0" width="226.04" height="234.62" patternTransform="translate(-1217.35 2811.86)" patternUnits="userSpaceOnUse" viewBox="0 0 226.04 234.62">
      <g>
        <rect class="cls-4" width="226.04" height="234.62"/>
        <g>
          <rect class="cls-4" width="226.04" height="234.62"/>
          <rect class="cls-2" width="226.04" height="234.62"/>
        </g>
      </g>
    </pattern>
    <pattern id="Unnamed_Pattern" data-name="Unnamed Pattern" x="0" y="0" width="226.04" height="234.62" patternTransform="translate(-1217.35 2811.86)" patternUnits="userSpaceOnUse" viewBox="0 0 226.04 234.62">
      <g>
        <rect class="cls-4" width="226.04" height="234.62"/>
        <g>
          <rect class="cls-4" width="226.04" height="234.62"/>
          <rect class="cls-2" width="226.04" height="234.62"/>
        </g>
      </g>
    </pattern>
  </defs>
  <rect class="cls-6" x="348.34" y="459.57" width="502.65" height="956.68" rx="128.1" ry="128.1"/>
  <rect class="cls-6" x="2718.24" y="459.57" width="502.65" height="956.68" rx="128.1" ry="128.1"/>
  <rect class="cls-6" x="3902.44" y="240.93" width="502.65" height="956.68" rx="128.1" ry="128.1"/>
  <rect class="cls-6" x="1530.22" y="246.57" width="502.65" height="956.68" rx="128.1" ry="128.1"/>
  <path class="cls-5" d="M306.73,956.15v-370.03c0-45.76,18.54-87.16,48.53-117.15s71.39-48.52,117.15-48.53h265.72c42.66,0,81.26,17.28,109.22,45.24,27.95,27.96,45.24,66.56,45.24,109.22v929.35c0,88.15,71.46,159.61,159.62,159.62h276.16c88.15,0,159.61-71.46,159.62-159.62V362.96c0-42.66,17.28-81.26,45.24-109.22s66.56-45.24,109.22-45.24h278.52c42.66,0,81.26,17.28,109.22,45.24,27.95,27.96,45.24,66.56,45.24,109.22v1141.29c0,88.15,71.46,159.61,159.62,159.62h282.46c88.15,0,159.61-71.46,159.62-159.62v-929.9c0-42.66,17.28-81.26,45.24-109.22s66.56-45.24,109.22-45.24h264.94c45.76,0,87.16,18.54,117.15,48.53s48.52,71.39,48.53,117.15v339.93c0,1.42,1.15,2.58,2.58,2.58s2.58-1.16,2.58-2.58v-339.93c0-94.35-76.49-170.84-170.84-170.84h-264.94c-88.15,0-159.61,71.46-159.62,159.62v929.9c0,42.66-17.28,81.26-45.24,109.22s-66.56,45.24-109.22,45.24h-282.46c-42.66,0-81.26-17.28-109.22-45.24s-45.24-66.56-45.24-109.22V362.96c0-88.15-71.46-159.61-159.62-159.62h-278.52c-88.15,0-159.61,71.46-159.62,159.62v1141.29c0,42.66-17.28,81.26-45.24,109.22s-66.56,45.24-109.22,45.24h-276.16c-42.66,0-81.26-17.28-109.22-45.24-27.96-27.96-45.24-66.56-45.24-109.22v-929.35c0-88.15-71.46-159.61-159.62-159.62h-265.72c-94.35,0-170.84,76.49-170.84,170.84v370.03c0,1.42,1.16,2.58,2.58,2.58s2.58-1.16,2.58-2.58h0Z"/>
  <g>
    <path class="cls-2" d="M2969.56,1361.43c2.29,0,4.16,1.87,4.16,4.16s-1.87,4.16-4.16,4.16-4.16-1.87-4.16-4.16,1.87-4.16,4.16-4.16M2969.56,1358.28c-4.04,0-7.31,3.27-7.31,7.31s3.27,7.31,7.31,7.31,7.31-3.27,7.31-7.31-3.27-7.31-7.31-7.31h0Z"/>
    <path class="cls-2" d="M2893.45,1361.43c2.29,0,4.16,1.87,4.16,4.16s-1.87,4.16-4.16,4.16-4.16-1.87-4.16-4.16,1.87-4.16,4.16-4.16M2893.45,1358.28c-4.04,0-7.31,3.27-7.31,7.31s3.27,7.31,7.31,7.31,7.31-3.27,7.31-7.31-3.27-7.31-7.31-7.31h0Z"/>
    <path class="cls-2" d="M3007.62,1361.43c2.29,0,4.16,1.87,4.16,4.16s-1.87,4.16-4.16,4.16-4.16-1.87-4.16-4.16,1.87-4.16,4.16-4.16M3007.62,1358.28c-4.04,0-7.31,3.27-7.31,7.31s3.27,7.31,7.31,7.31,7.31-3.27,7.31-7.31-3.27-7.31-7.31-7.31h0Z"/>
    <path class="cls-2" d="M3045.67,1358.28c-4.04,0-7.31,3.27-7.31,7.31s3.27,7.31,7.31,7.31,7.31-3.27,7.31-7.31-3.27-7.31-7.31-7.31h0Z"/>
    <path class="cls-2" d="M2931.51,1361.43c2.29,0,4.16,1.87,4.16,4.16s-1.87,4.16-4.16,4.16-4.16-1.87-4.16-4.16,1.87-4.16,4.16-4.16M2931.51,1358.28c-4.04,0-7.31,3.27-7.31,7.31s3.27,7.31,7.31,7.31,7.31-3.27,7.31-7.31-3.27-7.31-7.31-7.31h0Z"/>
  </g>
  <g>
    <path class="cls-2" d="M561.61,1361.43c2.29,0,4.16,1.87,4.16,4.16s-1.87,4.16-4.16,4.16-4.16-1.87-4.16-4.16,1.87-4.16,4.16-4.16M561.61,1358.28c-4.04,0-7.31,3.27-7.31,7.31s3.27,7.31,7.31,7.31,7.31-3.27,7.31-7.31-3.27-7.31-7.31-7.31h0Z"/>
    <path class="cls-2" d="M599.66,1361.43c2.29,0,4.16,1.87,4.16,4.16s-1.87,4.16-4.16,4.16-4.16-1.87-4.16-4.16,1.87-4.16,4.16-4.16M599.66,1358.28c-4.04,0-7.31,3.27-7.31,7.31s3.27,7.31,7.31,7.31,7.31-3.27,7.31-7.31-3.27-7.31-7.31-7.31h0Z"/>
    <path class="cls-2" d="M523.55,1358.28c-4.04,0-7.31,3.27-7.31,7.31s3.27,7.31,7.31,7.31,7.31-3.27,7.31-7.31-3.27-7.31-7.31-7.31h0Z"/>
    <path class="cls-2" d="M637.72,1361.43c2.29,0,4.16,1.87,4.16,4.16s-1.87,4.16-4.16,4.16-4.16-1.87-4.16-4.16,1.87-4.16,4.16-4.16M637.72,1358.28c-4.04,0-7.31,3.27-7.31,7.31s3.27,7.31,7.31,7.31,7.31-3.27,7.31-7.31-3.27-7.31-7.31-7.31h0Z"/>
    <path class="cls-2" d="M675.78,1361.43c2.29,0,4.16,1.87,4.16,4.16s-1.87,4.16-4.16,4.16-4.16-1.87-4.16-4.16,1.87-4.16,4.16-4.16M675.78,1358.28c-4.04,0-7.31,3.27-7.31,7.31s3.27,7.31,7.31,7.31,7.31-3.27,7.31-7.31-3.27-7.31-7.31-7.31h0Z"/>
  </g>
  <g>
    <path class="cls-2" d="M3566.31,1496.31c2.29,0,4.16,1.87,4.16,4.16s-1.87,4.16-4.16,4.16-4.16-1.87-4.16-4.16,1.87-4.16,4.16-4.16M3566.31,1493.16c-4.04,0-7.31,3.27-7.31,7.31s3.27,7.31,7.31,7.31,7.31-3.27,7.31-7.31-3.27-7.31-7.31-7.31h0Z"/>
    <path class="cls-2" d="M3490.2,1496.31c2.29,0,4.16,1.87,4.16,4.16s-1.87,4.16-4.16,4.16-4.16-1.87-4.16-4.16,1.87-4.16,4.16-4.16M3490.2,1493.16c-4.04,0-7.31,3.27-7.31,7.31s3.27,7.31,7.31,7.31,7.31-3.27,7.31-7.31-3.27-7.31-7.31-7.31h0Z"/>
    <path class="cls-2" d="M3604.36,1493.16c-4.04,0-7.31,3.27-7.31,7.31s3.27,7.31,7.31,7.31,7.31-3.27,7.31-7.31-3.27-7.31-7.31-7.31h0Z"/>
    <path class="cls-2" d="M3642.42,1496.31c2.29,0,4.16,1.87,4.16,4.16s-1.87,4.16-4.16,4.16-4.16-1.87-4.16-4.16,1.87-4.16,4.16-4.16M3642.42,1493.16c-4.04,0-7.31,3.27-7.31,7.31s3.27,7.31,7.31,7.31,7.31-3.27,7.31-7.31-3.27-7.31-7.31-7.31h0Z"/>
    <path class="cls-2" d="M3528.25,1496.31c2.29,0,4.16,1.87,4.16,4.16s-1.87,4.16-4.16,4.16-4.16-1.87-4.16-4.16,1.87-4.16,4.16-4.16M3528.25,1493.16c-4.04,0-7.31,3.27-7.31,7.31s3.27,7.31,7.31,7.31,7.31-3.27,7.31-7.31-3.27-7.31-7.31-7.31h0Z"/>
  </g>
  <g>
    <path class="cls-2" d="M2376.31,1536.31c2.29,0,4.16,1.87,4.16,4.16s-1.87,4.16-4.16,4.16-4.16-1.87-4.16-4.16,1.87-4.16,4.16-4.16M2376.31,1533.16c-4.04,0-7.31,3.27-7.31,7.31s3.27,7.31,7.31,7.31,7.31-3.27,7.31-7.31-3.27-7.31-7.31-7.31h0Z"/>
    <path class="cls-2" d="M2300.2,1536.31c2.29,0,4.16,1.87,4.16,4.16s-1.87,4.16-4.16,4.16-4.16-1.87-4.16-4.16,1.87-4.16,4.16-4.16M2300.2,1533.16c-4.04,0-7.31,3.27-7.31,7.31s3.27,7.31,7.31,7.31,7.31-3.27,7.31-7.31-3.27-7.31-7.31-7.31h0Z"/>
    <path class="cls-2" d="M2414.36,1533.16c-4.04,0-7.31,3.27-7.31,7.31s3.27,7.31,7.31,7.31,7.31-3.27,7.31-7.31-3.27-7.31-7.31-7.31h0Z"/>
    <path class="cls-2" d="M2452.42,1536.31c2.29,0,4.16,1.87,4.16,4.16s-1.87,4.16-4.16,4.16-4.16-1.87-4.16-4.16,1.87-4.16,4.16-4.16M2452.42,1533.16c-4.04,0-7.31,3.27-7.31,7.31s3.27,7.31,7.31,7.31,7.31-3.27,7.31-7.31-3.27-7.31-7.31-7.31h0Z"/>
    <path class="cls-2" d="M2338.25,1536.31c2.29,0,4.16,1.87,4.16,4.16s-1.87,4.16-4.16,4.16-4.16-1.87-4.16-4.16,1.87-4.16,4.16-4.16M2338.25,1533.16c-4.04,0-7.31,3.27-7.31,7.31s3.27,7.31,7.31,7.31,7.31-3.27,7.31-7.31-3.27-7.31-7.31-7.31h0Z"/>
  </g>
  <g>
    <path class="cls-2" d="M1189.97,1536.31c2.29,0,4.16,1.87,4.16,4.16s-1.87,4.16-4.16,4.16-4.16-1.87-4.16-4.16,1.87-4.16,4.16-4.16M1189.97,1533.16c-4.04,0-7.31,3.27-7.31,7.31s3.27,7.31,7.31,7.31,7.31-3.27,7.31-7.31-3.27-7.31-7.31-7.31h0Z"/>
    <circle class="cls-2" cx="1151.91" cy="1540.47" r="7.31"/>
    <path class="cls-2" d="M1113.86,1536.31c2.29,0,4.16,1.87,4.16,4.16s-1.87,4.16-4.16,4.16-4.16-1.87-4.16-4.16,1.87-4.16,4.16-4.16M1113.86,1533.16c-4.04,0-7.31,3.27-7.31,7.31s3.27,7.31,7.31,7.31,7.31-3.27,7.31-7.31-3.27-7.31-7.31-7.31h0Z"/>
    <path class="cls-2" d="M1228.03,1536.31c2.29,0,4.16,1.87,4.16,4.16s-1.87,4.16-4.16,4.16-4.16-1.87-4.16-4.16,1.87-4.16,4.16-4.16M1228.03,1533.16c-4.04,0-7.31,3.27-7.31,7.31s3.27,7.31,7.31,7.31,7.31-3.27,7.31-7.31-3.27-7.31-7.31-7.31h0Z"/>
    <path class="cls-2" d="M1266.08,1536.31c2.29,0,4.16,1.87,4.16,4.16s-1.87,4.16-4.16,4.16-4.16-1.87-4.16-4.16,1.87-4.16,4.16-4.16M1266.08,1533.16c-4.04,0-7.31,3.27-7.31,7.31s3.27,7.31,7.31,7.31,7.31-3.27,7.31-7.31-3.27-7.31-7.31-7.31h0Z"/>
  </g>
  <g>
    <path class="cls-2" d="M1781.55,1146.9c-4.04,0-7.31,3.27-7.31,7.31s3.27,7.31,7.31,7.31,7.31-3.27,7.31-7.31-3.27-7.31-7.31-7.31h0Z"/>
    <path class="cls-2" d="M1705.44,1150.04c2.29,0,4.16,1.87,4.16,4.16s-1.87,4.16-4.16,4.16-4.16-1.87-4.16-4.16,1.87-4.16,4.16-4.16M1705.44,1146.9c-4.04,0-7.31,3.27-7.31,7.31s3.27,7.31,7.31,7.31,7.31-3.27,7.31-7.31-3.27-7.31-7.31-7.31h0Z"/>
    <path class="cls-2" d="M1819.61,1150.04c2.29,0,4.16,1.87,4.16,4.16s-1.87,4.16-4.16,4.16-4.16-1.87-4.16-4.16,1.87-4.16,4.16-4.16M1819.61,1146.9c-4.04,0-7.31,3.27-7.31,7.31s3.27,7.31,7.31,7.31,7.31-3.27,7.31-7.31-3.27-7.31-7.31-7.31h0Z"/>
    <path class="cls-2" d="M1857.66,1150.04c2.29,0,4.16,1.87,4.16,4.16s-1.87,4.16-4.16,4.16-4.16-1.87-4.16-4.16,1.87-4.16,4.16-4.16M1857.66,1146.9c-4.04,0-7.31,3.27-7.31,7.31s3.27,7.31,7.31,7.31,7.31-3.27,7.31-7.31-3.27-7.31-7.31-7.31h0Z"/>
    <path class="cls-2" d="M1743.49,1150.04c2.29,0,4.16,1.87,4.16,4.16s-1.87,4.16-4.16,4.16-4.16-1.87-4.16-4.16,1.87-4.16,4.16-4.16M1743.49,1146.9c-4.04,0-7.31,3.27-7.31,7.31s3.27,7.31,7.31,7.31,7.31-3.27,7.31-7.31-3.27-7.31-7.31-7.31h0Z"/>
  </g>
  <circle class="cls-10" cx="304.15" cy="968.44" r="15.74"/>
  <path class="cls-3" d="M4460.23,951.93c-2.73-2.73-6.34-4.61-10.35-5.18-.85-.13-1.72-.19-2.61-.19s-1.72.06-2.55.18c-4.04.56-7.66,2.45-10.4,5.19-3.31,3.31-5.37,7.9-5.37,12.95s2.06,9.65,5.37,12.96c2.74,2.74,6.36,4.62,10.4,5.18.83.12,1.68.18,2.55.18s1.76-.06,2.61-.19c4.01-.57,7.62-2.44,10.35-5.17,3.31-3.31,5.36-7.91,5.36-12.96s-2.05-9.64-5.36-12.95ZM4456.58,974.19c-1.8,1.79-4.11,3.07-6.7,3.59-.84.17-1.71.26-2.61.26s-1.73-.09-2.55-.25c-2.61-.51-4.93-1.79-6.75-3.6-2.39-2.39-3.86-5.67-3.86-9.31s1.47-6.91,3.86-9.3c1.82-1.82,4.14-3.1,6.75-3.61.82-.16,1.68-.25,2.55-.25s1.77.09,2.61.26c2.59.52,4.9,1.8,6.7,3.6,2.38,2.39,3.85,5.66,3.85,9.3s-1.47,6.92-3.85,9.31h0Z"/>
  <g class="cls-7">
    <text class="cls-8" transform="translate(1666.21 945.37)"><tspan x="0" y="0">UX Design</tspan></text>
  </g>
  <g class="cls-7">
    <text class="cls-8" transform="translate(2816.21 1085.37)"><tspan x="0" y="0">Visual design</tspan></text>
  </g>
  <g class="cls-7">
    <text class="cls-8" transform="translate(486.21 1085.37)"><tspan x="0" y="0">Discovery</tspan></text>
  </g>
  <g class="cls-7">
    <text class="cls-8" transform="translate(3355.36 1043.56)"><tspan x="0" y="0">Prototype testing</tspan></text>
  </g>
  <g class="cls-7">
    <text class="cls-8" transform="translate(2167.44 1030.31)"><tspan x="0" y="0">Interaction design</tspan></text>
  </g>
  <g class="cls-7">
    <text class="cls-8" transform="translate(1067.44 1030.31)"><tspan x="0" y="0">Research</tspan></text>
  </g>
  <g class="cls-7">
    <text class="cls-9" transform="translate(539.04 1306.72)"><tspan x="0" y="0">Stage 1</tspan></text>
  </g>
  <g class="cls-7">
    <text class="cls-9" transform="translate(1144.6 1499.68)"><tspan x="0" y="0">Stage 2</tspan></text>
  </g>
  <g class="cls-7">
    <text class="cls-9" transform="translate(1735.03 1116.07)"><tspan x="0" y="0">Stage 3</tspan></text>
  </g>
  <g class="cls-7">
    <text class="cls-9" transform="translate(2326.91 1500.47)"><tspan x="0" y="0">Stage 4</tspan></text>
  </g>
  <g class="cls-7">
    <text class="cls-9" transform="translate(2921.22 1329.93)"><tspan x="0" y="0">Stage 5</tspan></text>
  </g>
  <g class="cls-7">
    <text class="cls-9" transform="translate(3515.34 1462.85)"><tspan x="0" y="0">Stage 6</tspan></text>
  </g>
  <g class="cls-7">
    <text class="cls-9" transform="translate(4100.99 957.76)"><tspan x="0" y="0">Stage 7</tspan></text>
  </g>
  <g id="_778_Global_Growth_World_Profit" data-name=" 778 Global Growth World Profit">
    <g>
      <path class="cls-2" d="M515.68,982.52c2.14,0,3.87,1.73,3.87,3.87s-1.74,3.87-3.87,3.87-3.87-1.73-3.87-3.87,1.73-3.87,3.87-3.87Z"/>
      <path class="cls-2" d="M682.6,979.94c2.14,0,3.87,1.73,3.87,3.87s-1.74,3.87-3.87,3.87-3.87-1.73-3.87-3.87,1.73-3.87,3.87-3.87Z"/>
      <path class="cls-2" d="M730.78,880.56c2.14,0,3.87,1.74,3.87,3.87s-1.74,3.87-3.87,3.87-3.87-1.74-3.87-3.87,1.73-3.87,3.87-3.87Z"/>
      <path class="cls-2" d="M714.87,915.41c2.14,0,3.87,1.73,3.87,3.87s-1.74,3.87-3.87,3.87-3.87-1.73-3.87-3.87,1.73-3.87,3.87-3.87Z"/>
      <path class="cls-2" d="M733.37,764.83c2.14,0,3.87,1.73,3.87,3.87s-1.73,3.87-3.87,3.87-3.87-1.73-3.87-3.87,1.73-3.87,3.87-3.87Z"/>
      <path class="cls-2" d="M612.48,756.66c2.14,0,3.87,1.73,3.87,3.87s-1.74,3.87-3.87,3.87-3.87-1.73-3.87-3.87,1.73-3.87,3.87-3.87Z"/>
      <path class="cls-2" d="M714.87,797.1c2.14,0,3.87,1.73,3.87,3.87s-1.74,3.87-3.87,3.87-3.87-1.73-3.87-3.87,1.73-3.87,3.87-3.87Z"/>
      <path class="cls-2" d="M566.87,783.76c2.14,0,3.87,1.74,3.87,3.87s-1.73,3.87-3.87,3.87-3.87-1.74-3.87-3.87,1.74-3.87,3.87-3.87Z"/>
      <path class="cls-2" d="M510.51,818.61c2.14,0,3.87,1.73,3.87,3.87s-1.74,3.87-3.87,3.87-3.87-1.73-3.87-3.87,1.73-3.87,3.87-3.87Z"/>
      <path class="cls-2" d="M692.5,899.49h-92.07v-92.92c0-1.29-1.29-2.58-2.58-2.58-54.21,0-98.52,44.31-98.52,98.52h0c0,54.64,44.31,98.52,98.52,98.52h0c27.53,0,52.05-11.61,70.12-29.68.86-.43,1.29-.86,1.72-1.72,17.21-18.5,26.25-42.59,26.25-66.68,0-2.15-1.72-3.44-3.44-3.44v-.02ZM666.68,964.45c-6.89-6.45-14.2-12.05-22.37-16.35,3.44-12.91,5.59-27.53,6.02-42.59h40.01c-.86,22.37-9.47,43.02-23.66,58.94h0ZM644.74,905.08c0,14.2-2.15,27.96-5.16,40.44-12.05-5.59-25.38-8.6-39.15-9.03v-30.97l44.31-.43h0ZM528.58,964.45c-14.2-15.92-23.23-36.57-23.66-59.37h40.01c.43,15.06,2.15,29.68,6.02,43.02-8.18,4.3-15.49,9.89-22.37,16.35ZM528.58,840.12c6.45,6.45,14.2,12.05,22.37,16.35-3.87,13.34-5.59,27.96-6.02,43.02h-40.01c.43-22.8,9.47-43.45,23.66-59.37h0ZM563.86,837.54c8.18-16.78,19.36-26.67,30.98-27.96v53.78c-13.34-.43-25.81-3.44-37.86-9.03,2.15-6.45,4.3-12.05,6.88-16.78h0ZM550.09,905.08h44.74v30.97c-13.77.43-27.1,3.44-39.15,9.47-3.44-12.48-5.16-26.24-5.59-40.44h0ZM594.84,941.65v53.78c-11.19-1.29-21.94-10.32-30.55-26.24-3.01-5.59-5.16-11.62-7.31-18.07,12.05-6.02,24.52-9.03,37.86-9.46h0ZM600.43,941.65c13.33.43,25.81,3.44,37.43,9.03-2.15,6.45-4.73,12.91-7.31,18.07-8.18,15.92-18.93,24.95-30.11,26.24v-53.35h-.01ZM550.09,899.49c0-14.2,2.15-27.96,5.59-40.44,12.48,6.02,25.38,9.03,39.15,9.47v30.97h-44.74ZM552.25,851.31c-7.31-4.3-14.2-9.03-20.22-15.06,12.05-12.05,27.54-20.65,44.74-24.52-11.62,9.47-19.79,25.38-24.52,39.58ZM532.46,968.32c6.02-6.02,12.91-11.18,20.22-15.06,4.73,14.63,12.47,30.55,24.52,40.01-17.21-4.3-32.69-12.91-44.74-24.95ZM642.59,952.84c7.31,3.87,14.2,9.03,20.22,15.06-12.05,12.05-27.54,20.65-44.74,24.95,12.05-9.47,19.79-25.38,24.52-40.01Z"/>
      <path class="cls-2" d="M533.32,807.85c9.03,0,16.35-7.31,16.35-16.35s-7.31-16.35-16.35-16.35-16.35,7.31-16.35,16.35,7.31,16.35,16.35,16.35ZM533.32,780.75c6.02,0,10.76,4.73,10.76,10.76s-4.73,10.76-10.76,10.76-10.76-4.73-10.76-10.76,4.73-10.76,10.76-10.76Z"/>
      <path class="cls-2" d="M717.45,952.84c-6.89,0-12.05,5.59-12.05,12.05,0,6.88,5.59,12.05,12.05,12.05s12.05-5.59,12.05-12.05-5.59-12.05-12.05-12.05ZM717.45,971.77c-3.87,0-6.89-3.01-6.89-6.88s3.01-6.88,6.89-6.88,6.88,3.01,6.88,6.88-3.44,6.88-6.88,6.88Z"/>
      <path class="cls-2" d="M713.15,832.81c1.29,0,2.58-1.29,2.58-2.58,0-.86-.43-1.72-.86-2.15l-26.24-23.66c-.86-.86-2.58-.86-3.44,0l-3.01,2.58v-15.49h18.93c1.29,0,2.58-1.29,2.58-2.58,0-.86-.43-1.72-.86-2.15l-37.43-33.56c-.86-.86-2.58-.86-3.44,0l-37.86,33.56c-.86.86-1.29,1.72-.86,3.01.43.86,1.29,1.72,2.58,1.72h18.93v32.69l-6.88-6.02c-.86-.86-2.58-.86-3.44,0l-26.25,23.23c-1.29.86-1.72,1.72-1.29,3.01.43.86,1.29,1.72,2.58,1.72h12.48v42.16c0,1.29,1.29,2.58,2.58,2.58h22.37c1.29,0,2.58-1.29,2.58-2.58v-32.27h23.23v18.93c0,1.29,1.29,2.58,2.58,2.58h22.37c1.29,0,2.58-1.29,2.58-2.58v-42.16h12.91,0ZM686.9,810.01l19.36,17.21h-38.29l18.93-17.21ZM663.24,758.81l30.55,27.1h-61.09l30.54-27.1h0ZM635.71,823.77l19.36,17.21h-38.29l18.93-17.21ZM644.31,885.72h-17.21v-39.58h17.21v39.58ZM649.9,850.88v-4.73s12.48,0,12.05,0c1.29,0,2.58-1.29,2.58-2.58,0-.86-.43-1.72-.86-2.15l-13.77-12.48v-37.43h27.1v20.65l-18.07,15.92c-.86.86-1.29,1.72-.86,3.01.43,1.29,1.29,1.72,2.58,1.72h12.48v18.07h-23.23ZM695.51,872.39h-17.21v-39.58h17.21v39.58Z"/>
    </g>
  </g>
  <g id="_798_Analysis_Analytics_Data_Graph_Search" data-name=" 798 Analysis Analytics Data Graph Search">
    <g>
      <path class="cls-2" d="M1225.46,1174.81c-5.66-14.8-17.41-26.55-32.64-32.64-1.31-.44-3.05,0-3.48,1.74l-2.61,6.53c-31.77-8.7-60.92,13.93-60.92,44.82,0,26.11,20.89,47,47,47s46.56-20.89,46.56-47c0-4.79-.43-10.01-2.18-14.36l6.1-2.18c.87-.43,1.3-.87,1.74-1.3.43-1.31.87-2.18.43-2.61h0ZM1184.99,1155.23l-11.31,30.03-9.57-30.46c6.96-1.74,14.36-1.31,20.89.43h-.01ZM1173.24,1236.61c-23.07,0-41.34-18.71-41.34-41.34,0-17.41,10.88-32.64,27.42-38.73l10.01,31.77-12.19-6.53c-1.31-.87-3.05,0-3.48,1.3-.87,1.3,0,3.05,1.31,3.48l17.84,9.57c.43,0,.87.43,1.3.43l40.47,1.3c-1.74,21.32-19.58,38.73-41.34,38.73v.02ZM1214.15,1192.22l-26.55-.87,24.81-9.14c.87,3.05,1.74,6.09,1.74,10.01ZM1178.47,1189.17l15.23-40.47c11.32,5.22,20.46,14.36,25.67,25.67l-40.9,14.8h0Z"/>
      <path class="cls-2" d="M1175.85,1124.76c-36.99,0-67.45,30.03-67.45,67.45s30.03,67.02,67.45,67.02,67.46-30.46,67.46-67.02-30.46-67.45-67.46-67.45ZM1175.85,1253.58c-33.95,0-61.8-27.85-61.8-61.8s27.85-61.8,61.8-61.8,61.8,27.85,61.8,61.8-27.42,61.8-61.8,61.8Z"/>
      <path class="cls-2" d="M1259.41,1244.88c-.87-.87-2.61-.87-3.92,0l-4.35,4.35-7.4-7.4c24.37-33.51,20.89-80.07-8.27-109.67-16.1-16.1-37.42-24.81-60.05-24.81-46.57,0-84.86,37.86-84.86,84.86s38.73,84.43,84.86,84.43c17.41,0,34.81-5.22,50.05-16.1l7.4,7.4-4.35,4.35c-.87.87-.87,2.61,0,3.92l45.26,45.26c7.83,7.83,20.89,7.83,28.72,0l1.74-1.74c7.83-7.83,7.83-20.89,0-28.72l-44.82-46.13h-.01ZM1228.07,1254.89c-.87-.87-2.61-.87-3.48-.44-31.33,24.37-76.59,21.76-104.44-6.53-14.8-14.8-23.06-34.82-23.06-56.14,0-43.95,35.25-79.2,79.2-79.2,21.32,0,40.9,8.27,56.14,23.06,28.28,28.29,30.9,73.11,6.53,104.44-.87.87-.87,2.61.44,3.48l8.7,8.7-10.44,10.45-9.58-7.83h0ZM1301.19,1315.38l-1.74,1.74c-5.66,5.66-15.23,5.66-21.33,0l-43.52-43.52,23.07-23.07,43.52,43.52c5.66,6.09,5.66,15.23,0,21.32h0Z"/>
      <path class="cls-2" d="M1281.6,1297.53c-1.74,1.74-3.05,4.35-3.05,6.96,0,5.66,4.35,10.01,10.01,10.01,2.61,0,5.22-.87,6.96-3.05,3.92-3.92,3.92-10.45,0-14.36-3.48-3.48-10.01-3.48-13.93.43h.01ZM1288.57,1309.28c-2.61,0-4.79-2.18-4.79-4.79s2.18-4.79,4.79-4.79,4.79,2.18,4.79,4.79c0,1.3-2.18,4.79-4.79,4.79Z"/>
      <path class="cls-2" d="M1257.67,1263.59l-10.01,10.45c-1.74,1.74-.43,4.79,1.74,4.79.87,0,1.31-.43,1.74-.87l10.45-10.44c.87-.87.87-2.61,0-3.92-.87-1.3-2.61-1.3-3.92,0h0Z"/>
      <path class="cls-2" d="M1119.28,1312.33c0,1.3,1.31,2.61,2.61,2.61h100.53c1.31,0,2.61-1.3,2.61-2.61s-1.31-2.61-2.61-2.61h-100.53c-1.3-.44-2.61.87-2.61,2.61Z"/>
      <path class="cls-2" d="M1249.83,1320.16h-144.05c-1.3,0-2.61,1.31-2.61,2.61s1.31,2.61,2.61,2.61h144.05c1.31,0,2.61-1.3,2.61-2.61s-1.31-2.61-2.61-2.61Z"/>
      <path class="cls-2" d="M1290.74,1154.36c12.19,0,21.76-9.57,21.76-21.76s-9.57-21.76-21.76-21.76-21.76,9.57-21.76,21.76,9.57,21.76,21.76,21.76ZM1290.74,1116.5c9.14,0,16.54,7.4,16.54,16.54s-7.4,16.54-16.54,16.54-16.54-7.4-16.54-16.54,7.4-16.54,16.54-16.54Z"/>
      <path class="cls-2" d="M1235.04,1108.23c2.16,0,3.92,1.75,3.92,3.92s-1.75,3.92-3.92,3.92-3.92-1.75-3.92-3.92,1.75-3.92,3.92-3.92Z"/>
      <path class="cls-2" d="M1300.31,1176.12c2.17,0,3.92,1.75,3.92,3.92s-1.75,3.92-3.92,3.92-3.92-1.75-3.92-3.92,1.75-3.92,3.92-3.92Z"/>
      <path class="cls-2" d="M1292.05,1225.29c2.16,0,3.92,1.75,3.92,3.92s-1.75,3.92-3.92,3.92-3.92-1.75-3.92-3.92,1.75-3.92,3.92-3.92Z"/>
      <path class="cls-2" d="M1087.95,1317.55c2.16,0,3.92,1.75,3.92,3.92s-1.75,3.92-3.92,3.92-3.92-1.75-3.92-3.92,1.75-3.92,3.92-3.92Z"/>
      <path class="cls-2" d="M1109.71,1103.01c2.16,0,3.92,1.75,3.92,3.92s-1.75,3.92-3.92,3.92-3.92-1.75-3.92-3.92,1.75-3.92,3.92-3.92Z"/>
      <path class="cls-2" d="M1085.33,1162.63c2.16,0,3.92,1.75,3.92,3.92s-1.75,3.92-3.92,3.92-3.92-1.75-3.92-3.92,1.75-3.92,3.92-3.92Z"/>
      <path class="cls-2" d="M1207.62,1287.96c2.16,0,3.92,1.76,3.92,3.92s-1.75,3.92-3.92,3.92-3.92-1.75-3.92-3.92,1.75-3.92,3.92-3.92Z"/>
      <path class="cls-2" d="M1108.4,1265.77c0-7.4-6.1-13.49-13.49-13.49s-13.49,6.09-13.49,13.49,6.09,13.49,13.49,13.49,13.49-6.09,13.49-13.49ZM1094.91,1274.03c-4.35,0-8.27-3.48-8.27-8.27,0-4.35,3.48-8.27,8.27-8.27s8.27,3.48,8.27,8.27-3.92,8.27-8.27,8.27Z"/>
      <path class="cls-2" d="M1300.31,1328.43c2.17,0,3.92,1.75,3.92,3.92s-1.75,3.92-3.92,3.92-3.92-1.75-3.92-3.92,1.75-3.92,3.92-3.92Z"/>
    </g>
  </g>
  <g>
    <path class="cls-2" d="M1732.69,840.72c-1.64-.55-3.36-.93-4.91-1.67-7.15-3.36-11.04-9.04-11.69-16.92-.06-.71-.04-1.43-.04-2.14v-202.5c0-9.83,5.17-17.28,13.95-19.85,2.1-.61,4.37-.86,6.57-.86,36.46-.05,72.91-.04,109.37-.03,12.2,0,20.52,8.26,20.55,20.47.05,19.22.01,38.43.01,57.65v44.07c0,.94-.01,1.92-.24,2.83-.45,1.76-1.73,2.7-3.51,2.6-1.87-.1-3.1-1.18-3.32-3.12-.11-.94-.07-1.9-.07-2.86v-101.01c0-6.92-3.54-12.17-9.75-13.05-5.14-.73-10.45-.36-15.68-.37-.38,0-.98.88-1.11,1.44-.56,2.39-.93,4.83-1.46,7.23-1.68,7.68-8.08,13.14-15.95,13.2-16.12.12-32.25.12-48.37,0-7.75-.06-14.06-5.42-15.81-13.05-.65-2.85-1.17-5.74-1.75-8.61-5.55,0-11.04-.49-16.41.13-5.72.67-9.57,5.74-9.86,11.51-.03.55-.02,1.11-.02,1.67v202.5c0,7.13,3.73,12.08,10.09,13.35,1.08.22,2.21.23,3.32.23,36.46.01,72.91.01,109.37,0,8.13,0,13.32-5.1,13.36-13.17.05-10.32.01-20.65,0-30.97,0-.62-.08-1.23-.14-2.08h-14.11c-2.7,0-5.4.04-8.1-.01-4.47-.08-7.85-2.06-10.37-5.75-.5-.74-1.67-1.44-2.53-1.44-18.58-.08-37.17-.07-55.76-.02-.78,0-1.96.43-2.27,1.02-2.57,4.84-6.56,7.15-11.97,7.2-.22,0-.43.11-.84.22,0,3.39-.1,6.8.03,10.19.1,2.37,1.76,3.73,4.35,3.77,3.97.06,7.94,0,11.91.02,2.81.02,4.45,1.32,4.47,3.5.03,2.17-1.67,3.61-4.4,3.63-4.13.03-8.26.08-12.39-.01-6.4-.13-11.03-4.83-11.15-11.25-.06-3.25-.01-6.5-.01-9.85-1.56-.23-3.05-.31-4.47-.68-5.84-1.5-9.63-6.66-9.13-12.28.54-6.01,4.88-10.48,10.99-10.88,4.11-.26,8.26-.23,12.38-.01,4.56.24,7.84,2.66,9.98,6.71.34.64,1.17,1.42,1.79,1.43,5.55.11,11.1.06,16.88.06.05-.9.13-1.66.14-2.41.01-4.84-.03-9.69.01-14.53.06-6.68,4.69-11.38,11.42-11.44,8.89-.08,17.79-.05,26.69,0,1.57,0,2.45-.22,3.12-1.97,1.86-4.84,5.67-7.48,10.84-7.51,17.47-.11,34.95-.11,52.42,0,6.56.04,11.67,5.3,11.75,11.67.08,6.46-5.04,11.8-11.73,11.95-6.59.14-13.18.04-19.78.05h-2.73v4.85c.85.04,1.69.11,2.53.11,6.35,0,12.71-.02,19.06.01,7.25.04,12.6,5.04,12.64,11.76.04,6.84-5.33,11.87-12.74,11.89-6.35.02-12.71,0-19.06,0h-2.58v31.84c0,11.51-5.1,18.18-16.2,21.24-.14.04-.24.19-.36.28h-117.24l.02.02ZM1859.24,758.73h-21.61c-4.71,0-8.43-1.83-11.03-5.86-.35-.55-1.17-1.13-1.78-1.14-9.68-.07-19.37-.08-29.05-.01-2.16.01-3.82,1.26-3.89,3.43-.17,5.84-.06,11.69-.06,17.44.36.17.5.28.64.28,10.48.03,20.95.07,31.43,0,.6,0,1.47-.77,1.74-1.39,2.28-5.26,6.27-7.79,11.94-7.8h19.05c.84,0,1.68-.08,2.61-.13v-4.82h.01ZM1825.79,604.02h-69.07c.65,2.99.98,5.95,1.97,8.66,1.37,3.73,4.33,5.98,8.37,6,16.12.1,32.24.08,48.37.01,3.94-.02,7.5-2.68,8.6-6.4.78-2.64,1.17-5.4,1.76-8.28h0ZM1863.04,742.17c-8.5,0-17-.03-25.5.01-3.79.02-6.05,2.66-5.21,5.93.58,2.25,2.48,3.46,5.58,3.46,16.68.01,33.36.01,50.04-.01.93,0,2.17.07,2.74-.46,1.19-1.11,2.73-2.56,2.82-3.95s-1.18-3.12-2.31-4.26c-.68-.68-2.22-.68-3.38-.69-8.26-.05-16.52-.03-24.78-.03h0ZM1863.04,780.2c8.5,0,17,.02,25.49-.01,3.08-.01,5.22-2.03,5.18-4.72-.03-2.61-2.07-4.47-5.05-4.63-.48-.02-.95,0-1.43,0h-48.61c-.87,0-1.76-.01-2.61.14-2.75.51-4.32,2.96-3.71,5.66.5,2.23,2.38,3.54,5.24,3.55,8.5.02,17,0,25.49,0h.01ZM1749.57,781.15c1.82,0,3.65.07,5.47-.02,2.74-.12,4.75-2.15,4.74-4.67,0-2.44-1.87-4.51-4.53-4.61-3.72-.14-7.46-.15-11.18,0-2.7.11-4.48,2.13-4.47,4.63,0,2.56,1.96,4.52,4.73,4.65,1.74.08,3.49.01,5.23.01h.01Z"/>
    <path class="cls-2" d="M1824.73,677.7c5.38,7.09,10.65,14.04,15.92,20.99,1.82,2.4,3.67,4.79,5.46,7.22,1.65,2.22,1.53,4.41-.23,5.65-1.8,1.27-3.84.78-5.53-1.44-6.26-8.21-12.48-16.44-18.72-24.66-.38-.5-.79-.98-1.35-1.67-.61.73-1.16,1.34-1.66,2-5.74,7.6-11.48,15.21-17.22,22.81-.38.51-.74,1.05-1.2,1.47-1.47,1.34-3.11,1.56-4.77.42-1.53-1.06-1.84-3.19-.66-4.89,1.4-2.02,2.94-3.95,4.42-5.91,5.49-7.28,10.98-14.56,16.56-21.97-5.03-6.64-10.01-13.21-14.99-19.77-1.2-1.58-2.44-3.13-3.59-4.75-1.41-1.98-1.21-4.02.45-5.28,1.61-1.23,3.75-.92,5.21.98,5.51,7.18,10.97,14.4,16.44,21.6.24.31.49.62.94,1.17.58-.72,1.12-1.34,1.61-1.99,4.97-6.59,9.94-13.19,14.91-19.78.33-.44.66-.9,1.03-1.31,1.42-1.55,3.38-1.83,4.9-.72,1.63,1.19,1.96,3.2.71,5.06-1.06,1.58-2.27,3.06-3.41,4.58-5.01,6.66-10.03,13.31-15.21,20.19h-.02Z"/>
    <path class="cls-2" d="M1735.04,672.04v-19.53c0-3.21,1.25-4.84,3.62-4.8,2.34.04,3.53,1.69,3.53,4.93,0,12.23.47,24.47-.15,36.67-.47,9.23,9.52,16.6,17.82,15.47,3.87-.52,7.36-1.92,10.29-4.54,2.99-2.67,4.62-5.89,4.6-10.02-.08-12.3-.03-24.61-.03-36.91,0-.71-.05-1.44.04-2.14.25-2.21,1.77-3.56,3.8-3.44,1.92.11,3.27,1.49,3.29,3.66.06,6.43.03,12.86.03,19.29v17.86c0,11.08-5.77,18.98-16.34,22.36-12.9,4.13-27.68-3.87-30.14-16.5-.57-2.92-.31-6.01-.34-9.02-.05-4.45-.01-8.89-.01-13.34h-.01Z"/>
    <path class="cls-2" d="M1810.7,817.88c-4.92,0-9.84.04-14.76,0-6.87-.07-12.09-5.15-12.13-11.74-.04-6.54,5.16-11.75,12.04-11.81,10-.09,19.99-.1,29.99,0,6.92.07,11.91,5.25,11.82,11.95-.09,6.54-5.19,11.52-11.97,11.6-5,.06-10,.01-14.99.01h0ZM1810.72,810.74c4.84,0,9.67.02,14.51,0,3.24-.02,5.21-1.75,5.27-4.53.06-2.89-1.91-4.73-5.29-4.74-9.67-.04-19.34-.04-29.01,0-3.18.01-5.23,1.92-5.21,4.64.01,2.69,2.12,4.61,5.24,4.63,4.84.04,9.67,0,14.51,0h-.02Z"/>
    <path class="cls-2" d="M1843.78,618.9c-1.94-.05-3.43-1.63-3.38-3.57.05-1.93,1.63-3.41,3.57-3.37,1.92.05,3.48,1.66,3.42,3.55-.06,1.88-1.72,3.44-3.61,3.39Z"/>
    <path class="cls-2" d="M1791.09,615.44c-2.22,0-4.45.06-6.67-.01-2.32-.07-3.73-1.4-3.8-3.4-.07-2.08,1.41-3.65,3.79-3.69,4.6-.08,9.21-.08,13.81,0,2.29.04,3.66,1.51,3.66,3.55s-1.33,3.44-3.65,3.52c-2.38.08-4.76.02-7.14.02h0Z"/>
  </g>
  <g>
    <path class="cls-2" d="M4155.58,992.67c-4.04,0-7.31,3.27-7.31,7.31s3.27,7.31,7.31,7.31,7.31-3.27,7.31-7.31-3.27-7.31-7.31-7.31h0Z"/>
    <path class="cls-2" d="M4079.47,995.82c2.29,0,4.16,1.87,4.16,4.16s-1.87,4.16-4.16,4.16-4.16-1.87-4.16-4.16,1.87-4.16,4.16-4.16M4079.47,992.67c-4.04,0-7.31,3.27-7.31,7.31s3.27,7.31,7.31,7.31,7.31-3.27,7.31-7.31-3.27-7.31-7.31-7.31h0Z"/>
    <path class="cls-2" d="M4193.63,995.82c2.29,0,4.16,1.87,4.16,4.16s-1.87,4.16-4.16,4.16-4.16-1.87-4.16-4.16,1.87-4.16,4.16-4.16M4193.63,992.67c-4.04,0-7.31,3.27-7.31,7.31s3.27,7.31,7.31,7.31,7.31-3.27,7.31-7.31-3.27-7.31-7.31-7.31h0Z"/>
    <path class="cls-2" d="M4231.69,995.82c2.29,0,4.16,1.87,4.16,4.16s-1.87,4.16-4.16,4.16-4.16-1.87-4.16-4.16,1.87-4.16,4.16-4.16M4231.69,992.67c-4.04,0-7.31,3.27-7.31,7.31s3.27,7.31,7.31,7.31,7.31-3.27,7.31-7.31-3.27-7.31-7.31-7.31h0Z"/>
    <path class="cls-2" d="M4117.52,995.82c2.29,0,4.16,1.87,4.16,4.16s-1.87,4.16-4.16,4.16-4.16-1.87-4.16-4.16,1.87-4.16,4.16-4.16M4117.52,992.67c-4.04,0-7.31,3.27-7.31,7.31s3.27,7.31,7.31,7.31,7.31-3.27,7.31-7.31-3.27-7.31-7.31-7.31h0Z"/>
  </g>
  <g class="cls-7">
    <text class="cls-8" transform="translate(4009.24 791.15)"><tspan x="0" y="0">Development</tspan></text>
  </g>
  <g>
    <path class="cls-2" d="M2409.48,1329.98c1.75,5.25,3.33,10.13,5.04,14.96.2.56,1.14,1.09,1.81,1.18,1.32.19,2.69.02,4.04.07,6.5.22,11.65,5.33,11.79,11.84.11,4.97.03,9.95.03,14.93,0,4.33-1.26,5.6-5.53,5.6h-102.21c-4.34,0-5.61-1.25-5.61-5.52,0-4.81-.04-9.61,0-14.42.07-7.23,5.24-12.36,12.49-12.45,3.21-.04,5.34-1.62,6.39-4.74,1.25-3.74,2.49-7.47,3.82-11.46h-69.87c-13.14,0-21.66-8.53-21.66-21.69v-126.75c0-13.02,8.53-21.58,21.49-21.6h18.99v-12.98c0-2.36-.03-4.72,0-7.08.1-7.08,5.27-12.28,12.36-12.31,12.65-.05,25.3-.02,37.95-.02h106.01c8.95,0,13.71,4.78,13.72,13.76v18.63h18.4c13.71,0,22.09,8.35,22.09,22.02v125.99c0,13.67-8.38,22.03-22.09,22.03h-69.46.01ZM2432.5,1251.82c3.06-2.32,6.68-3.49,10.86-2.39,4.15,1.09,6.73,3.98,8.93,7.44v-88.67h-153.71v107.37c0,4.66,1.17,5.83,5.81,5.83h75.22c-.33-4.9.07-9.25,3.59-12.73,3.5-3.45,7.91-3.66,12.37-3.46v-11.76c-.18-.12-.37-.25-.55-.37-.49.67-.9,1.43-1.49,1.99-12.24,11.69-26.74,16.33-43.4,13.22-27.07-5.04-44.52-31.98-38.17-58.56,6.52-27.28,34.03-43.58,60.7-35.71,16.65,4.91,27.56,15.96,33.08,32.38.37,1.09.35,2.14,2.11,2.2,7.42.28,12.15,5.29,12.18,12.69.03,8.26,0,16.53,0,24.79v2.76c2.33.16,4.48.05,6.48.53,1.99.48,3.85,1.55,5.98,2.46h0ZM2318.81,1220.59c-.01,18.49,12.28,34.44,30.22,39.21,17.66,4.69,36.39-3.18,45.39-19.19.78-1.39,1.22-3.13,1.27-4.73.16-4.97-.15-9.95.15-14.91.14-2.34,1.3-4.61,1.91-6.93.31-1.2.86-2.56.58-3.66-4.96-19.31-24.08-32.53-43.22-30-21.19,2.8-36.29,19.52-36.3,40.22h0ZM2452.73,1321.76c-2.25-8.76,3.13-15.18,6.37-22.27.28-.61.66-1.18.9-1.81.24-.61.51-1.27.51-1.91.03-8.77.03-17.54,0-26.31,0-2.22-1.15-3.76-3.33-4.14-1.51-.26-3.1-.05-4.84-.05v20h-8.01c0-7.83.01-15.49,0-23.15,0-3.17-1.56-5.03-4.08-5s-4,1.86-4.01,5.08c-.02,6.83,0,13.66,0,20.49v2.62h-8.1v-2.6c0-7,.03-14-.01-20.99-.02-3.01-1.53-4.51-4.49-4.6-1.14-.04-2.29,0-3.7,0v28.21h-7.99v-62.8c0-.84.08-1.71-.09-2.52-.44-2.04-1.76-3.3-3.88-3.33-2.24-.03-3.61,1.25-4.05,3.42-.16.81-.08,1.68-.08,2.52v62.66h-8.15v-11.97h-1.88c-5.01-.06-6.17,1.05-6.17,5.97s-.08,9.78.06,14.67c.03,1.11.57,2.46,1.33,3.25,3.96,4.15,7.99,8.22,12.14,12.18,1.91,1.82,2.93,3.77,2.69,6.45-.17,1.97-.03,3.97-.03,5.94h48.89ZM2274.5,1184.29v121.18h110.89c-6.09-3.84-6.52-9.71-5.72-15.97h-75.37c-9.08,0-13.81-4.77-13.81-13.92v-91.28h-15.99ZM2452.43,1159.84v-18.21c0-4.85-1.12-5.98-5.91-5.98h-115.83c-9.1,0-18.21-.02-27.31.01-3.3.01-4.76,1.49-4.79,4.8-.03,3.71,0,7.42,0,11.13v8.25h153.85-.01ZM2395.75,1321.88v-3.21c0-4.6-.28-4.88-4.84-4.88h-118.64c-4.99,0-6.08-1.08-6.08-6.07v-126.73c.06-3.34,1.47-4.8,4.76-4.84,2.44-.04,4.89,0,7.34,0h12v-8.1h-18.65c-8.62,0-13.54,4.87-13.54,13.43v126.99c0,8.56,4.91,13.43,13.53,13.43h124.11v-.02ZM2460.82,1184.35c-.15.25-.22.32-.22.39-.03,23.95-.06,47.9-.01,71.85,0,.62.66,1.49,1.25,1.81,4.7,2.57,6.82,6.53,6.8,11.81-.03,7.42-.16,14.85.05,22.26.12,4.08-.43,7.85-2.65,11.33-.32.5-.44,1.14-.66,1.71h11.22v-121.15h-15.78ZM2460.64,1176.13h18.9c3.94,0,5.28,1.36,5.28,5.35v126.98c0,3.97-1.35,5.31-5.31,5.32-5.56.01-11.13-.05-16.69.06-.76.01-2.1.75-2.16,1.26-.24,2.21-.1,4.46-.1,6.78h18.57c8.97,0,13.79-4.78,13.79-13.68v-64.5c0-21,.01-41.99,0-62.99,0-6.51-4.09-11.97-10.25-12.42-7.27-.53-14.6-.12-22.02-.12v7.97h-.01ZM2424.09,1370.37v-10.28c0-4.64-1.18-5.81-5.82-5.82h-85.46c-.76,0-1.53-.06-2.27.05-1.97.29-3.42,1.45-3.51,3.42-.18,4.17-.06,8.36-.06,12.63h97.12ZM2406.28,1346.11c-1.59-4.82-3.18-9.33-4.54-13.92-.53-1.8-1.41-2.27-3.21-2.26-14.08.07-28.17.04-42.25.04-4.13,0-6.84,1.94-8.13,5.83-1.12,3.38-2.23,6.76-3.4,10.3h61.54-.01Z"/>
    <path class="cls-2" d="M2383.67,1235.71c.02,7.82-5.15,13.2-11.68,13.35-6.89.16-12.47-4.95-12.62-11.73-.03-1.46-.38-2.28-1.74-2.9-2.83-1.29-5.61-2.71-8.37-4.16-1.15-.6-1.96-.67-3.15.18-5.33,3.77-12.05,2.95-16.2-1.81-4.01-4.59-4-11.37.03-15.96,4.17-4.75,10.78-5.44,16.28-1.85.71.47,2.04.59,2.82.25,2.93-1.27,5.73-2.84,8.63-4.19,1.21-.57,1.68-1.24,1.71-2.66.13-5.85,4.03-10.39,9.74-11.63,5.18-1.12,10.63,1.53,13.12,6.38,2.52,4.92,1.42,10.83-2.72,14.54-4.2,3.76-10.24,4.2-14.93.89-1.21-.86-2.08-1.02-3.37-.32-2.81,1.52-5.75,2.82-8.54,4.38-.69.39-1.39,1.45-1.39,2.21s.69,1.82,1.38,2.21c2.79,1.57,5.72,2.87,8.54,4.38,1.29.69,2.15.53,3.37-.31,4.01-2.76,8.33-3.07,12.66-.75,4.22,2.26,6.29,5.93,6.42,9.51h.01ZM2375.49,1204.44c-.02-2.18-1.82-3.99-3.99-4-2.28-.02-4.15,1.91-4.07,4.18.08,2.17,1.95,3.93,4.12,3.88,2.17-.05,3.96-1.89,3.94-4.06ZM2343.1,1220.72c.04-2.17-1.74-4.02-3.91-4.09-2.16-.07-4.05,1.68-4.15,3.85-.11,2.27,1.77,4.22,4.03,4.22s3.99-1.8,4.03-3.98h0ZM2375.49,1236.78c-.04-2.18-1.87-3.97-4.04-3.95-2.28.01-4.13,1.96-4.02,4.23.11,2.17,2,3.91,4.17,3.83,2.17-.08,3.93-1.94,3.89-4.11h0Z"/>
    <path class="cls-2" d="M2306.89,1143.83h40.12v7.88h-40.12v-7.88Z"/>
    <path class="cls-2" d="M2355.38,1151.66v-7.79h40.17v7.79h-40.17Z"/>
    <path class="cls-2" d="M2404.06,1143.79h40.08v7.88h-40.08v-7.88Z"/>
  </g>
  <g>
    <path class="cls-2" d="M2875.39,865.83c1.35-1.61,2.76-3.08,5.16-2.14,2.36.92,2.52,2.9,2.52,5.05-.02,19.58-.01,39.17-.01,58.75v3.24h150.97c-1.65-4.24-3.7-8.52-4.96-13.01-2.24-7.97-1.85-16.2-1.34-24.36.23-3.77,3.29-6.51,7.21-6.6,6.35-.14,12.71-.04,19.24-.04v-12.88c-.43.14-.8.23-1.14.38-5.23,2.34-10.02-.64-10.11-6.34-.05-3.32.1-6.65-.08-9.96-.05-.98-.68-2.29-1.47-2.82-4.43-2.94-6.54-7.02-6.55-12.26-.01-6.02,0-12.05,0-18.21h-151.77v2.63c0,6.9-.04,13.79.02,20.69.02,2.21-.32,4.19-2.65,4.97-2.34.78-3.88-.51-5.04-2.42v-28.1c2.12-4.34,5.61-5.66,10.36-5.65,48.44.12,96.88.07,145.32.07h3.75v-2.75c0-7.75-.02-15.5,0-23.24.03-8.79,5.59-14.41,14.33-14.41,24.52-.02,49.04-.02,73.55,0,8.62,0,14.2,5.62,14.21,14.25.02,17.2.01,34.4,0,51.6,0,9.25-5.49,14.7-14.82,14.71-16.17.02-32.35.06-48.52-.05-2.89-.02-4.79,1.09-6.9,2.98-3.83,3.42-5.23,7.27-4.77,12.35.43,4.81.14,9.7.07,14.55-.02,1.46.34,2.25,1.84,2.81,9.01,3.36,14.45,9.84,16.43,19.26.13.61.46,1.29.9,1.72,6.28,6.08,12.66,12.07,18.87,18.22,2.11,2.09,2.46,4.94,1.23,7.6-.79,1.71-.23,2.54.89,3.65,8.46,8.4,16.88,16.84,25.3,25.27,3.9,3.91,3.92,7.1.07,10.98-3.48,3.5-6.96,7.01-10.48,10.47-3.54,3.5-6.94,3.52-10.44.08-3.1-3.04-6.17-6.11-9.21-9.21-1.95-1.99-2.08-4.24-.46-5.86,1.69-1.68,3.79-1.57,5.84.45,2.96,2.92,5.85,5.92,8.63,8.74,3.54-3.55,6.89-6.91,10.09-10.11-8.71-8.69-17.66-17.62-26.39-26.33-3.05,3.06-6.39,6.41-10.39,10.4,1.17.96,2.89,2.19,4.39,3.64,2.16,2.08,2.25,4.34.46,6.01-1.63,1.53-3.85,1.29-5.87-.64-.55-.53-1.11-1.06-1.62-1.63-1.55-1.74-2.86-3.02-5.69-1.72-2.6,1.2-5.33-.02-7.4-2.14-2.2-2.25-4.38-4.51-6.88-7.09-1.82,5.73-5.97,6.52-10.93,6.46-13.87-.17-27.75-.06-41.89-.06.25.76.39,1.38.65,1.95,4.68,10.29,9.4,20.57,14.02,30.89.66,1.46,1.41,2,3.02,1.97,5.45-.1,10.9-.05,16.34-.03,2.96.01,4.73,1.48,4.73,3.83s-1.77,3.82-4.74,3.82h-149.15c-2.99,0-4.73-1.46-4.73-3.82s1.77-3.82,4.73-3.83c5.53-.02,11.07.04,16.6-.06.81-.02,2.05-.57,2.35-1.22,5.04-10.87,9.96-21.8,14.9-32.72.06-.14,0-.33,0-.76h-2.72c-13.2,0-26.39-.15-39.58.08-4.79.08-8.25-1.3-10.32-5.7v-86.34h.03ZM3050.57,866.11c3.91-4.2,7.44-7.75,10.69-11.54,3.24-3.79,7.14-5.35,12.11-5.31,16.26.14,32.52.06,48.78.05,5.05,0,7.11-2.1,7.11-7.16v-51.09c0-4.89-2.09-6.98-6.99-6.99h-72.79c-4.87,0-6.99,2.13-7,7.01-.01,17.11.02,34.23-.03,51.34,0,2.92.99,5.07,3.61,6.5,3.15,1.71,4.51,4.48,4.5,8.01-.01,2.8,0,5.6,0,9.18h0ZM3054.31,950.03c0-1.87.48-3.7-.11-5.05-.89-2.03-2.23-4.15-3.98-5.42-1.33-.97-3.58-.92-5.43-.92-52.95-.04-105.9-.03-158.85-.03h-2.69v11.42h171.06ZM3016.28,992.55c-.24-.7-.32-1.02-.46-1.32-4.82-10.6-9.67-21.18-14.42-31.81-.67-1.5-1.62-1.64-2.98-1.64-19.83.03-39.66.03-59.49-.02-1.57,0-2.37.43-3.04,1.93-4.57,10.25-9.26,20.44-13.89,30.65-.29.64-.47,1.32-.78,2.21,5.38,0,10.4.07,15.41-.07.73-.02,1.73-.89,2.1-1.62,3.08-6.16,6.12-12.34,9-18.59,1.89-4.11,4.92-6.07,9.43-6.03,7.66.06,15.32.08,22.98,0,4.63-.06,7.7,1.97,9.63,6.15,2.85,6.17,5.83,12.29,8.85,18.38.38.76,1.35,1.7,2.07,1.72,5.1.15,10.2.08,15.59.08v-.02ZM3035.28,894.4c-.3,8.46-.61,16.6,1.99,24.52,2.27,6.95,6.81,11.45,14.12,12.78.88.16,2.2-.22,2.84-.84,5.97-5.81,11.85-11.71,17.67-17.67.57-.58.9-1.79.76-2.61-1.36-7.79-6.26-12.42-13.63-14.54-7.7-2.21-15.58-2.31-23.75-1.65h0ZM2946.59,992.36h44.24c-2.83-5.9-5.51-11.57-8.32-17.16-.32-.63-1.44-1.21-2.19-1.22-7.73-.09-15.46-.09-23.19,0-.75,0-1.87.59-2.19,1.22-2.82,5.59-5.5,11.25-8.36,17.17h.01ZM3059.37,937.3c5.09,5.09,10.3,10.29,15.32,15.3,6.26-6.22,12.7-12.61,19-18.87-5.13-5.13-10.33-10.34-15.39-15.41-6.26,6.28-12.67,12.7-18.92,18.98h-.01Z"/>
    <path class="cls-2" d="M2968.68,912.66c-17.32-.41-32.15-6.24-43.86-19.17-4.15-4.58-4.23-8.55-.13-13.11,11.45-12.72,25.92-18.92,42.9-19.2,17.86-.29,33.09,5.87,45.19,19.23,3.92,4.33,3.9,8.52-.04,12.91-11.79,13.14-26.77,19-44.06,19.34h0ZM2968.67,904.97c11.23.02,18.87-7.27,18.92-18.07.05-10.77-7.57-18.09-18.83-18.1-11.39,0-18.85,7.12-18.86,18-.01,10.86,7.51,18.15,18.76,18.17h.01ZM2944.28,899.03c-.71-4.23-1.92-8.28-1.91-12.33.02-4.02,1.27-8.04,1.99-12.08-5.41,2.7-10.29,6.48-14.31,11.36-.3.36-.34,1.38-.06,1.72,4.05,4.85,8.89,8.69,14.29,11.34h0ZM2992.08,874.11c4.21,8.72,4.06,16.89.07,25.47,6.18-3.08,10.96-6.84,15-11.54.38-.45.64-1.59.36-1.92-4.1-4.93-9.01-8.84-15.43-12.01h0Z"/>
    <path class="cls-2" d="M2972.48,847.64c0,.68.06,1.36-.01,2.04-.22,2.04-1.37,3.27-3.42,3.45-2.2.18-3.62-.96-4.04-3.05-.27-1.39-.21-2.88-.12-4.31.14-2.36,1.78-3.93,3.87-3.91s3.61,1.64,3.74,4.01c.03.59,0,1.19,0,1.78h-.03.01Z"/>
    <path class="cls-2" d="M3001.96,852.56c-.08,2.27-3.19,5.22-5.46,5.17-2.18-.05-3.78-1.8-3.66-4,.13-2.34,3.29-5.25,5.52-5.1,1.99.14,3.66,1.96,3.59,3.92h0Z"/>
    <path class="cls-2" d="M2944.62,854.09c-.07,2.16-1.84,3.76-4.04,3.63-2.41-.13-5.16-3.16-5.02-5.52.11-2.04,1.86-3.65,3.87-3.58,2.27.08,5.27,3.24,5.2,5.47h-.01Z"/>
    <path class="cls-2" d="M3085.8,803.05c-7.65,0-15.31.01-22.96,0-3.07,0-4.68-1.36-4.66-3.82.02-2.41,1.68-3.83,4.71-3.83,15.31-.02,30.62-.02,45.93,0,3.01,0,4.74,1.41,4.8,3.76.06,2.51-1.63,3.88-4.85,3.89-7.65.01-15.31,0-22.96,0h-.01Z"/>
    <path class="cls-2" d="M3086.06,820.45c-7.74,0-15.48.01-23.22,0-3.09,0-4.67-1.34-4.66-3.81.02-2.42,1.67-3.83,4.71-3.84,15.31-.03,30.62-.02,45.93,0,3.01,0,4.75,1.43,4.8,3.77.06,2.51-1.61,3.88-4.85,3.88-7.57.02-15.14,0-22.71,0Z"/>
    <path class="cls-2" d="M3073.44,837.86c-3.65,0-7.3.03-10.95-.01-2.75-.03-4.23-1.33-4.31-3.62-.08-2.38,1.47-3.97,4.26-4,7.38-.07,14.77-.07,22.16,0,2.79.03,4.38,1.62,4.33,3.95-.06,2.34-1.63,3.64-4.54,3.67-3.65.03-7.3,0-10.95,0h0Z"/>
  </g>
  <g>
    <path class="cls-2" d="M3440.6,1153.57c-4.2-3.9-7.11-8.3-8.15-13.81-1.88-9.92,2.62-19.72,11.38-24.69,8.62-4.89,19.36-3.78,26.82,2.87,2.43,2.17,4.67,4.54,6.97,6.84,14.8,14.8,29.61,29.59,44.38,44.43,1.12,1.13,2.23,1.6,3.83,1.59,14.01-.06,28.01-.03,42.02-.03h2.33c-3.95-21.45,2.01-39.07,20.25-51,16.47-10.77,33.83-10.45,50.69-.21,13.22,8.03,25.73,26.36,20.28,51.22,2.8,0,5.55-.02,8.3,0,3.34.03,4.74,1.41,4.74,4.78.02,14.01,0,28.02,0,42.03v130.98c0,4.99-1,6-5.98,6h-203.76c-19.28,0-32.67-13.42-32.67-32.76,0-47.41.08-94.81-.07-142.22-.03-9.65,1.94-18.39,8.61-26.02h.03ZM3666.46,1346.75v-168.15c-2.37,0-4.56-.09-6.75.05-.64.04-1.44.59-1.82,1.14-2.19,3.23-4.18,6.58-6.41,9.78-4.21,6.06-7.17,12.64-7.83,20-.47,5.26-.36,10.57-.48,15.85-.14,5.87-3.86,10.4-9.61,11.62-.69.15-1.39.27-2.04.39-1.02,9.16-7.03,15.2-15.2,15.43-8.67.24-14.73-5.46-16.37-15.51-.27-.05-.57-.1-.88-.15-6.75-1.08-10.62-5.59-10.65-12.43-.01-2.93,0-5.87,0-8.8,0-10.19-3.09-19.33-9.15-27.53-1.88-2.54-3.59-5.24-5.1-8.01-.78-1.43-1.57-1.9-3.17-1.89-12.3.07-24.6.04-36.89.04h-2.72c4.19,4.18,7.98,7.82,11.59,11.65,1.18,1.25,2.22,2.85,2.72,4.48,3.7,11.96,7.24,23.97,10.86,35.96.58,1.93,1.06,3.81-.64,5.45-1.61,1.54-3.41,1.1-5.26.54-10.43-3.15-20.81-6.49-31.32-9.32-5.16-1.39-9.3-3.81-12.84-7.78-3.6-4.04-7.59-7.73-11.9-12.05v113.73c0,.89.09,1.82-.09,2.68-.42,1.98-1.7,3.17-3.75,3.21-2.05.04-3.35-1.13-3.86-3.08-.18-.69-.09-1.46-.16-2.19-.89-9.39-5.5-16.3-14.15-20.07-8.71-3.8-17.02-2.37-24.19,3.7-7.16,6.06-9.95,13.99-7.83,23.25,2.49,10.9,11.96,17.98,23.7,17.99,66.62.01,133.24,0,199.87,0h2.34l-.02.02ZM3486.79,1302.44v-2.17c0-32.9.01-65.8-.06-98.7,0-1.11-.7-2.48-1.5-3.3-12.44-12.55-24.95-25.03-37.44-37.52-.5-.5-1.06-.95-1.7-1.52-4.31,5.05-6.21,10.75-6.21,17.17v123.62c0,.68.08,1.37.14,2.23,14.37-14.5,34.62-12.7,46.77.18h0ZM3619.73,1182.39c0-1.39-.03-2.67,0-3.95.21-6.53,5.38-11.6,11.79-11.56,6.3.04,11.52,5.18,11.64,11.47.12,6.51-4.98,11.77-11.63,11.97-1.27.04-2.55,0-3.99,0v23.35h7.65c.31-2.43.55-4.77.92-7.08,1.53-9.39,5.91-17.42,11.51-25.01,9.71-13.15,9.7-31.36.35-44.88-9.44-13.65-26.48-19.89-42.37-15.53-26.57,7.3-37.61,38.73-21.27,60.91,5,6.78,8.95,13.97,10.69,22.24.64,3.07.99,6.21,1.47,9.26h7.45v-23.28c-1.42,0-2.71.04-3.99,0-6.52-.23-11.56-5.44-11.5-11.85.06-6.29,5.24-11.49,11.53-11.58,6.42-.09,11.65,4.93,11.89,11.45.05,1.35,0,2.7,0,4.06h7.86ZM3473.07,1131.46c-2.55-2.58-5.01-5.31-7.73-7.75-4.92-4.43-12.23-4.99-17.94-1.58-5.73,3.42-8.54,10.05-7.15,16.55,1.44,6.78,7.19,10.07,11.08,14.55,7.39-7.4,14.51-14.53,21.73-21.77h0ZM3483.3,1156.91c12.84,12.83,25.8,25.79,38.56,38.55.47-4.41,1.27-5.13,6.22-5.13h2.95c-13.57-13.58-27.18-27.18-40.55-40.56-2.32,2.31-4.9,4.87-7.18,7.14ZM3515.34,1201.98c-12.84-12.85-25.79-25.82-38.52-38.56-2.37,2.31-4.97,4.85-7.36,7.18,13.53,13.54,27.12,27.14,40.78,40.8v-3.44c0-4.76.85-5.67,5.1-5.98h0ZM3596.26,1221.71c0,1.15-.01,2.11,0,3.07.06,3.19,1.44,4.64,4.62,4.64,10,.03,20,.03,30,0,3.01-.01,4.41-1.49,4.48-4.54.02-1.03,0-2.05,0-3.17h-39.1ZM3518.27,1209.88c-.6,5.71,1.65,9.34,6.76,10.87.62.19,1.25.54,1.86.53.71,0,1.62-.11,2.08-.55,3.97-3.85,7.88-7.77,11.74-11.74.41-.42.68-1.32.54-1.87-.79-2.97-1.74-5.91-2.63-8.85h-8.83v6.41c-.02,3.95-1.29,5.19-5.31,5.2h-6.22,0ZM3462.99,1164.82c7.32-7.35,14.48-14.53,21.23-21.31-1.71-1.82-3.62-3.86-5.07-5.41-7.09,7.09-14.25,14.25-21.33,21.33,1.6,1.66,3.45,3.6,5.17,5.39h0ZM3619.61,1190.47h-7.55v23.14h7.55v-23.14ZM3608.16,1237.35c.05,4.34,3.31,7.64,7.51,7.71,4.31.07,7.65-3.18,7.82-7.71h-15.33ZM3604.05,1182.47c0-1.65.1-2.96-.02-4.25-.21-2.1-1.95-3.59-3.97-3.53-2.01.06-3.7,1.73-3.79,3.74-.08,2.02,1.38,3.79,3.48,4.01,1.35.14,2.72.03,4.3.03ZM3627.56,1182.49c1.56,0,2.78.07,3.98-.02,2.28-.16,3.84-1.84,3.8-3.96-.04-2.02-1.69-3.72-3.7-3.82-2.11-.11-3.88,1.45-4.06,3.69-.1,1.28-.02,2.57-.02,4.11ZM3547.39,1227.47c-1.11-3.71-2.11-7.05-2.98-9.95-2.36,2.36-4.72,4.71-6.99,6.99,2.96.88,6.27,1.86,9.97,2.96Z"/>
    <path class="cls-2" d="M3511.95,1303.73c-1.86,0-3.57.05-5.28-.01-2.64-.09-4.18-1.49-4.22-4.05-.07-5.13-.08-10.26,0-15.39.04-2.45,1.56-3.84,4.02-4,.16-.01.33,0,.49,0,5.41-.14,5.43-.13,7.22-5.4.16-.48-.09-1.13-.26-1.67-.09-.28-.44-.47-.66-.7-5.13-5.23-5.13-5.61-.03-10.72,2.65-2.65,5.28-5.32,7.96-7.94,2.24-2.19,4.3-2.16,6.6,0,3.97,3.73,4.15,3.77,8.93,1.12.43-.24.81-.93.86-1.44.12-1.46,0-2.93.06-4.39.12-2.46,1.54-3.98,4-4.01,5.13-.08,10.26-.07,15.39,0,2.46.03,3.92,1.54,4.03,3.99.08,1.78.02,3.58.02,5.47,1.82.77,3.57,1.6,5.38,2.23.52.18,1.35-.05,1.83-.38.79-.55,1.41-1.35,2.1-2.03,2.97-2.95,4.71-2.97,7.61-.08,3.23,3.22,6.48,6.42,9.66,9.69,2.02,2.07,2.27,4.47.02,6.14-3.52,2.61-3.66,5.36-1.55,8.75.25.4.39.87.62,1.4,1.75,0,3.45-.04,5.16,0,2.78.07,4.31,1.47,4.35,4.17.07,5.05.07,10.1,0,15.15-.04,2.59-1.55,4.02-4.16,4.11-1.78.06-3.57.01-5.32.01-.76,1.78-1.56,3.39-2.09,5.08-.21.65-.02,1.67.39,2.23.75,1.04,1.82,1.85,2.71,2.81,1.85,2.01,1.91,4.09.02,6.04-3.47,3.56-6.98,7.08-10.54,10.54-1.92,1.87-4.4,2.05-5.99-.08-2.59-3.45-5.33-3.77-8.74-1.58-.4.26-.88.38-1.44.62,0,1.8.05,3.59-.01,5.37-.1,2.6-1.54,4.11-4.13,4.14-5.05.07-10.1.07-15.15,0-2.6-.03-4.05-1.53-4.14-4.12-.07-1.78-.01-3.57-.01-5.32-.34-.18-.55-.29-.75-.4-3.57-2.01-6.74-2.7-9.61,1.45-1.42,2.06-3.9,1.78-5.77-.04-3.55-3.47-7.07-6.99-10.54-10.54-1.92-1.96-2.14-4.37-.01-5.96,3.56-2.65,3.83-5.47,1.59-8.95-.22-.34-.34-.74-.58-1.29l-.04-.02ZM3553.53,1253.07h-8.09c0,1.47-.03,2.76,0,4.05.06,2.37-1.12,3.71-3.3,4.52-3.18,1.19-6.31,2.53-9.41,3.91-1.85.83-3.49.76-4.93-.68-1.07-1.07-2.04-2.26-2.72-3.02-2.27,1.98-4.15,3.62-6.31,5.5,1.2,1.06,2.27,1.95,3.27,2.9,1.63,1.56,1.71,3.28.77,5.32-1.42,3.08-2.67,6.25-3.9,9.42-.76,1.97-2.02,3.09-4.18,3.09h-4.31v7.83h4.3c2.16-.01,3.42,1.1,4.19,3.07,1.26,3.24,2.59,6.46,4,9.64.83,1.85.74,3.49-.69,4.93-1.07,1.08-2.25,2.04-3.12,2.83,2.08,2.17,3.79,3.97,5.74,6.01.76-.88,1.46-1.79,2.26-2.59,2.36-2.36,3.46-2.38,6.48-.9,2.61,1.28,5.33,2.38,8.08,3.34,2.95,1.03,3.75,1.95,3.77,5.12v3.57h7.83v-4.31c0-2.15,1.11-3.42,3.08-4.19,3.24-1.26,6.46-2.58,9.64-4,1.85-.83,3.49-.76,4.92.68,1.07,1.08,2.03,2.27,2.68,3.01,2.29-1.98,4.18-3.61,6.35-5.48-1.09-.95-2.06-1.7-2.92-2.56-2.14-2.15-2.17-3.35-.87-6.08,1.32-2.78,2.52-5.63,3.5-8.54.82-2.43,2.22-3.68,4.81-3.57,1.27.05,2.55,0,3.82,0v-7.82c-1.47,0-2.77-.03-4.06,0-2.38.06-3.69-1.16-4.5-3.33-1.16-3.11-2.43-6.18-3.83-9.19-.95-2.04-.88-3.77.77-5.31,1.05-.98,2.18-1.89,3.01-2.6-2.08-2.27-3.76-4.11-5.68-6.21-.88,1.02-1.58,1.93-2.38,2.73-2.36,2.36-3.53,2.47-6.47.89-1.57-.85-3.14-1.93-4.83-2.27-5.36-1.07-8.56-3.52-6.77-9.74v.03Z"/>
    <path class="cls-2" d="M3592.47,1331.02v-7.73h2.74c12.87,0,25.74.07,38.6-.04,7.83-.07,14.71-5.64,16.61-13.11,1.99-7.83-1.39-16.05-8.53-19.74-2.45-1.26-5.37-2.08-8.12-2.21-13.08-.65-21.84-9.57-21.87-22.63v-4.71h7.82v4.5c.02,9.1,5.35,14.64,14.4,14.94,12.73.43,22.76,9.66,24.55,22.59,1.59,11.49-5.92,23.24-17.37,26.89-2.44.78-5.09,1.25-7.65,1.28-13.27.13-26.55.06-39.83.06-.39,0-.79-.05-1.35-.08h0Z"/>
    <path class="cls-2" d="M3615.91,1135.45v-7.42c15.66-1.02,31.66,13.66,30.97,30.88h-7.43c-1.16-14.93-11.69-22.88-23.54-23.46Z"/>
    <path class="cls-2" d="M3549.37,1268.54c13.04.05,23.5,10.66,23.42,23.74-.08,12.75-10.69,23.21-23.49,23.17-13.05-.04-23.52-10.66-23.42-23.73.1-12.77,10.7-23.23,23.48-23.18h.01ZM3564.98,1291.95c0-8.62-7.08-15.63-15.75-15.59-8.52.04-15.5,7.03-15.52,15.56-.03,8.65,7,15.72,15.62,15.72s15.66-7.04,15.65-15.69h0Z"/>
  </g>
  <g>
    <path class="cls-2" d="M4244.25,531.18c.92.29,1.86.55,2.77.87,5.79,2.07,9.67,7.51,9.7,13.81.05,9.86.02,19.71.02,29.57v91.83c0,9.02-3.16,13.5-11.76,16.53v20.5c0,4.32-1.54,8.02-4.69,10.98-2.74,2.58-6.05,3.95-9.81,3.95-19.71.03-39.43.06-59.14,0-8.04-.03-14.49-6.49-14.5-14.53-.05-39.24-.04-78.48,0-117.73,0-8.15,6.45-14.6,14.59-14.63,19.65-.06,39.3-.06,58.96,0,8.35.03,14.58,6.59,14.59,15.2.02,29.2,0,58.4,0,87.61v2.18c3.14-.74,5.58-3.85,5.84-7.32.06-.73.03-1.47.03-2.2v-120.48c0-6.91-3.35-10.27-10.22-10.27h-133.77v-5.88h137.39ZM4162.83,592.96v102.64h76.18v-102.61h-14.84c-.13.45-.23.8-.33,1.15-1.66,5.7-4.12,7.56-10.05,7.56h-26.44c-4.91,0-7.59-1.94-9.12-6.6-.23-.69-.4-1.39-.62-2.15h-14.78ZM4239.05,587.02c-.2-5.29-3.93-8.8-9.13-8.81-15.12-.02-30.24,0-45.35,0-4.41,0-8.81-.06-13.22.02-4.85.08-8.81,4.2-8.45,8.8,5.61,0,11.23-.01,16.86,0,2.35,0,3.32.95,3.55,3.26.09.91.21,1.83.44,2.71.6,2.3,1.35,2.84,3.76,2.84,9,0,18-.04,26.99.04,1.94.02,2.99-.77,3.46-2.54.22-.83.43-1.66.53-2.51.38-3.2,1.04-3.8,4.33-3.81h16.24,0ZM4162.7,701.7v2.38c.04,5.58,3.74,9.29,9.35,9.29,19.27.01,38.53.02,57.8,0,6.4,0,10.59-5.49,8.98-11.68h-76.13Z"/>
    <path class="cls-2" d="M4089.23,531.18v5.88c-2.01,0-3.88-.02-5.76,0-5.13.07-8.92,3.82-8.92,8.98-.02,35.81-.01,71.61,0,107.42,0,.3.03.6.06,1.09h76.23v5.89h-75.96c0,3.82-.41,7.57.11,11.19.55,3.86,4.27,6.43,8.28,6.47,5.02.06,10.04.02,15.06.02h52.47v5.83h-18.08c-.5,2-.96,3.82-1.47,5.87h19.59v5.94h-22.05c-3.47,0-4.31.85-4.29,4.34v1.47h26.33v5.94h-28.28c-2.98,0-3.92-.95-3.93-3.97,0-1.65-.05-3.31,0-4.96.12-3.55,1.78-6.23,4.96-7.76,1.2-.58,1.76-1.29,1.99-2.53.25-1.38.63-2.73,1.01-4.3h-41.77c-8.64,0-13.67-3.86-15.94-12.2-.03-.11-.14-.19-.21-.29v-127.83c.13-.39.29-.78.39-1.18,1.16-4.43,3.74-7.74,7.85-9.77,1.34-.66,2.83-1.03,4.25-1.54h8.08-.01Z"/>
    <path class="cls-2" d="M4100.99,531.18v5.75h-5.88v-5.75h5.88Z"/>
    <path class="cls-2" d="M4124.49,550.07c1.4.59,2.67,1.2,3.99,1.66.4.14,1.06.03,1.39-.23.85-.69,1.56-1.55,2.38-2.29,1.38-1.24,2.93-1.29,4.26,0,2.77,2.68,5.5,5.41,8.18,8.18,1.28,1.32,1.44,3.17-.03,4.2-3.04,2.14-2.73,4.5-1.13,7.22.09.15.16.32.29.59,1.3,0,2.65-.04,3.99,0,1.96.07,3.1,1.14,3.13,3.09.05,3.79.05,7.59,0,11.39-.03,2.03-1.18,3.08-3.27,3.14-1.28.03-2.56,0-3.86,0-.14.29-.21.52-.34.72-1.67,2.68-1.79,4.96,1.15,7.05,1.53,1.09,1.34,2.94-.02,4.34-2.6,2.68-5.25,5.31-7.92,7.92-1.48,1.44-3.25,1.6-4.49.02-1.93-2.47-3.94-3.03-6.56-1.26-.3.2-.67.29-1.13.48,0,1.24.02,2.52,0,3.8-.05,2.2-1.1,3.33-3.24,3.36-3.73.04-7.47.04-11.2,0-2.05-.03-3.1-1.16-3.18-3.23v-.18q-.1-4.07-4.07-5.42c-.36-.12-.84.1-1.26.22-.15.04-.26.25-.4.37-4.2,4.05-4.27,4.05-8.45-.13-1.95-1.95-3.92-3.88-5.83-5.85-1.5-1.54-1.47-3.08,0-4.67.04-.04.09-.09.13-.13,2.86-3.01,2.88-3.02.84-6.71-.21-.38-.95-.69-1.43-.66-6.56.35-6.06-1.62-6-6.17.04-2.69-.02-5.39.01-8.08.03-2.3,1.09-3.36,3.37-3.41,1.22-.03,2.44,0,3.75,0,.58-1.36,1.21-2.67,1.69-4.03.14-.39-.02-1.04-.29-1.37-.65-.81-1.47-1.47-2.17-2.24-1.38-1.5-1.39-3.06.06-4.53,2.61-2.67,5.25-5.31,7.92-7.92,1.4-1.37,3.24-1.56,4.34-.02,2.09,2.92,4.37,2.83,7.05,1.15.2-.12.43-.2.72-.34,0-1.35-.04-2.7,0-4.04.07-1.95,1.16-3.06,3.13-3.09,3.79-.05,7.59-.05,11.39,0,1.94.03,3.02,1.16,3.09,3.12.05,1.34,0,2.68,0,3.99h.02ZM4118.62,607.55c0-1.19,0-2.22,0-3.25-.03-1.71.85-2.67,2.41-3.26,2.39-.91,4.75-1.88,7.08-2.94,1.46-.66,2.74-.61,3.85.56.75.79,1.4,1.68,2.09,2.53,1.66-1.66,2.98-2.98,4.61-4.62-.72-.57-1.49-1.08-2.14-1.72-1.7-1.68-1.71-2.55-.66-4.72.98-2.02,1.83-4.12,2.57-6.24.73-2.08,1.46-2.72,3.73-2.75h2.8v-5.88c-1.13,0-2.15-.01-3.18,0-1.7.02-2.68-.84-3.27-2.4-.91-2.39-1.88-4.75-2.94-7.08-.66-1.46-.62-2.73.55-3.85.79-.75,1.68-1.41,2.48-2.08-1.63-1.64-2.95-2.96-4.6-4.62-.54.69-1.04,1.47-1.67,2.11-1.68,1.71-2.57,1.72-4.72.68-2.02-.98-4.12-1.84-6.24-2.58-2.08-.73-2.74-1.46-2.76-3.72v-2.82h-5.88v2.62c0,2.51-.59,3.14-2.92,3.97-2.18.77-4.31,1.69-6.38,2.71-1.59.78-2.94.73-4.14-.58-.7-.76-1.32-1.59-1.98-2.39-1.64,1.63-2.96,2.96-4.62,4.61.72.56,1.5,1.06,2.14,1.7,1.71,1.68,1.72,2.57.67,4.72-.98,2.02-1.83,4.12-2.58,6.24-.73,2.08-1.47,2.73-3.73,2.76-.95.01-1.9,0-2.81,0v5.88c1.12,0,2.15.01,3.17,0,1.71-.03,2.68.84,3.27,2.4.91,2.39,1.88,4.75,2.94,7.08.66,1.46.62,2.74-.55,3.85-.79.75-1.68,1.4-2.55,2.12,1.65,1.65,2.97,2.97,4.61,4.61.73-.87,1.38-1.76,2.14-2.55,1.12-1.17,2.39-1.2,3.85-.54,2.33,1.05,4.69,2.03,7.08,2.94,1.56.59,2.42,1.58,2.39,3.28-.02,1.07,0,2.14,0,3.23h5.89Z"/>
    <path class="cls-2" d="M4118.61,642.85v8.68h-5.83c0-4-.1-8.02.05-12.03.06-1.59,1.28-2.46,2.89-2.51,1.4-.05,2.8-.01,4.16-.01.13-.28.19-.46.29-.61,1.63-2.72,1.89-5.07-1.13-7.21-1.47-1.04-1.31-2.88-.03-4.2,2.69-2.76,5.41-5.49,8.18-8.18,1.32-1.28,3.16-1.43,4.2.04,2.14,3.06,4.51,2.7,7.21,1.12.15-.09.32-.16.6-.29,0-1.36-.05-2.77,0-4.17.08-1.76,1.15-2.91,2.89-2.94,3.85-.07,7.69-.02,11.66-.02v5.8h-8.69c0,1.2,0,2.27,0,3.34.02,1.7-.85,2.68-2.4,3.27-2.39.91-4.75,1.89-7.08,2.94-1.46.66-2.72.61-3.85-.55-.76-.78-1.47-1.61-2.19-2.42-1.54,1.55-2.86,2.88-4.48,4.51.83.69,1.71,1.35,2.5,2.1,1.17,1.12,1.2,2.39.54,3.85-1.05,2.33-2.03,4.69-2.94,7.08-.6,1.56-1.58,2.42-3.28,2.39-1.03-.02-2.05,0-3.27,0v.02Z"/>
    <path class="cls-2" d="M4230.25,543.04v5.63h-38.04v-5.63h38.04Z"/>
    <path class="cls-2" d="M4133.44,645.69c-.43-7.6,6.65-14.71,14.45-14.5v5.67c-5.21.63-8.19,3.56-8.81,8.83h-5.65,0Z"/>
    <path class="cls-2" d="M4092.26,672.11v-5.65h17.4v5.65h-17.4Z"/>
    <path class="cls-2" d="M4236.27,543.02h5.65v5.68h-5.65v-5.68Z"/>
    <path class="cls-2" d="M4086.14,672.2h-5.58v-5.71h5.58v5.71Z"/>
    <path class="cls-2" d="M4201.02,613.47c17.68-.03,32.14,14.48,32.21,32.29.07,17.69-14.49,32.33-32.17,32.35-17.89.03-32.49-14.45-32.48-32.21,0-18,14.41-32.4,32.43-32.43h0ZM4200.93,672.23c14.61,0,26.43-11.89,26.42-26.56,0-14.4-11.9-26.3-26.29-26.33-14.68-.03-26.61,11.81-26.6,26.38,0,14.66,11.84,26.51,26.47,26.5h0Z"/>
    <path class="cls-2" d="M4189.24,589.83v-5.66h23.28v5.66h-23.28Z"/>
    <path class="cls-2" d="M4212.57,704.69v5.66h-23.28v-5.66h23.28Z"/>
    <path class="cls-2" d="M4130.37,578.31c-.07,8.11-6.72,14.63-14.86,14.58-8.07-.05-14.6-6.75-14.52-14.9.08-8.07,6.79-14.58,14.94-14.48,8,.1,14.51,6.77,14.44,14.8ZM4115.71,587c4.87-.01,8.81-4.03,8.78-8.93-.04-4.77-4.05-8.72-8.83-8.68-4.82.04-8.75,3.95-8.78,8.74-.03,4.87,3.96,8.88,8.84,8.87h0Z"/>
    <path class="cls-2" d="M4194.89,641.68c.7-.66,1.19-1.1,1.66-1.57,4.54-4.54,9.07-9.09,13.63-13.62,1.74-1.73,3.19-1.75,4.92-.05,2.75,2.7,5.48,5.42,8.17,8.18,1.56,1.6,1.6,3.09.04,4.66-8.63,8.67-17.28,17.32-25.94,25.95-1.58,1.57-3.08,1.57-4.65.02-4.74-4.69-9.45-9.4-14.14-14.14-1.63-1.65-1.61-3.12.03-4.79,2.7-2.75,5.42-5.48,8.17-8.17,1.66-1.62,3.11-1.61,4.79.03,1.13,1.1,2.18,2.28,3.33,3.5h0ZM4194.81,658.63c7.31-7.31,14.67-14.67,21.74-21.74-1.17-1.32-2.53-2.86-3.94-4.45-.52.49-.97.9-1.39,1.33-4.46,4.45-8.91,8.91-13.37,13.36-2.21,2.2-3.5,2.21-5.7-.06-.96-.99-1.78-2.13-2.49-3-1.96,1.85-3.45,3.26-4.83,4.56,3.42,3.43,6.82,6.84,9.98,10.01h0Z"/>
  </g>
  <path class="cls-1" d="M4449.88,362.96v589.02c-.84-.17-1.71-.26-2.61-.26s-1.73.09-2.55.25V362.96c0-42.66-17.28-81.26-45.23-109.22-27.96-27.95-66.56-45.24-109.22-45.24h-278.52c-42.66,0-81.26,17.29-109.22,45.24-27.95,27.96-45.24,66.56-45.24,109.22v1141.28c0,88.16-71.46,159.62-159.61,159.62h-276.16c-88.16,0-159.62-71.46-159.62-159.62v-597.13h5.16v597.13c0,42.66,17.28,81.26,45.24,109.22s66.56,45.24,109.22,45.24h276.16c42.66,0,81.25-17.28,109.21-45.24s45.24-66.56,45.24-109.22V362.96c0-88.16,71.46-159.62,159.62-159.62h278.52c88.15,0,159.61,71.46,159.61,159.62h0Z"/>
  <path class="cls-1" d="M4447.27,978.04c.9,0,1.77-.09,2.61-.26v5.78h-5.16v-5.77c.82.16,1.68.25,2.55.25h0Z"/>
</svg>